<svg xmlns="http://www.w3.org/2000/svg">
<defs>
<font id="HelveticaNeueLTW1G-Th" horiz-adv-x="519" >
  <font-face 
    font-family="HelveticaNeueLT W1G 35 Th"
    font-weight="250"
    font-stretch="normal"
    units-per-em="1000"
    panose-1="2 11 4 3 2 2 2 2 2 4"
    ascent="714"
    descent="-286"
    x-height="514"
    cap-height="714"
    bbox="-169 -248 1041 949"
    underline-thickness="50"
    underline-position="-50"
    unicode-range="U+000D-U+FB04"
  />
<missing-glyph horiz-adv-x="512" 
d="M0 0v718h512v-718h-512zM50 50h412v617h-412v-617zM225 234l-2 17q0 56 13 81q15 28 46 59q31 29 40.5 46t9.5 37q0 36 -22.5 60.5t-53.5 24.5q-71 0 -82 -95l-50 8q7 69 43 103t92 34q54 0 89 -36t35 -95q0 -34 -13 -60t-50 -60q-37 -33 -43 -52q-6 -20 -6 -72h-46z
M222 117v67h56v-67h-56z" />
    <glyph glyph-name="IJ" unicode="IJ" horiz-adv-x="646" 
d="M63 0v714h44v-714h-44zM382 21q26 0 47 4t36.5 10t27.5 18t19.5 21t13 26.5t8 28.5t4 32t1.5 31.5v32.5v12v477h44v-492q0 -27 -0.5 -40.5t-4 -43t-10 -46.5t-21 -40.5t-34.5 -36.5t-52.5 -22.5t-73.5 -9.5q-55 0 -94.5 16t-60 38t-31.5 58.5t-13.5 64t-2.5 67.5h44
q-3 -44 1.5 -77.5t19.5 -64.5t48.5 -47.5t83.5 -16.5z" />
    <glyph glyph-name="ij" unicode="ij" horiz-adv-x="332" 
d="M103 611h-38v103h38v-103zM103 0h-38v514h38v-514zM267 611h-38v103h38v-103zM229 514h38v-569q0 -60 -22 -94.5t-83 -34.5h-16q-11 0 -16 1v33q14 -2 25 -2q41 0 57.5 21.5t16.5 78.5v566z" />
    <glyph glyph-name="napostrophe" unicode="&#x22;n" horiz-adv-x="598" 
d="M135 0v514h38v-110h2q20 57 71 89.5t113 32.5q43 0 76 -10.5t52 -30t31 -39t17 -47.5t6 -43.5t1 -37.5v-318h-38v325q0 168 -146 168q-86 0 -135.5 -59.5t-49.5 -155.5v-278h-38zM80 714v-103q0 -101 -64 -126v33q34 15 34 93h-21v103h51z" />
    <glyph glyph-name="f_f" unicode="ff" horiz-adv-x="448" 
d="M299 481h-169v-481h-38v481h-92v33h92v106q0 51 32 76.5t81 25.5q17 0 45 -5v-33q-28 5 -45 5q-75 0 -75 -72v-103h169v106q0 51 32 76.5t81 25.5q17 0 45 -5v-33q-28 5 -45 5q-75 0 -75 -72v-103h107v-33h-107v-481h-38v481z" />
    <glyph glyph-name="fi" unicode="fi" horiz-adv-x="389" 
d="M0 481v33h92v106q0 51 32 76.5t81 25.5q17 0 45 -5v-33q-28 5 -45 5q-75 0 -75 -72v-103h107v-33h-107v-481h-38v481h-92zM286 611v103h38v-103h-38zM286 0v514h38v-514h-38z" />
    <glyph glyph-name="fl" unicode="fl" horiz-adv-x="389" 
d="M0 481v33h92v106q0 51 32 76.5t81 25.5q17 0 45 -5v-33q-28 5 -45 5q-75 0 -75 -72v-103h107v-33h-107v-481h-38v481h-92zM286 0v714h38v-714h-38z" />
    <glyph glyph-name="f_f_i" unicode="ffi" horiz-adv-x="596" 
d="M299 481h-169v-481h-38v481h-92v33h92v106q0 51 32 76.5t81 25.5q17 0 45 -5v-33q-28 5 -45 5q-75 0 -75 -72v-103h169v106q0 51 32 76.5t81 25.5q17 0 45 -5v-33q-28 5 -45 5q-75 0 -75 -72v-103h107v-33h-107v-481h-38v481zM531 611h-38v103h38v-103zM531 0h-38v514h38
v-514z" />
    <glyph glyph-name="f_f_l" unicode="ffl" horiz-adv-x="596" 
d="M299 481h-169v-481h-38v481h-92v33h92v106q0 51 32 76.5t81 25.5q17 0 45 -5v-33q-28 5 -45 5q-75 0 -75 -72v-103h169v106q0 51 32 76.5t81 25.5q17 0 45 -5v-33q-28 5 -45 5q-75 0 -75 -72v-103h107v-33h-107v-481h-38v481zM493 714h38v-714h-38v714z" />
    <glyph glyph-name=".notdef" horiz-adv-x="512" 
d="M0 0v718h512v-718h-512zM50 50h412v617h-412v-617zM225 234l-2 17q0 56 13 81q15 28 46 59q31 29 40.5 46t9.5 37q0 36 -22.5 60.5t-53.5 24.5q-71 0 -82 -95l-50 8q7 69 43 103t92 34q54 0 89 -36t35 -95q0 -34 -13 -60t-50 -60q-37 -33 -43 -52q-6 -20 -6 -72h-46z
M222 117v67h56v-67h-56z" />
    <glyph glyph-name=".null" horiz-adv-x="500" 
 />
    <glyph glyph-name="nonmarkingreturn" horiz-adv-x="333" 
 />
    <glyph glyph-name="CR" unicode="&#xd;" horiz-adv-x="0" 
 />
    <glyph glyph-name="space" unicode=" " horiz-adv-x="278" 
 />
    <glyph glyph-name="exclam" unicode="!" horiz-adv-x="259" 
d="M118 183l-12 290v241h48v-241l-12 -290h-24zM104 0v103h51v-103h-51z" />
    <glyph glyph-name="quotedbl" unicode="&#x22;" horiz-adv-x="315" 
d="M197 485v229h38v-229h-38zM80 485v229h38v-229h-38z" />
    <glyph glyph-name="numbersign" unicode="#" horiz-adv-x="556" 
d="M115 0l32 231h-117v33h122l24 173h-118v33h123l31 220h33l-31 -220h169l31 220h33l-31 -220h110v-33h-115l-24 -173h111v-33h-116l-32 -231h-33l32 231h-169l-32 -231h-33zM185 264h169l24 173h-169z" />
    <glyph glyph-name="dollar" unicode="$" horiz-adv-x="556" 
d="M12 235h38q0 -96 53 -152t155 -62v333l-47 11q-37 8 -64.5 19t-55 30t-42.5 51t-15 76q0 19 2.5 37t15.5 46.5t35 49.5t66.5 38t104.5 19v49h32v-49q225 -5 232 -220h-38q-6 95 -55 138t-139 45v-310l78 -19q171 -41 171 -182q0 -102 -71.5 -149.5t-177.5 -50.5v-88h-32
v88q-118 10 -182 69.5t-64 182.5zM217 402l41 -9v300q-96 -4 -141 -44.5t-45 -107.5q0 -64 37 -93t108 -46zM290 21q93 0 152 40t59 122q0 57 -36 93t-114 56l-61 15v-326z" />
    <glyph glyph-name="percent" unicode="%" horiz-adv-x="778" 
d="M138 -24l465 738h40l-465 -738h-40zM206 346q-74 0 -120 51t-46 126q0 77 45.5 128t121.5 51q77 0 121 -50t44 -129q0 -74 -46 -125.5t-120 -51.5zM205 379q58 0 93.5 43t35.5 101q0 61 -34 103.5t-94 42.5t-94 -42.5t-34 -103.5q0 -57 35.5 -100.5t91.5 -43.5zM406 165
q0 77 45.5 128t121.5 51q77 0 121 -50t44 -129q0 -74 -46 -125.5t-120 -51.5t-120 51t-46 126zM444 165q0 -57 35.5 -100.5t91.5 -43.5q58 0 93.5 43t35.5 101q0 61 -34 103.5t-94 42.5t-94 -42.5t-34 -103.5z" />
    <glyph glyph-name="ampersand" unicode="&#x26;" horiz-adv-x="593" 
d="M43 170q0 22 5.5 42t11.5 35t21 32l23.5 27t30 25.5l30 21.5t33.5 21.5t31 19.5q-3 4 -21.5 26.5l-24 29.5t-19 27.5t-18 33t-9.5 31.5t-5 37q0 53 45.5 88t104.5 35q62 0 106 -33t44 -90q0 -21 -4 -39.5t-14 -35t-18 -28t-25.5 -26.5t-26.5 -22l-31 -23l-29 -21
l170 -209q24 59 24 119h38q-4 -77 -36 -151l116 -143h-51l-87 106q-34 -56 -86.5 -87t-116.5 -31q-93 0 -152.5 47.5t-59.5 134.5zM262 412q39 25 62 42.5t46.5 52t23.5 72.5t-34.5 64t-77.5 26t-77.5 -26t-34.5 -64q0 -31 14 -59t43 -63t35 -45zM81 170q0 -67 52.5 -108
t121.5 -41q34 0 64.5 11.5t50.5 28t35 33.5t21.5 29t6.5 14l-184 229q-4 -3 -27.5 -17.5l-30.5 -19t-27 -19t-27.5 -22.5l-21 -23.5t-19 -28.5t-10.5 -30.5t-5 -35.5z" />
    <glyph glyph-name="quotesingle" unicode="'" horiz-adv-x="204" 
d="M83 485v229h38v-229h-38z" />
    <glyph glyph-name="parenleft" unicode="(" horiz-adv-x="241" 
d="M194 -184q-129 212 -129 450q0 244 131 465h35q-128 -215 -128 -465q0 -246 125 -450h-34z" />
    <glyph glyph-name="parenright" unicode=")" horiz-adv-x="241" 
d="M10 -184q128 215 128 465q0 246 -125 450h34q129 -212 129 -450q0 -244 -131 -465h-35z" />
    <glyph glyph-name="asterisk" unicode="*" horiz-adv-x="352" 
d="M96 434l-24 20l81 102l-124 41l9 28l123 -41v130h29v-130l122 41l10 -28l-123 -41l76 -102l-22 -20l-77 106z" />
    <glyph glyph-name="plus" unicode="+" horiz-adv-x="600" 
d="M48 233v38h233v233h38v-233h233v-38h-233v-233h-38v233h-233z" />
    <glyph glyph-name="comma" unicode="," horiz-adv-x="278" 
d="M113 0v103h51v-103q0 -101 -64 -126v33q34 15 34 93h-21z" />
    <glyph glyph-name="hyphen" unicode="-" horiz-adv-x="352" 
d="M69 253v38h214v-38h-214z" />
    <glyph glyph-name="period" unicode="." horiz-adv-x="278" 
d="M113 0v103h51v-103h-51z" />
    <glyph glyph-name="slash" unicode="/" horiz-adv-x="333" 
d="M-13 -17l318 748h41l-318 -748h-41z" />
    <glyph glyph-name="zero" unicode="0" horiz-adv-x="556" 
d="M278 -12q-57 0 -102 21.5t-72 56t-45 82.5t-24.5 96t-6.5 101t6.5 101t24.5 96t45 82.5t72 56t102 21.5t102 -21.5t72 -56t45 -82.5t24.5 -96t6.5 -101t-6.5 -101t-24.5 -96t-45 -82.5t-72 -56t-102 -21.5zM278 21q61 0 105 30t66 81t31.5 103t9.5 110t-9.5 110
t-31.5 103t-66 81t-105 30t-105 -30t-66 -81t-31.5 -103t-9.5 -110t9.5 -110t31.5 -103t66 -81t105 -30z" />
    <glyph glyph-name="one" unicode="1" horiz-adv-x="556" 
d="M293 0v616q-72 -77 -185 -88v33q125 19 189 129h34v-690h-38z" />
    <glyph glyph-name="two" unicode="2" horiz-adv-x="556" 
d="M46 0q3 46 20.5 85t52 73t62.5 55.5t76 53.5q45 30 61 41.5t50.5 40t48.5 48.5t27 51.5t13 65.5q0 68 -50 111.5t-120 43.5q-90 0 -138 -59t-48 -153h-38q12 245 218 245q93 0 153.5 -48.5t60.5 -140.5q0 -57 -28.5 -107t-72 -85t-94.5 -71l-95 -65.5t-75.5 -68
t-35.5 -78.5h412v-38h-460z" />
    <glyph glyph-name="three" unicode="3" horiz-adv-x="556" 
d="M36 228h38q-4 -96 50.5 -151.5t150.5 -55.5q81 0 139.5 45.5t58.5 124.5q0 91 -67 128.5t-165 30.5v33q56 -3 102 8t80 46t34 91q0 68 -55.5 104.5t-126.5 36.5q-87 0 -133.5 -53.5t-50.5 -143.5h-38q0 103 60.5 166.5t161.5 63.5q92 0 156 -44t64 -130q0 -62 -37 -106
t-98 -52v-2q69 -8 110 -57t41 -120q0 -98 -67 -150.5t-169 -52.5q-115 0 -180 63t-59 177z" />
    <glyph glyph-name="four" unicode="4" horiz-adv-x="556" 
d="M29 176v38l336 476h38v-481h116v-33h-116v-176h-38v176h-336zM67 209h298v429h-2z" />
    <glyph glyph-name="five" unicode="5" horiz-adv-x="556" 
d="M37 211h38q-2 -84 56 -137t143 -53q86 0 141 60t55 147q0 85 -56 143.5t-140 58.5q-110 0 -177 -97h-39l72 357h349v-33h-319l-59 -275l2 -2q59 83 171 83q102 0 168 -66t66 -169q0 -104 -65.5 -172t-168.5 -68t-173 61t-64 162z" />
    <glyph glyph-name="six" unicode="6" horiz-adv-x="556" 
d="M288 -12q-56 0 -99 17.5t-70.5 47.5t-45 72t-24.5 87.5t-7 98.5q0 56 5.5 106t22.5 104t44 92.5t74 63.5t108 25q88 0 144.5 -47.5t66.5 -134.5h-38q-12 67 -59 108t-114 41q-46 0 -82 -16.5t-58.5 -46.5t-38.5 -65t-23.5 -78t-10.5 -78.5t-3 -74.5l2 -2q22 66 79.5 107
t126.5 41q101 0 166 -67t65 -169q0 -100 -65.5 -166t-165.5 -66zM93 220q0 -85 56.5 -142t138.5 -57t137.5 58.5t55.5 140.5q0 83 -55.5 143t-137.5 60q-84 0 -139.5 -59t-55.5 -144z" />
    <glyph glyph-name="seven" unicode="7" horiz-adv-x="556" 
d="M160 0q9 113 32 203.5t90.5 211.5t180.5 242h-407v33h445v-38q-50 -56 -82 -95.5t-72 -102t-65 -123.5t-47 -146.5t-31 -184.5h-44z" />
    <glyph glyph-name="eight" unicode="8" horiz-adv-x="556" 
d="M39 198q0 74 41 122t112 56v2q-62 12 -94.5 52t-32.5 99q0 90 61 131.5t152 41.5t152 -41.5t61 -131.5q0 -59 -32.5 -99t-94.5 -52v-2q71 -8 112 -56t41 -122q0 -103 -67 -156.5t-172 -53.5t-172 53.5t-67 156.5zM278 392q74 0 124.5 34t50.5 103q0 73 -49.5 106.5
t-125.5 33.5t-125.5 -33.5t-49.5 -106.5q0 -69 50.5 -103t124.5 -34zM77 198q0 -87 57 -132t144 -45q86 0 143.5 45t57.5 132q0 81 -56.5 121t-144.5 40t-144.5 -40t-56.5 -121z" />
    <glyph glyph-name="nine" unicode="9" horiz-adv-x="556" 
d="M55 170h38q12 -67 58 -108t115 -41q54 0 95 25t63 62t36 87.5t18 91.5t4 85l-2 2q-24 -62 -74.5 -101t-126.5 -39q-104 0 -168.5 66t-64.5 170q0 102 65.5 167t167.5 65q241 0 241 -323q0 -56 -5.5 -106t-22.5 -104t-44 -92.5t-74 -63.5t-108 -25q-88 0 -144.5 47.5
t-66.5 134.5zM279 267q84 0 139.5 59t55.5 144q0 83 -56 141t-139 58q-82 0 -138.5 -58.5t-56.5 -140.5q0 -83 56.5 -143t138.5 -60z" />
    <glyph glyph-name="colon" unicode=":" horiz-adv-x="278" 
d="M113 411v103h51v-103h-51zM113 0v103h51v-103h-51z" />
    <glyph glyph-name="semicolon" unicode=";" horiz-adv-x="278" 
d="M113 411v103h51v-103h-51zM113 0v103h51v-103q0 -101 -64 -126v33q34 15 34 93h-21z" />
    <glyph glyph-name="less" unicode="&#x3c;" horiz-adv-x="600" 
d="M46 228v52l508 234v-42l-475 -218l475 -220v-42z" />
    <glyph glyph-name="equal" unicode="=" horiz-adv-x="600" 
d="M48 331v38h504v-38h-504zM48 137v38h504v-38h-504z" />
    <glyph glyph-name="greater" unicode="&#x3e;" horiz-adv-x="600" 
d="M46 -8v42l475 218l-475 220v42l508 -236v-52z" />
    <glyph glyph-name="question" unicode="?" 
d="M236 181q0 73 22.5 118.5t65.5 86.5q31 29 49 49t34 52t16 65q0 70 -46.5 105.5t-114.5 35.5q-87 0 -134 -55t-47 -145h-38q0 109 58 173.5t164 64.5q85 0 140.5 -46t55.5 -133q0 -40 -14.5 -73.5t-29.5 -51t-45 -45.5q-25 -22 -35.5 -33t-29 -36.5t-26 -57.5t-7.5 -74
h-38zM231 0v103h51v-103h-51z" />
    <glyph glyph-name="at" unicode="@" horiz-adv-x="800" 
d="M195 282q0 110 68.5 204t167.5 94q46 0 76 -26.5t36 -64.5h2l23 71h41l-96 -296q-16 -48 -16 -60q0 -15 11.5 -24.5t27.5 -9.5q67 0 123.5 83t56.5 170q0 120 -91 197.5t-208 77.5q-137 0 -235 -102t-98 -243q0 -143 102.5 -240t232.5 -97q82 0 155.5 41t119.5 111h44
q-45 -85 -133 -135t-186 -50q-158 0 -265.5 109.5t-107.5 267.5q0 153 109 262t260 109q143 0 241 -88.5t98 -222.5q0 -110 -74 -199t-155 -89q-28 0 -46.5 18.5t-19.5 52.5h-2q-48 -71 -134 -71q-56 0 -92 44t-36 106zM233 287q0 -55 29 -88.5t74 -33.5q28 0 59.5 22
t56.5 57q28 41 46.5 93t18.5 92q0 18 -3 34.5t-11.5 37.5t-28.5 33.5t-49 12.5q-53 0 -99 -44t-69.5 -103t-23.5 -113z" />
    <glyph glyph-name="A" unicode="A" horiz-adv-x="593" 
d="M-12 0l287 714h48l282 -714h-47l-90 229h-342l-91 -229h-47zM140 267h314l-153 404h-2z" />
    <glyph glyph-name="B" unicode="B" horiz-adv-x="630" 
d="M63 0v714h286q118 0 171.5 -53t53.5 -132q0 -58 -38.5 -101t-100.5 -51l2 -2q7 1 24 -3t41 -16t45 -31t36 -51.5t15 -73.5q0 -96 -67.5 -148t-181.5 -52h-286zM107 390h242q88 0 134.5 39.5t46.5 107.5q0 73 -51 106t-130 33h-242v-286zM107 38h242q97 0 151 41.5
t54 120.5q0 44 -18.5 75.5t-50 47t-65 22.5t-71.5 7h-242v-314z" />
    <glyph glyph-name="C" unicode="C" horiz-adv-x="704" 
d="M36 357q0 162 92 268t248 106q71 0 126.5 -23.5t84 -54.5t47.5 -67t24 -57t5 -28h-44q-14 88 -82.5 140t-160.5 52q-136 0 -216 -96.5t-80 -239.5t80 -239.5t216 -96.5q102 0 175.5 77t79.5 180h44q-12 -128 -96.5 -211.5t-202.5 -83.5q-156 0 -248 106t-92 268z" />
    <glyph glyph-name="D" unicode="D" horiz-adv-x="667" 
d="M63 0v714h234q74 0 132 -20t95 -53t60.5 -80t33 -96.5t9.5 -106.5q0 -161 -83.5 -259.5t-248.5 -98.5h-232zM107 38h192q42 0 80.5 9.5t76.5 32.5t65.5 58.5t44.5 92t17 127.5q0 83 -21 144.5t-51 94t-73 51.5t-76 23.5t-72 4.5h-183v-638z" />
    <glyph glyph-name="E" unicode="E" horiz-adv-x="560" 
d="M63 0v714h480v-38h-436v-286h410v-38h-410v-314h441v-38h-485z" />
    <glyph glyph-name="F" unicode="F" horiz-adv-x="514" 
d="M63 0v714h448v-38h-404v-286h364v-38h-364v-352h-44z" />
    <glyph glyph-name="G" unicode="G" horiz-adv-x="741" 
d="M37 353q0 159 91 268.5t246 109.5q113 0 196 -64.5t101 -173.5h-42q-25 94 -91 147t-163 53q-138 0 -216 -99t-78 -241q0 -143 76.5 -237.5t217.5 -94.5q128 0 202 80t68 211h-263v38h301v-350h-38v152h-2q-26 -77 -100.5 -123t-169.5 -46q-157 0 -246.5 105t-89.5 265z
" />
    <glyph glyph-name="H" unicode="H" horiz-adv-x="670" 
d="M63 0v714h44v-324h456v324h44v-714h-44v352h-456v-352h-44z" />
    <glyph glyph-name="I" unicode="I" horiz-adv-x="170" 
d="M63 0v714h44v-714h-44z" />
    <glyph glyph-name="J" unicode="J" horiz-adv-x="481" 
d="M217 21q26 0 47 4t36.5 10t27.5 18t19.5 21t13 26.5t8 28.5t4 32t1.5 31.5v32.5v12v477h44v-492q0 -27 -0.5 -40.5t-4 -43t-10 -46.5t-21 -40.5t-34.5 -36.5t-52.5 -22.5t-73.5 -9.5q-55 0 -94.5 16t-60 38t-31.5 58.5t-13.5 64t-2.5 67.5h44q-3 -44 1.5 -77.5
t19.5 -64.5t48.5 -47.5t83.5 -16.5z" />
    <glyph glyph-name="K" unicode="K" horiz-adv-x="613" 
d="M63 0v714h44v-411l449 411h57l-326 -297l346 -417h-55l-323 387l-148 -135v-252h-44z" />
    <glyph glyph-name="L" unicode="L" horiz-adv-x="500" 
d="M63 0v714h44v-676h405v-38h-449z" />
    <glyph glyph-name="M" unicode="M" horiz-adv-x="809" 
d="M63 0v714h63l279 -665h2l276 665h63v-714h-44v660h-2l-272 -660h-44l-275 660h-2v-660h-44z" />
    <glyph glyph-name="N" unicode="N" horiz-adv-x="678" 
d="M63 0v714h55l451 -655h2v655h44v-714h-52l-454 660h-2v-660h-44z" />
    <glyph glyph-name="O" unicode="O" horiz-adv-x="741" 
d="M710 357q0 -161 -91.5 -267.5t-247.5 -106.5t-248 106t-92 268t92 268t248 106t247.5 -106.5t91.5 -267.5zM75 357q0 -143 80 -239.5t216 -96.5q135 0 215 96.5t80 239.5t-80 239.5t-215 96.5q-136 0 -216 -96.5t-80 -239.5z" />
    <glyph glyph-name="P" unicode="P" horiz-adv-x="591" 
d="M63 0v714h304q28 0 53 -4t54.5 -17t51 -34t35.5 -58.5t14 -86.5q0 -94 -58.5 -145t-165.5 -51h-244v-318h-44zM107 676v-320h251q89 0 131 47.5t42 111.5q0 24 -6.5 48t-23 51.5t-52 44.5t-85.5 17h-257z" />
    <glyph glyph-name="Q" unicode="Q" horiz-adv-x="741" 
d="M691 -37l-118 85q-83 -65 -202 -65q-156 0 -248 106t-92 268t92 268t248 106t247.5 -106.5t91.5 -267.5q0 -179 -107 -283l111 -80zM453 182l115 -83q98 96 98 258q0 143 -80 239.5t-215 96.5q-136 0 -216 -96.5t-80 -239.5t80 -239.5t216 -96.5q99 0 167 53l-108 77z
" />
    <glyph glyph-name="R" unicode="R" horiz-adv-x="630" 
d="M63 0v714h298q103 0 164.5 -43.5t61.5 -140.5q0 -73 -40.5 -122t-112.5 -61v-2q47 -6 77 -25t43.5 -51.5t17.5 -61.5t4 -71q0 -39 0.5 -56t5.5 -42t15 -38h-49q-12 22 -15.5 58t-1.5 70.5t-3 71t-18.5 63.5t-51 44.5t-97.5 17.5h-254v-325h-44zM107 363h254
q83 0 132.5 40.5t49.5 123.5q0 76 -51.5 112.5t-130.5 36.5h-254v-313z" />
    <glyph glyph-name="S" unicode="S" horiz-adv-x="630" 
d="M573 510h-44q-4 89 -65.5 136t-163.5 47q-33 0 -65 -7.5t-62.5 -24t-49.5 -47.5t-19 -73q0 -32 13 -56.5t34.5 -40t52 -27t62 -19t69.5 -14.5q8 -1 12 -2q43 -9 73 -16.5t65 -23t56 -35t35.5 -51.5t14.5 -72q0 -53 -23.5 -93.5t-61.5 -63t-80 -33.5t-86 -11
q-136 0 -219.5 61.5t-81.5 191.5h44q-4 -75 32 -124.5t93 -70t132 -20.5q35 0 69 8.5t66 26t52 51t20 77.5q0 25 -8 46t-18.5 35.5t-32 27.5t-37.5 20t-47 15.5t-48 12l-53 10.5q-44 9 -72.5 16t-64.5 22t-56.5 33.5t-35 49t-14.5 69.5q0 95 72 142.5t168 47.5
q119 0 193 -54.5t80 -166.5z" />
    <glyph glyph-name="T" unicode="T" 
d="M237 676h-251v38h547v-38h-252v-676h-44v676z" />
    <glyph glyph-name="U" unicode="U" horiz-adv-x="672" 
d="M63 714h44v-428q0 -32 3 -61t16.5 -68.5t36 -67.5t66 -48t102.5 -20q126 0 180 68t54 197v428h44v-428q0 -303 -278 -303q-268 0 -268 303v428z" />
    <glyph glyph-name="V" unicode="V" horiz-adv-x="556" 
d="M32 714l245 -676h2l247 676h44l-267 -714h-51l-266 714h46z" />
    <glyph glyph-name="W" unicode="W" horiz-adv-x="889" 
d="M200 0l-206 714h45l186 -667h2l189 667h55l192 -667h2l183 667h47l-205 -714h-50l-196 676h-2l-193 -676h-49z" />
    <glyph glyph-name="X" unicode="X" horiz-adv-x="556" 
d="M251 367l-250 347h51l226 -314l231 314h50l-252 -347l266 -367h-53l-242 334l-243 -334h-52z" />
    <glyph glyph-name="Y" unicode="Y" horiz-adv-x="574" 
d="M287 336l259 378h49l-287 -415v-299h-44v299l-285 415h50z" />
    <glyph glyph-name="Z" unicode="Z" horiz-adv-x="537" 
d="M28 676v38h501v-38l-484 -638h493v-38h-539v38l482 638h-453z" />
    <glyph glyph-name="bracketleft" unicode="[" horiz-adv-x="241" 
d="M231 698h-99v-849h99v-33h-137v915h137v-33z" />
    <glyph glyph-name="backslash" unicode="\" horiz-adv-x="333" 
d="M346 -17h-41l-318 748h41z" />
    <glyph glyph-name="bracketright" unicode="]" horiz-adv-x="241" 
d="M10 -151h99v849h-99v33h137v-915h-137v33z" />
    <glyph glyph-name="asciicircum" unicode="^" horiz-adv-x="600" 
d="M561 237h-42l-218 420l-220 -420h-42l236 453h52z" />
    <glyph glyph-name="underscore" unicode="_" horiz-adv-x="500" 
d="M500 -125h-500v50h500v-50z" />
    <glyph glyph-name="grave" unicode="`" horiz-adv-x="167" 
d="M141 590h-37l-134 140h51z" />
    <glyph glyph-name="a" unicode="a" horiz-adv-x="500" 
d="M397 75v27h-2q-19 -49 -69.5 -81.5t-121.5 -32.5q-172 0 -172 145q0 136 189 152l59 5q79 6 98.5 25.5t19.5 76.5q0 45 -35 73t-108 28q-70 0 -112 -35t-46 -102h-38q8 170 198 170q90 0 134 -35t44 -97v-299q0 -16 0.5 -23t3.5 -18t10.5 -16t19.5 -5q10 0 28 3v-32
q-15 -4 -31 -4q-41 0 -55 19t-14 56zM397 196v96q-21 -25 -106 -32l-64 -6q-33 -3 -57 -8.5t-49 -18t-38 -36.5t-13 -58q0 -55 35.5 -83.5t99.5 -28.5q49 0 86 16t56.5 37.5t31.5 48.5t15 44t3 29z" />
    <glyph glyph-name="b" unicode="b" horiz-adv-x="556" 
d="M65 0v714h38v-309h2q21 58 75 89.5t120 31.5q109 0 166 -72t57 -185q0 -70 -17 -123t-41 -82t-56.5 -47t-58 -23.5t-50.5 -5.5q-47 0 -85.5 15.5t-60.5 38.5t-33.5 41t-15.5 32h-2v-115h-38zM300 21q64 0 107.5 38.5t60.5 92t17 117.5q0 92 -49 158t-136 66
q-96 0 -146 -61.5t-50 -162.5q0 -104 49 -176t147 -72z" />
    <glyph glyph-name="c" unicode="c" 
d="M481 355h-38q-6 66 -54 102t-120 36q-91 0 -144.5 -68.5t-53.5 -162.5q0 -109 51 -175t147 -66q71 0 120 44.5t59 115.5h38q-12 -90 -72 -141.5t-145 -51.5q-118 0 -177 78t-59 196q0 113 63 188.5t173 75.5q87 0 145.5 -43.5t66.5 -127.5z" />
    <glyph glyph-name="d" unicode="d" horiz-adv-x="556" 
d="M453 0v110h-2q-65 -122 -197 -122q-110 0 -166 76.5t-56 191.5q0 120 58.5 195t170.5 75q65 0 117.5 -34t72.5 -93h2v315h38v-714h-38zM262 21q92 0 141 69t49 166q0 98 -49 167.5t-142 69.5q-96 0 -143.5 -67.5t-47.5 -169.5q0 -98 49.5 -166.5t142.5 -68.5z" />
    <glyph glyph-name="e" unicode="e" 
d="M486 252h-415v-6q0 -96 49.5 -160.5t139.5 -64.5q149 0 184 153h38q-17 -90 -74 -138t-149 -48q-109 0 -168 74t-59 191q0 116 60.5 194.5t172.5 78.5q104 0 163 -72t59 -180q0 -4 -0.5 -12t-0.5 -10zM72 285h376q-3 89 -51.5 148.5t-131.5 59.5q-87 0 -136.5 -60
t-56.5 -148z" />
    <glyph glyph-name="f" unicode="f" horiz-adv-x="241" 
d="M92 481h-92v33h92v106q0 51 32 76.5t81 25.5q17 0 45 -5v-33q-28 5 -45 5q-75 0 -75 -72v-103h107v-33h-107v-481h-38v481z" />
    <glyph glyph-name="g" unicode="g" horiz-adv-x="537" 
d="M443 514h38v-487q0 -223 -221 -223q-195 0 -202 160h38q6 -65 51 -96t113 -31q51 0 88 15.5t57 42.5t29 57.5t9 65.5v118h-2q-55 -117 -186 -117q-109 0 -165.5 70.5t-56.5 183.5q0 107 59 180t163 73q62 0 113.5 -31.5t72.5 -87.5h2v107zM255 493q-88 0 -136 -65.5
t-48 -154.5q0 -95 48.5 -158t135.5 -63q89 0 138 64t49 157t-49 156.5t-138 63.5z" />
    <glyph glyph-name="h" unicode="h" 
d="M56 714h38v-310h2q20 57 71 89.5t113 32.5q43 0 76 -10.5t52 -30t31 -39t17 -47.5t6 -43.5t1 -37.5v-318h-38v325q0 168 -146 168q-86 0 -135.5 -59.5t-49.5 -155.5v-278h-38v714z" />
    <glyph glyph-name="i" unicode="i" horiz-adv-x="168" 
d="M103 611h-38v103h38v-103zM103 0h-38v514h38v-514z" />
    <glyph glyph-name="j" unicode="j" horiz-adv-x="168" 
d="M103 611h-38v103h38v-103zM65 514h38v-569q0 -60 -22 -94.5t-83 -34.5h-16q-11 0 -16 1v33q14 -2 25 -2q41 0 57.5 21.5t16.5 78.5v566z" />
    <glyph glyph-name="k" unicode="k" horiz-adv-x="463" 
d="M58 0v714h38v-473l317 273h55l-225 -192l241 -322h-52l-219 293l-117 -99v-194h-38z" />
    <glyph glyph-name="l" unicode="l" horiz-adv-x="168" 
d="M65 714h38v-714h-38v714z" />
    <glyph glyph-name="m" unicode="m" horiz-adv-x="796" 
d="M57 0v514h38v-105h2q12 49 58 83t103 34q68 0 107 -32t48 -77h2q24 55 63 82t100 27q73 0 117 -44t44 -131v-351h-38v352q0 46 -14.5 77t-37 43.5t-39 16.5t-32.5 4q-72 0 -116.5 -49.5t-44.5 -139.5v-304h-38v352q0 37 -10 64t-23.5 41.5t-31.5 23t-31 10.5t-25 2
q-63 0 -113 -49t-50 -140v-304h-38z" />
    <glyph glyph-name="n" unicode="n" 
d="M56 0v514h38v-110h2q20 57 71 89.5t113 32.5q43 0 76 -10.5t52 -30t31 -39t17 -47.5t6 -43.5t1 -37.5v-318h-38v325q0 168 -146 168q-86 0 -135.5 -59.5t-49.5 -155.5v-278h-38z" />
    <glyph glyph-name="o" unicode="o" horiz-adv-x="537" 
d="M32 257q0 115 63 192t173 77t173 -77t63 -192t-63 -192t-173 -77t-173 77t-63 192zM70 257q0 -98 53 -167t145 -69t145 69t53 167t-53 167t-145 69t-145 -69t-53 -167z" />
    <glyph glyph-name="p" unicode="p" horiz-adv-x="556" 
d="M103 514v-118h2q15 49 63 89.5t124 40.5q112 0 171.5 -77.5t59.5 -192.5q0 -122 -58.5 -195t-172.5 -73q-143 0 -187 119h-2v-291h-38v698h38zM292 21q95 0 144 66.5t49 168.5q0 98 -48.5 167.5t-144.5 69.5t-142 -68t-46 -169q0 -49 9.5 -89t30 -74t58.5 -53t90 -19z
" />
    <glyph glyph-name="q" unicode="q" horiz-adv-x="556" 
d="M453 -184v299h-2q-20 -59 -72.5 -93t-117.5 -34q-112 0 -170.5 75t-58.5 195q0 115 56 191.5t166 76.5q132 0 197 -122h2v110h38v-698h-38zM261 21q93 0 142 69.5t49 167.5q0 97 -49 166t-141 69q-93 0 -142.5 -68.5t-49.5 -166.5q0 -102 47.5 -169.5t143.5 -67.5z" />
    <glyph glyph-name="r" unicode="r" horiz-adv-x="278" 
d="M94 514v-114h3q14 51 71 85t126 32v-38q-79 10 -142 -50q-30 -32 -43 -62.5t-15 -85.5v-281h-38v514h38z" />
    <glyph glyph-name="s" unicode="s" horiz-adv-x="481" 
d="M36 171h38q4 -70 51.5 -110t118.5 -40q28 0 54 5t52 16t41.5 33.5t15.5 54.5q0 48 -36.5 73.5t-88.5 35t-103.5 21t-88 44t-36.5 90.5q0 69 55 100.5t131 31.5q86 0 138 -40t52 -124h-38q0 66 -41.5 98.5t-110.5 32.5q-60 0 -104 -24.5t-44 -74.5q0 -14 2.5 -25t10 -20.5
l13 -16.5t19 -13t21 -10t25 -9t25 -6.5t28 -6.5t27.5 -6q91 -17 136.5 -47.5t45.5 -103.5q0 -40 -18.5 -69t-49 -44t-63.5 -22t-70 -7q-91 0 -148.5 48t-59.5 135z" />
    <glyph glyph-name="t" unicode="t" horiz-adv-x="259" 
d="M245 514v-33h-112v-359q0 -58 25.5 -74.5t85.5 -14.5v-33q-33 -2 -57 1t-47.5 14.5t-35 38t-9.5 68.5v359h-95v33h95v160h38v-160h112z" />
    <glyph glyph-name="u" unicode="u" 
d="M463 514v-514h-38v110h-2q-20 -57 -71 -89.5t-113 -32.5q-43 0 -76 10.5t-52 30t-31 39t-17 47.5t-6 43.5t-1 37.5v318h38v-325q0 -168 146 -168q86 0 135.5 59.5t49.5 155.5v278h38z" />
    <glyph glyph-name="v" unicode="v" horiz-adv-x="444" 
d="M446 514l-194 -514h-47l-207 514h44l186 -470h2l174 470h42z" />
    <glyph glyph-name="w" unicode="w" horiz-adv-x="704" 
d="M39 514l145 -470h2l140 470h51l141 -470h2l144 470h42l-165 -514h-47l-141 466h-2l-142 -466h-48l-163 514h41z" />
    <glyph glyph-name="x" unicode="x" horiz-adv-x="444" 
d="M-6 0l202 270l-188 244h53l161 -215l162 215h49l-186 -244l203 -270h-52l-176 241l-180 -241h-48z" />
    <glyph glyph-name="y" unicode="y" horiz-adv-x="444" 
d="M209 3l-215 511h45l191 -469l176 469h43l-220 -569q-36 -89 -60 -106q-19 -15 -44.5 -19t-75.5 -4v33q42 0 64.5 6.5t42.5 26.5q16 16 53 121z" />
    <glyph glyph-name="z" unicode="z" horiz-adv-x="426" 
d="M55 33h362v-33h-408v36l345 445h-318v33h365v-36z" />
    <glyph glyph-name="braceleft" unicode="{" horiz-adv-x="333" 
d="M293 731v-33h-48q-30 0 -41 -22.5t-11 -80.5v-157q0 -22 -2 -40.5t-5.5 -33t-7.5 -26t-10 -20.5t-10.5 -15t-11 -11t-9.5 -7.5t-9 -5.5l-5 -3q1 -1 12 -9t19 -17.5t18 -27t15.5 -46.5t5.5 -67v-157q0 -58 11 -80.5t41 -22.5h48v-33h-50q-44 0 -66 26.5t-22 91.5v158
q0 158 -72 162v38q72 4 72 162v159q0 65 22 91.5t66 26.5h50z" />
    <glyph glyph-name="bar" unicode="|" horiz-adv-x="222" 
d="M92 -214v1000h38v-1000h-38z" />
    <glyph glyph-name="braceright" unicode="}" horiz-adv-x="333" 
d="M40 -184v33h48q30 0 41 22.5t11 80.5v157q0 38 5.5 67t15.5 46.5t18 27t19 17.5t12 9l-6 3q-5 3 -8 5.5t-9.5 7.5t-11 11t-10.5 15t-10 20.5t-7.5 26t-5.5 33t-2 40.5v157q0 58 -11 80.5t-41 22.5h-48v33h50q44 0 66 -26.5t22 -91.5v-159q0 -158 72 -162v-38
q-72 -4 -72 -162v-158q0 -65 -22 -91.5t-66 -26.5h-50z" />
    <glyph glyph-name="asciitilde" unicode="~" horiz-adv-x="600" 
d="M500 312l28 -28q-17 -25 -30.5 -41t-38 -30t-52.5 -14q-40 0 -114 38q-63 30 -92 30q-69 0 -99 -75l-29 30q26 43 52.5 63t69.5 20q39 0 111 -32l21 -11t25 -12.5t25.5 -8.5t30.5 -4q26 0 52 23.5t40 51.5z" />
    <glyph glyph-name="uni00A0" unicode="&#xa0;" horiz-adv-x="278" 
 />
    <glyph glyph-name="exclamdown" unicode="&#xa1;" horiz-adv-x="259" 
d="M104 535h51v-103h-51v103zM153 -184h-48v241l12 290h24l12 -290v-241z" />
    <glyph glyph-name="cent" unicode="&#xa2;" horiz-adv-x="556" 
d="M272 -118v106q-110 6 -165.5 83t-55.5 191q0 108 59 183t162 81v89h32v-89q82 -4 134.5 -47.5t60.5 -123.5h-38q-5 62 -47.5 97.5t-109.5 40.5v-472q65 6 108.5 49.5t53.5 110.5h38q-12 -86 -66 -136.5t-134 -56.5v-106h-32zM272 21v472q-85 -6 -134 -73.5t-49 -157.5
q0 -104 47 -169.5t136 -71.5z" />
    <glyph glyph-name="sterling" unicode="&#xa3;" horiz-adv-x="556" 
d="M50 330v33h60q-60 106 -60 176q0 90 66 141t161 51q118 0 178 -62t57 -185h-38q-1 104 -48 156.5t-148 52.5q-88 0 -139 -40.5t-51 -111.5q0 -25 7.5 -52t15 -43.5t22.5 -44t20 -38.5h160v-33h-141q23 -35 23 -108q0 -54 -28.5 -105t-70.5 -86l2 -2q52 36 94 36
q45 0 104 -23q59 -21 91 -21q40 0 70 17.5t65 50.5l22 -33q-69 -73 -151 -73q-42 0 -108 22q-64 22 -96 22q-24 0 -46.5 -7t-33.5 -13t-40 -24l-25 34q113 107 113 207q0 60 -29 106h-78z" />
    <glyph glyph-name="currency" unicode="&#xa4;" horiz-adv-x="556" 
d="M519 131l-27 -27l-53 54q-70 -61 -162 -61q-90 0 -160 61l-55 -56l-27 27l56 55q-59 70 -61 161q0 91 61 161l-57 56l27 27l56 -56q70 58 160 60q92 0 162 -61l54 55l27 -27l-55 -54q61 -70 61 -161q0 -93 -61 -160zM278 135q82 0 143 62t61 148t-61 148t-143 62
t-143 -62t-61 -148t61 -148t143 -62z" />
    <glyph glyph-name="yen" unicode="&#xa5;" horiz-adv-x="556" 
d="M-7 714h48l238 -374l239 374h45l-238 -372h92v-33h-120v-78h120v-33h-120v-198h-38v198h-120v33h120v78h-120v33h92z" />
    <glyph glyph-name="brokenbar" unicode="&#xa6;" horiz-adv-x="222" 
d="M92 411v250h38v-250h-38zM92 -89v250h38v-250h-38z" />
    <glyph glyph-name="section" unicode="&#xa7;" horiz-adv-x="556" 
d="M449 536h-38q2 64 -35 113t-101 49q-46 2 -87 -28.5t-41 -76.5q0 -50 36.5 -88.5t88.5 -64.5l104 -53.5t89 -71.5t38 -102q0 -107 -111 -136q31 -29 44 -55.5t13 -67.5q0 -71 -47 -104.5t-121 -33.5q-85 0 -133.5 53.5t-48.5 139.5h38q2 -71 38.5 -115.5t104.5 -44.5
q131 0 131 105q0 30 -13.5 55.5t-38 45.5t-52.5 37t-62 35q-9 5 -14 7l-59 35t-47.5 33t-42 39t-22 42.5t-8.5 53.5q0 46 32 81.5t79 52.5q-31 22 -45 61t-9 61q0 61 50.5 100.5t115.5 37.5q85 0 129 -51.5t45 -143.5zM339 359l-152 90q-40 -15 -68.5 -44t-28.5 -68
q0 -32 19 -60t37.5 -41.5t51.5 -33.5l165 -101q17 -5 67 34q35 33 35 78q0 46 -35.5 80.5t-90.5 65.5z" />
    <glyph glyph-name="dieresis" unicode="&#xa8;" horiz-adv-x="167" 
d="M184 603h-44v103h44v-103zM26 603h-44v103h44v-103z" />
    <glyph glyph-name="copyright" unicode="&#xa9;" horiz-adv-x="800" 
d="M400 731q155 0 264.5 -109.5t109.5 -264.5t-109.5 -264.5t-264.5 -109.5t-264.5 109.5t-109.5 264.5t109.5 264.5t264.5 109.5zM401 698q-144 0 -240.5 -98t-96.5 -242q0 -143 97 -242.5t240 -99.5q142 0 238.5 100t96.5 242q0 144 -96 242t-239 98zM599 438h-38
q-11 57 -52.5 89.5t-99.5 32.5q-86 0 -136 -56t-50 -145q0 -87 51.5 -146.5t136.5 -59.5q59 0 97 34.5t53 93.5h38q-10 -72 -62.5 -116.5t-125.5 -44.5q-101 0 -163.5 67.5t-62.5 170.5q0 104 60.5 169.5t162.5 65.5q75 0 128.5 -41t62.5 -114z" />
    <glyph glyph-name="ordfeminine" unicode="&#xaa;" horiz-adv-x="310" 
d="M61 596h-32q12 106 132 106q121 0 121 -85v-178q0 -14 0.5 -19t4.5 -11.5t13 -6.5h7q3 0 11 2v-27q-14 -2 -20 -2q-27 0 -36 11.5t-9 33.5v14h-2q-10 -29 -42.5 -48.5t-80.5 -19.5q-55 0 -85 21.5t-30 74.5q0 27 10.5 46t30.5 28.5t38.5 14t43.5 6.5q81 6 98 16t17 49
q0 26 -25.5 39.5t-67.5 13.5t-68 -20.5t-29 -58.5zM250 498v56q-7 -7 -21.5 -12t-27 -6t-35.5 -3t-33 -3q-88 -11 -88 -68q0 -30 21.5 -49.5t58.5 -19.5q39 0 66.5 13.5t39 33.5t15.5 34t4 24z" />
    <glyph glyph-name="guillemotleft" unicode="&#xab;" horiz-adv-x="389" 
d="M309 121l-114 131v40l114 131v-51l-85 -100l85 -102v-49zM181 121l-114 131v40l114 131v-51l-85 -100l85 -102v-49z" />
    <glyph glyph-name="logicalnot" unicode="&#xac;" horiz-adv-x="600" 
d="M514 108v223h-466v38h504v-261h-38z" />
    <glyph glyph-name="uni00AD" unicode="&#xad;" horiz-adv-x="352" 
d="M283 253h-214v38h214v-38z" />
    <glyph glyph-name="registered" unicode="&#xae;" horiz-adv-x="800" 
d="M400 731q155 0 264.5 -109.5t109.5 -264.5t-109.5 -264.5t-264.5 -109.5t-264.5 109.5t-109.5 264.5t109.5 264.5t264.5 109.5zM401 698q-144 0 -240.5 -98t-96.5 -243q0 -142 97 -241.5t240 -99.5q142 0 238.5 100t96.5 242q0 144 -96 242t-239 98zM264 136v442h166
q144 0 144 -122q0 -51 -31.5 -80.5t-82.5 -36.5l132 -203h-42l-133 204h-115v-204h-38zM302 545v-172h94q30 0 51 2.5t43.5 10.5t34 26t11.5 45q0 47 -32.5 67.5t-79.5 20.5h-122z" />
    <glyph glyph-name="macron" unicode="&#xaf;" horiz-adv-x="167" 
d="M205 638h-242v33h242v-33z" />
    <glyph glyph-name="degree" unicode="&#xb0;" horiz-adv-x="400" 
d="M200 416q-60 0 -101.5 41.5t-41.5 101.5t41.5 101.5t101.5 41.5t101.5 -41.5t41.5 -101.5t-41.5 -101.5t-101.5 -41.5zM200 669q-44 0 -74.5 -32.5t-30.5 -77.5q0 -46 30 -78t75 -32t75 32t30 78q0 45 -30.5 77.5t-74.5 32.5z" />
    <glyph glyph-name="plusminus" unicode="&#xb1;" horiz-adv-x="600" 
d="M281 315v189h38v-189h233v-38h-233v-189h-38v189h-233v38h233zM48 0v38h504v-38h-504z" />
    <glyph glyph-name="twosuperior" unicode="&#xb2;" horiz-adv-x="360" 
d="M81 686h-34q0 67 36.5 105t102.5 38q58 0 93 -32.5t35 -89.5q0 -77 -82 -130l-61 -40q-47 -30 -68 -54t-26 -55h236v-31h-273q0 58 29.5 94t89.5 75l56 36q65 42 65 106q0 42 -26 66.5t-68 24.5q-52 0 -78.5 -30.5t-26.5 -82.5z" />
    <glyph glyph-name="threesuperior" unicode="&#xb3;" horiz-adv-x="360" 
d="M150 605v31h31q39 0 66 20.5t27 59.5q0 40 -24 61.5t-67 21.5q-50 0 -75.5 -27t-27.5 -75h-34q1 60 37 96t101 36q57 0 90.5 -30t33.5 -82q0 -35 -20.5 -60t-56.5 -34q44 -6 69 -35t25 -71q0 -61 -41.5 -95t-104.5 -34q-67 0 -105 36.5t-38 102.5h34q0 -53 28.5 -81
t79.5 -28q50 0 81.5 25t31.5 73q0 41 -29 65t-81 24h-31z" />
    <glyph glyph-name="acute" unicode="&#xb4;" horiz-adv-x="167" 
d="M26 590l120 140h51l-134 -140h-37z" />
    <glyph glyph-name="mu" unicode="&#xb5;" horiz-adv-x="528" 
d="M472 514v-514h-38v110h-2q-20 -57 -71 -89.5t-113 -32.5q-101 0 -145 68v-240h-38v698h38v-325q0 -168 146 -168q86 0 135.5 59.5t49.5 155.5v278h38z" />
    <glyph glyph-name="paragraph" unicode="&#xb6;" horiz-adv-x="600" 
d="M273 -146v470q-87 0 -147 57t-60 137q0 96 58 146t165 50h217v-860h-38v827h-157v-827h-38z" />
    <glyph glyph-name="periodcentered" unicode="&#xb7;" horiz-adv-x="278" 
d="M85 317q0 21 16.5 37.5t37.5 16.5t38 -16.5t17 -37.5q0 -22 -16.5 -38.5t-38.5 -16.5q-21 0 -37.5 17t-16.5 38z" />
    <glyph glyph-name="cedilla" unicode="&#xb8;" horiz-adv-x="167" 
d="M83 0h34l-48 -56l1 -1q18 7 38 7q32 0 53 -17.5t21 -49.5q0 -38 -27 -58.5t-71 -20.5q-50 0 -92 25l11 24q42 -22 80 -22q28 0 44.5 13t16.5 37q0 19 -14.5 31t-37.5 12t-49 -12l-16 13z" />
    <glyph glyph-name="onesuperior" unicode="&#xb9;" horiz-adv-x="360" 
d="M66 706v30q95 14 126 84h27v-423h-34v362q-46 -46 -119 -53z" />
    <glyph glyph-name="ordmasculine" unicode="&#xba;" horiz-adv-x="334" 
d="M167 366q-74 0 -116 46.5t-42 121.5q0 74 42 121t116 47t116 -47t42 -121q0 -75 -42 -121.5t-116 -46.5zM167 393q62 0 94 40t32 101t-32 101t-94 40t-94 -40t-32 -101t32 -101t94 -40z" />
    <glyph glyph-name="guillemotright" unicode="&#xbb;" horiz-adv-x="389" 
d="M208 121v49l85 102l-85 100v51l114 -131v-40zM80 121v49l85 102l-85 100v51l114 -131v-40z" />
    <glyph glyph-name="onequarter" unicode="&#xbc;" horiz-adv-x="834" 
d="M129 -24l465 738h40l-465 -738h-40zM58 583v30q95 14 126 84h27v-423h-34v362q-46 -46 -119 -53zM650 0v101h-215v31l218 291h31v-291h68v-31h-68v-101h-34zM650 372l-181 -240h181v240z" />
    <glyph glyph-name="onehalf" unicode="&#xbd;" horiz-adv-x="834" 
d="M115 -24l465 738h40l-465 -738h-40zM58 583v30q95 14 126 84h27v-423h-34v362q-46 -46 -119 -53zM528 289h-34q0 67 36.5 105t102.5 38q58 0 93 -32.5t35 -89.5q0 -77 -82 -130l-61 -40q-47 -30 -68 -54t-26 -55h236v-31h-273q0 58 29.5 94t89.5 75l56 36q65 42 65 106
q0 42 -26 66.5t-68 24.5q-52 0 -78.5 -30.5t-26.5 -82.5z" />
    <glyph glyph-name="threequarters" unicode="&#xbe;" horiz-adv-x="834" 
d="M212 -24l465 738h40l-465 -738h-40zM188 482v31h31q39 0 66 20.5t27 59.5q0 40 -24 61.5t-67 21.5q-50 0 -75.5 -27t-27.5 -75h-34q1 60 37 96t101 36q57 0 90.5 -30t33.5 -82q0 -35 -20.5 -60t-56.5 -34q44 -6 69 -35t25 -71q0 -61 -41.5 -95t-104.5 -34
q-67 0 -105 36.5t-38 102.5h34q0 -53 28.5 -81t79.5 -28q50 0 81.5 25t31.5 73q0 41 -29 65t-81 24h-31zM671 0v101h-215v31l218 291h31v-291h68v-31h-68v-101h-34zM671 372l-181 -240h181v240z" />
    <glyph glyph-name="questiondown" unicode="&#xbf;" 
d="M287 535v-103h-51v103h51zM437 42h38q0 -109 -58 -173.5t-164 -64.5q-85 0 -140.5 46t-55.5 133q0 31 6 55t23 47.5t25.5 32.5l34.5 35q25 22 35.5 33t29 36.5t26 57.5t7.5 74h38q0 -73 -22.5 -118.5t-65.5 -86.5q-31 -29 -49 -49t-34 -52t-16 -65q0 -70 46.5 -105.5
t114.5 -35.5q87 0 134 55t47 145z" />
    <glyph glyph-name="Agrave" unicode="&#xc0;" horiz-adv-x="593" 
d="M-12 0l287 714h48l282 -714h-47l-90 229h-342l-91 -229h-47zM140 267h314l-153 404h-2zM327 780h-37l-134 140h51z" />
    <glyph glyph-name="Aacute" unicode="&#xc1;" horiz-adv-x="593" 
d="M-12 0l287 714h48l282 -714h-47l-90 229h-342l-91 -229h-47zM140 267h314l-153 404h-2zM274 780l120 140h51l-134 -140h-37z" />
    <glyph glyph-name="Acircumflex" unicode="&#xc2;" horiz-adv-x="593" 
d="M-12 0l287 714h48l282 -714h-47l-90 229h-342l-91 -229h-47zM140 267h314l-153 404h-2zM280 920h40l116 -140h-38l-98 115l-97 -115h-38z" />
    <glyph glyph-name="Atilde" unicode="&#xc3;" horiz-adv-x="593" 
d="M-12 0l287 714h48l282 -714h-47l-90 229h-342l-91 -229h-47zM140 267h314l-153 404h-2zM184 799h-29q2 36 23.5 63t54.5 27q26 0 72.5 -28.5t64.5 -28.5q19 0 30.5 17t14.5 40h29q-4 -38 -22.5 -64t-53.5 -26q-23 0 -68.5 28.5t-68.5 28.5q-38 0 -47 -57z" />
    <glyph glyph-name="Adieresis" unicode="&#xc4;" horiz-adv-x="593" 
d="M-12 0l287 714h48l282 -714h-47l-90 229h-342l-91 -229h-47zM140 267h314l-153 404h-2zM401 793h-44v103h44v-103zM243 793h-44v103h44v-103z" />
    <glyph glyph-name="Aring" unicode="&#xc5;" horiz-adv-x="593" 
d="M-12 0l287 714h48l282 -714h-47l-90 229h-342l-91 -229h-47zM140 267h314l-153 404h-2zM201 850q0 42 28.5 70.5t70.5 28.5t70.5 -28.5t28.5 -70.5t-28.5 -70.5t-70.5 -28.5t-70.5 28.5t-28.5 70.5zM228 850q0 -30 21 -51t51 -21t51 21t21 51t-21 51t-51 21t-51 -21
t-21 -51z" />
    <glyph glyph-name="AE" unicode="&#xc6;" horiz-adv-x="870" 
d="M-9 0l373 714h490v-38h-379v-286h350v-38h-350v-314h380v-38h-424v254h-268l-132 -254h-40zM431 292v384h-47l-201 -384h248z" />
    <glyph glyph-name="Ccedilla" unicode="&#xc7;" horiz-adv-x="704" 
d="M663 501h-44q-14 88 -82.5 140t-160.5 52q-136 0 -216 -96.5t-80 -239.5t80 -239.5t216 -96.5q102 0 175.5 77t79.5 180h44q-12 -128 -96.5 -211.5t-202.5 -83.5h-1l-33 -39l1 -1q17 7 38 7q32 0 53 -17.5t21 -49.5q0 -38 -27 -58.5t-71 -20.5q-50 0 -92 25l11 24
q42 -22 80 -22q28 0 44.5 13t16.5 37q0 19 -14.5 31t-37.5 12t-49 -12l-16 13l44 59q-143 12 -225.5 116t-82.5 257q0 162 92 268t248 106q71 0 126.5 -23.5t84 -54.5t47.5 -67t24 -57t5 -28z" />
    <glyph glyph-name="Egrave" unicode="&#xc8;" horiz-adv-x="560" 
d="M63 0v714h480v-38h-436v-286h410v-38h-410v-314h441v-38h-485zM335 780h-37l-134 140h51z" />
    <glyph glyph-name="Eacute" unicode="&#xc9;" horiz-adv-x="560" 
d="M63 0v714h480v-38h-436v-286h410v-38h-410v-314h441v-38h-485zM262 780l120 140h51l-134 -140h-37z" />
    <glyph glyph-name="Ecircumflex" unicode="&#xca;" horiz-adv-x="560" 
d="M63 0v714h480v-38h-436v-286h410v-38h-410v-314h441v-38h-485zM278 920h40l116 -140h-38l-98 115l-97 -115h-38z" />
    <glyph glyph-name="Edieresis" unicode="&#xcb;" horiz-adv-x="560" 
d="M63 0v714h480v-38h-436v-286h410v-38h-410v-314h441v-38h-485zM399 793h-44v103h44v-103zM241 793h-44v103h44v-103z" />
    <glyph glyph-name="Igrave" unicode="&#xcc;" horiz-adv-x="170" 
d="M63 0v714h44v-714h-44zM112 780h-37l-134 140h51z" />
    <glyph glyph-name="Iacute" unicode="&#xcd;" horiz-adv-x="170" 
d="M63 0v714h44v-714h-44zM59 780l120 140h51l-134 -140h-37z" />
    <glyph glyph-name="Icircumflex" unicode="&#xce;" horiz-adv-x="170" 
d="M63 0v714h44v-714h-44zM65 920h40l116 -140h-38l-98 115l-97 -115h-38z" />
    <glyph glyph-name="Idieresis" unicode="&#xcf;" horiz-adv-x="170" 
d="M63 0v714h44v-714h-44zM186 793h-44v103h44v-103zM28 793h-44v103h44v-103z" />
    <glyph glyph-name="Eth" unicode="&#xd0;" horiz-adv-x="667" 
d="M63 0v355h-76v33h76v326h234q74 0 132 -20t95 -53t60.5 -80t33 -96.5t9.5 -106.5q0 -161 -83.5 -259.5t-248.5 -98.5h-232zM107 676v-288h246v-33h-246v-317h192q42 0 80.5 9.5t76.5 32.5t65.5 58.5t44.5 92t17 127.5q0 83 -21 144.5t-51 94t-73 51.5t-76 23.5t-72 4.5
h-183z" />
    <glyph glyph-name="Ntilde" unicode="&#xd1;" horiz-adv-x="678" 
d="M63 0v714h55l451 -655h2v655h44v-714h-52l-454 660h-2v-660h-44zM228 799h-29q2 36 23.5 63t54.5 27q26 0 72.5 -28.5t64.5 -28.5q19 0 30.5 17t14.5 40h29q-4 -38 -22.5 -64t-53.5 -26q-23 0 -68.5 28.5t-68.5 28.5q-38 0 -47 -57z" />
    <glyph glyph-name="Ograve" unicode="&#xd2;" horiz-adv-x="741" 
d="M710 357q0 -161 -91.5 -267.5t-247.5 -106.5t-248 106t-92 268t92 268t248 106t247.5 -106.5t91.5 -267.5zM75 357q0 -143 80 -239.5t216 -96.5q135 0 215 96.5t80 239.5t-80 239.5t-215 96.5q-136 0 -216 -96.5t-80 -239.5zM408 780h-37l-134 140h51z" />
    <glyph glyph-name="Oacute" unicode="&#xd3;" horiz-adv-x="741" 
d="M710 357q0 -161 -91.5 -267.5t-247.5 -106.5t-248 106t-92 268t92 268t248 106t247.5 -106.5t91.5 -267.5zM75 357q0 -143 80 -239.5t216 -96.5q135 0 215 96.5t80 239.5t-80 239.5t-215 96.5q-136 0 -216 -96.5t-80 -239.5zM335 780l120 140h51l-134 -140h-37z" />
    <glyph glyph-name="Ocircumflex" unicode="&#xd4;" horiz-adv-x="741" 
d="M710 357q0 -161 -91.5 -267.5t-247.5 -106.5t-248 106t-92 268t92 268t248 106t247.5 -106.5t91.5 -267.5zM75 357q0 -143 80 -239.5t216 -96.5q135 0 215 96.5t80 239.5t-80 239.5t-215 96.5q-136 0 -216 -96.5t-80 -239.5zM351 920h40l116 -140h-38l-98 115l-97 -115
h-38z" />
    <glyph glyph-name="Otilde" unicode="&#xd5;" horiz-adv-x="741" 
d="M710 357q0 -161 -91.5 -267.5t-247.5 -106.5t-248 106t-92 268t92 268t248 106t247.5 -106.5t91.5 -267.5zM75 357q0 -143 80 -239.5t216 -96.5q135 0 215 96.5t80 239.5t-80 239.5t-215 96.5q-136 0 -216 -96.5t-80 -239.5zM255 799h-29q2 36 23.5 63t54.5 27
q26 0 72.5 -28.5t64.5 -28.5q19 0 30.5 17t14.5 40h29q-4 -38 -22.5 -64t-53.5 -26q-23 0 -68.5 28.5t-68.5 28.5q-38 0 -47 -57z" />
    <glyph glyph-name="Odieresis" unicode="&#xd6;" horiz-adv-x="741" 
d="M710 357q0 -161 -91.5 -267.5t-247.5 -106.5t-248 106t-92 268t92 268t248 106t247.5 -106.5t91.5 -267.5zM75 357q0 -143 80 -239.5t216 -96.5q135 0 215 96.5t80 239.5t-80 239.5t-215 96.5q-136 0 -216 -96.5t-80 -239.5zM472 793h-44v103h44v-103zM314 793h-44v103
h44v-103z" />
    <glyph glyph-name="multiply" unicode="&#xd7;" horiz-adv-x="600" 
d="M79 58l194 194l-194 195l26 27l195 -195l194 195l27 -27l-194 -195l194 -194l-27 -27l-194 195l-195 -195z" />
    <glyph glyph-name="Oslash" unicode="&#xd8;" horiz-adv-x="741" 
d="M34 16l79 86q-82 104 -82 255q0 162 92 268t248 106q141 0 232 -91l68 74l26 -24l-70 -76q83 -101 83 -257q0 -161 -91.5 -267.5t-247.5 -106.5q-147 0 -235 93l-76 -84zM143 134l432 475q-82 84 -204 84q-136 0 -216 -96.5t-80 -239.5q0 -132 68 -223zM598 582
l-433 -474q81 -87 206 -87q135 0 215 96.5t80 239.5q0 132 -68 225z" />
    <glyph glyph-name="Ugrave" unicode="&#xd9;" horiz-adv-x="672" 
d="M63 714h44v-428q0 -32 3 -61t16.5 -68.5t36 -67.5t66 -48t102.5 -20q126 0 180 68t54 197v428h44v-428q0 -303 -278 -303q-268 0 -268 303v428zM373 780h-37l-134 140h51z" />
    <glyph glyph-name="Uacute" unicode="&#xda;" horiz-adv-x="672" 
d="M63 714h44v-428q0 -32 3 -61t16.5 -68.5t36 -67.5t66 -48t102.5 -20q126 0 180 68t54 197v428h44v-428q0 -303 -278 -303q-268 0 -268 303v428zM300 780l120 140h51l-134 -140h-37z" />
    <glyph glyph-name="Ucircumflex" unicode="&#xdb;" horiz-adv-x="672" 
d="M63 714h44v-428q0 -32 3 -61t16.5 -68.5t36 -67.5t66 -48t102.5 -20q126 0 180 68t54 197v428h44v-428q0 -303 -278 -303q-268 0 -268 303v428zM316 920h40l116 -140h-38l-98 115l-97 -115h-38z" />
    <glyph glyph-name="Udieresis" unicode="&#xdc;" horiz-adv-x="672" 
d="M63 714h44v-428q0 -32 3 -61t16.5 -68.5t36 -67.5t66 -48t102.5 -20q126 0 180 68t54 197v428h44v-428q0 -303 -278 -303q-268 0 -268 303v428zM437 793h-44v103h44v-103zM279 793h-44v103h44v-103z" />
    <glyph glyph-name="Yacute" unicode="&#xdd;" horiz-adv-x="574" 
d="M287 336l259 378h49l-287 -415v-299h-44v299l-285 415h50zM252 780l120 140h51l-134 -140h-37z" />
    <glyph glyph-name="Thorn" unicode="&#xde;" horiz-adv-x="593" 
d="M63 0v714h44v-120h260q28 0 53 -4t54.5 -17t51 -34t35.5 -58t14 -86q0 -95 -58 -146t-166 -51h-244v-198h-44zM107 556v-320h251q89 0 131 47.5t42 112.5q0 24 -6.5 48t-23 51t-52 44t-85.5 17h-257z" />
    <glyph glyph-name="germandbls" unicode="&#xdf;" horiz-adv-x="500" 
d="M207 379v33q79 0 131 36.5t52 111.5q0 63 -42.5 98t-107.5 35q-144 0 -144 -156v-537h-38v537q0 189 182 189q83 0 135.5 -42.5t52.5 -123.5q0 -130 -119 -157v-2q76 -9 115 -58t39 -129q0 -55 -15.5 -96.5t-37.5 -63.5t-52 -35t-51.5 -16t-44.5 -3h-55v33h38
q22 0 41.5 2.5t46.5 13.5t46 29.5t32.5 53.5t13.5 82q0 92 -57.5 128.5t-160.5 36.5z" />
    <glyph glyph-name="agrave" unicode="&#xe0;" horiz-adv-x="500" 
d="M397 75v27h-2q-19 -49 -69.5 -81.5t-121.5 -32.5q-172 0 -172 145q0 136 189 152l59 5q79 6 98.5 25.5t19.5 76.5q0 45 -35 73t-108 28q-70 0 -112 -35t-46 -102h-38q8 170 198 170q90 0 134 -35t44 -97v-299q0 -16 0.5 -23t3.5 -18t10.5 -16t19.5 -5q10 0 28 3v-32
q-15 -4 -31 -4q-41 0 -55 19t-14 56zM397 196v96q-21 -25 -106 -32l-64 -6q-33 -3 -57 -8.5t-49 -18t-38 -36.5t-13 -58q0 -55 35.5 -83.5t99.5 -28.5q49 0 86 16t56.5 37.5t31.5 48.5t15 44t3 29zM294 590h-37l-134 140h51z" />
    <glyph glyph-name="aacute" unicode="&#xe1;" horiz-adv-x="500" 
d="M397 75v27h-2q-19 -49 -69.5 -81.5t-121.5 -32.5q-172 0 -172 145q0 136 189 152l59 5q79 6 98.5 25.5t19.5 76.5q0 45 -35 73t-108 28q-70 0 -112 -35t-46 -102h-38q8 170 198 170q90 0 134 -35t44 -97v-299q0 -16 0.5 -23t3.5 -18t10.5 -16t19.5 -5q10 0 28 3v-32
q-15 -4 -31 -4q-41 0 -55 19t-14 56zM397 196v96q-21 -25 -106 -32l-64 -6q-33 -3 -57 -8.5t-49 -18t-38 -36.5t-13 -58q0 -55 35.5 -83.5t99.5 -28.5q49 0 86 16t56.5 37.5t31.5 48.5t15 44t3 29zM221 590l120 140h51l-134 -140h-37z" />
    <glyph glyph-name="acircumflex" unicode="&#xe2;" horiz-adv-x="500" 
d="M397 75v27h-2q-19 -49 -69.5 -81.5t-121.5 -32.5q-172 0 -172 145q0 136 189 152l59 5q79 6 98.5 25.5t19.5 76.5q0 45 -35 73t-108 28q-70 0 -112 -35t-46 -102h-38q8 170 198 170q90 0 134 -35t44 -97v-299q0 -16 0.5 -23t3.5 -18t10.5 -16t19.5 -5q10 0 28 3v-32
q-15 -4 -31 -4q-41 0 -55 19t-14 56zM397 196v96q-21 -25 -106 -32l-64 -6q-33 -3 -57 -8.5t-49 -18t-38 -36.5t-13 -58q0 -55 35.5 -83.5t99.5 -28.5q49 0 86 16t56.5 37.5t31.5 48.5t15 44t3 29zM237 730h40l116 -140h-38l-98 115l-97 -115h-38z" />
    <glyph glyph-name="atilde" unicode="&#xe3;" horiz-adv-x="500" 
d="M397 75v27h-2q-19 -49 -69.5 -81.5t-121.5 -32.5q-172 0 -172 145q0 136 189 152l59 5q79 6 98.5 25.5t19.5 76.5q0 45 -35 73t-108 28q-70 0 -112 -35t-46 -102h-38q8 170 198 170q90 0 134 -35t44 -97v-299q0 -16 0.5 -23t3.5 -18t10.5 -16t19.5 -5q10 0 28 3v-32
q-15 -4 -31 -4q-41 0 -55 19t-14 56zM397 196v96q-21 -25 -106 -32l-64 -6q-33 -3 -57 -8.5t-49 -18t-38 -36.5t-13 -58q0 -55 35.5 -83.5t99.5 -28.5q49 0 86 16t56.5 37.5t31.5 48.5t15 44t3 29zM141 609h-29q2 36 23.5 63t54.5 27q26 0 72.5 -28.5t64.5 -28.5
q19 0 30.5 17t14.5 40h29q-4 -38 -22.5 -64t-53.5 -26q-23 0 -68.5 28.5t-68.5 28.5q-38 0 -47 -57z" />
    <glyph glyph-name="adieresis" unicode="&#xe4;" horiz-adv-x="500" 
d="M397 75v27h-2q-19 -49 -69.5 -81.5t-121.5 -32.5q-172 0 -172 145q0 136 189 152l59 5q79 6 98.5 25.5t19.5 76.5q0 45 -35 73t-108 28q-70 0 -112 -35t-46 -102h-38q8 170 198 170q90 0 134 -35t44 -97v-299q0 -16 0.5 -23t3.5 -18t10.5 -16t19.5 -5q10 0 28 3v-32
q-15 -4 -31 -4q-41 0 -55 19t-14 56zM397 196v96q-21 -25 -106 -32l-64 -6q-33 -3 -57 -8.5t-49 -18t-38 -36.5t-13 -58q0 -55 35.5 -83.5t99.5 -28.5q49 0 86 16t56.5 37.5t31.5 48.5t15 44t3 29zM358 603h-44v103h44v-103zM200 603h-44v103h44v-103z" />
    <glyph glyph-name="aring" unicode="&#xe5;" horiz-adv-x="500" 
d="M397 75v27h-2q-19 -49 -69.5 -81.5t-121.5 -32.5q-172 0 -172 145q0 136 189 152l59 5q79 6 98.5 25.5t19.5 76.5q0 45 -35 73t-108 28q-70 0 -112 -35t-46 -102h-38q8 170 198 170q90 0 134 -35t44 -97v-299q0 -16 0.5 -23t3.5 -18t10.5 -16t19.5 -5q10 0 28 3v-32
q-15 -4 -31 -4q-41 0 -55 19t-14 56zM397 196v96q-21 -25 -106 -32l-64 -6q-33 -3 -57 -8.5t-49 -18t-38 -36.5t-13 -58q0 -55 35.5 -83.5t99.5 -28.5q49 0 86 16t56.5 37.5t31.5 48.5t15 44t3 29zM158 670q0 42 28.5 70.5t70.5 28.5t70.5 -28.5t28.5 -70.5t-28.5 -70.5
t-70.5 -28.5t-70.5 28.5t-28.5 70.5zM185 670q0 -30 21 -51t51 -21t51 21t21 51t-21 51t-51 21t-51 -21t-21 -51z" />
    <glyph glyph-name="ae" unicode="&#xe6;" horiz-adv-x="889" 
d="M856 252h-411q-6 -98 43.5 -164.5t144.5 -66.5q73 0 120.5 39t58.5 111h38q-14 -86 -71.5 -134.5t-145.5 -48.5q-79 0 -133.5 38t-72.5 111h-2q-25 -70 -80 -109.5t-129 -39.5q-79 0 -131.5 36t-52.5 107q0 145 187 152q17 2 44.5 3.5l45.5 2.5t39 6t33 13t19.5 24.5
t5.5 40.5q0 62 -37 91t-113 29q-154 0 -164 -140h-38q6 87 59.5 130t142.5 43q170 0 180 -131h2q47 131 195 131q113 0 173 -79.5t50 -194.5zM444 285h374q2 86 -49 147t-136 61q-88 0 -135 -59t-54 -149zM406 201v88h-2q-5 -9 -17 -14.5t-33 -9t-39 -5t-50 -3.5t-50 -4
q-145 -9 -145 -122q0 -55 43 -82.5t103 -27.5q75 0 131.5 52.5t58.5 127.5z" />
    <glyph glyph-name="ccedilla" unicode="&#xe7;" 
d="M481 355h-38q-6 66 -54 102t-120 36q-91 0 -144.5 -68.5t-53.5 -162.5q0 -109 51 -175t147 -66q71 0 120 44.5t59 115.5h38q-12 -87 -68.5 -138t-136.5 -55l-38 -44l1 -1q18 7 38 7q32 0 53 -17.5t21 -49.5q0 -38 -27 -58.5t-71 -20.5q-50 0 -92 25l11 24q42 -22 80 -22
q28 0 44.5 13t16.5 37q0 19 -14.5 31t-37.5 12t-49 -12l-16 13l47 64q-108 7 -161.5 84t-53.5 189q0 113 63 188.5t173 75.5q87 0 145.5 -43.5t66.5 -127.5z" />
    <glyph glyph-name="egrave" unicode="&#xe8;" 
d="M486 252h-415v-6q0 -96 49.5 -160.5t139.5 -64.5q149 0 184 153h38q-17 -90 -74 -138t-149 -48q-109 0 -168 74t-59 191q0 116 60.5 194.5t172.5 78.5q104 0 163 -72t59 -180q0 -4 -0.5 -12t-0.5 -10zM72 285h376q-3 89 -51.5 148.5t-131.5 59.5q-87 0 -136.5 -60
t-56.5 -148zM298 590h-37l-134 140h51z" />
    <glyph glyph-name="eacute" unicode="&#xe9;" 
d="M486 252h-415v-6q0 -96 49.5 -160.5t139.5 -64.5q149 0 184 153h38q-17 -90 -74 -138t-149 -48q-109 0 -168 74t-59 191q0 116 60.5 194.5t172.5 78.5q104 0 163 -72t59 -180q0 -4 -0.5 -12t-0.5 -10zM72 285h376q-3 89 -51.5 148.5t-131.5 59.5q-87 0 -136.5 -60
t-56.5 -148zM225 590l120 140h51l-134 -140h-37z" />
    <glyph glyph-name="ecircumflex" unicode="&#xea;" 
d="M486 252h-415v-6q0 -96 49.5 -160.5t139.5 -64.5q149 0 184 153h38q-17 -90 -74 -138t-149 -48q-109 0 -168 74t-59 191q0 116 60.5 194.5t172.5 78.5q104 0 163 -72t59 -180q0 -4 -0.5 -12t-0.5 -10zM72 285h376q-3 89 -51.5 148.5t-131.5 59.5q-87 0 -136.5 -60
t-56.5 -148zM241 730h40l116 -140h-38l-98 115l-97 -115h-38z" />
    <glyph glyph-name="edieresis" unicode="&#xeb;" 
d="M486 252h-415v-6q0 -96 49.5 -160.5t139.5 -64.5q149 0 184 153h38q-17 -90 -74 -138t-149 -48q-109 0 -168 74t-59 191q0 116 60.5 194.5t172.5 78.5q104 0 163 -72t59 -180q0 -4 -0.5 -12t-0.5 -10zM72 285h376q-3 89 -51.5 148.5t-131.5 59.5q-87 0 -136.5 -60
t-56.5 -148zM362 603h-44v103h44v-103zM204 603h-44v103h44v-103z" />
    <glyph glyph-name="igrave" unicode="&#xec;" horiz-adv-x="168" 
d="M103 0h-38v514h38v-514zM110 590h-37l-134 140h51z" />
    <glyph glyph-name="iacute" unicode="&#xed;" horiz-adv-x="168" 
d="M103 0h-38v514h38v-514zM59 590l120 140h51l-134 -140h-37z" />
    <glyph glyph-name="icircumflex" unicode="&#xee;" horiz-adv-x="168" 
d="M103 0h-38v514h38v-514zM64 730h40l116 -140h-38l-98 115l-97 -115h-38z" />
    <glyph glyph-name="idieresis" unicode="&#xef;" horiz-adv-x="168" 
d="M103 0h-38v514h38v-514zM185 603h-44v103h44v-103zM27 603h-44v103h44v-103z" />
    <glyph glyph-name="eth" unicode="&#xf0;" horiz-adv-x="537" 
d="M146 582l108 60q-55 42 -103 65l28 24q58 -31 108 -71l115 64l20 -22l-109 -61q191 -152 191 -392q0 -114 -61 -187.5t-174 -73.5q-116 0 -176.5 72.5t-60.5 188.5q0 109 63.5 183t173.5 74q103 0 163 -74l2 2q-43 101 -155 188l-112 -62zM269 473q-93 0 -146 -65.5
t-53 -158.5q0 -95 51.5 -161.5t147.5 -66.5q97 0 147 65t50 163q0 93 -52 158.5t-145 65.5z" />
    <glyph glyph-name="ntilde" unicode="&#xf1;" 
d="M56 0v514h38v-110h2q20 57 71 89.5t113 32.5q43 0 76 -10.5t52 -30t31 -39t17 -47.5t6 -43.5t1 -37.5v-318h-38v325q0 168 -146 168q-86 0 -135.5 -59.5t-49.5 -155.5v-278h-38zM144 609h-29q2 36 23.5 63t54.5 27q26 0 72.5 -28.5t64.5 -28.5q19 0 30.5 17t14.5 40h29
q-4 -38 -22.5 -64t-53.5 -26q-23 0 -68.5 28.5t-68.5 28.5q-38 0 -47 -57z" />
    <glyph glyph-name="ograve" unicode="&#xf2;" horiz-adv-x="537" 
d="M32 257q0 115 63 192t173 77t173 -77t63 -192t-63 -192t-173 -77t-173 77t-63 192zM70 257q0 -98 53 -167t145 -69t145 69t53 167t-53 167t-145 69t-145 -69t-53 -167zM310 590h-37l-134 140h51z" />
    <glyph glyph-name="oacute" unicode="&#xf3;" horiz-adv-x="537" 
d="M32 257q0 115 63 192t173 77t173 -77t63 -192t-63 -192t-173 -77t-173 77t-63 192zM70 257q0 -98 53 -167t145 -69t145 69t53 167t-53 167t-145 69t-145 -69t-53 -167zM227 590l120 140h51l-134 -140h-37z" />
    <glyph glyph-name="ocircumflex" unicode="&#xf4;" horiz-adv-x="537" 
d="M32 257q0 115 63 192t173 77t173 -77t63 -192t-63 -192t-173 -77t-173 77t-63 192zM70 257q0 -98 53 -167t145 -69t145 69t53 167t-53 167t-145 69t-145 -69t-53 -167zM248 730h40l116 -140h-38l-98 115l-97 -115h-38z" />
    <glyph glyph-name="otilde" unicode="&#xf5;" horiz-adv-x="537" 
d="M32 257q0 115 63 192t173 77t173 -77t63 -192t-63 -192t-173 -77t-173 77t-63 192zM70 257q0 -98 53 -167t145 -69t145 69t53 167t-53 167t-145 69t-145 -69t-53 -167zM152 609h-29q2 36 23.5 63t54.5 27q26 0 72.5 -28.5t64.5 -28.5q19 0 30.5 17t14.5 40h29
q-4 -38 -22.5 -64t-53.5 -26q-23 0 -68.5 28.5t-68.5 28.5q-38 0 -47 -57z" />
    <glyph glyph-name="odieresis" unicode="&#xf6;" horiz-adv-x="537" 
d="M32 257q0 115 63 192t173 77t173 -77t63 -192t-63 -192t-173 -77t-173 77t-63 192zM70 257q0 -98 53 -167t145 -69t145 69t53 167t-53 167t-145 69t-145 -69t-53 -167zM369 603h-44v103h44v-103zM211 603h-44v103h44v-103z" />
    <glyph glyph-name="divide" unicode="&#xf7;" horiz-adv-x="600" 
d="M250 452q0 22 15 37t36 15t36.5 -15t15.5 -37q0 -21 -15.5 -36t-36.5 -15t-36 15t-15 36zM552 233h-504v38h504v-38zM250 51q0 22 15 37t36 15t36.5 -15t15.5 -37q0 -21 -15.5 -36t-36.5 -15t-36 15t-15 36z" />
    <glyph glyph-name="oslash" unicode="&#xf8;" horiz-adv-x="537" 
d="M513 490l-58 -62q49 -72 49 -171q0 -115 -63 -192t-173 -77q-102 0 -165 69l-54 -57l-24 23l57 61q-50 71 -50 173q0 115 63 192t173 77q103 0 166 -71l55 58zM109 112l299 316q-52 65 -140 65q-92 0 -145 -69t-53 -167q0 -87 39 -145zM428 400l-299 -316q53 -63 139 -63
q92 0 145 69t53 167q0 85 -38 143z" />
    <glyph glyph-name="ugrave" unicode="&#xf9;" 
d="M463 514v-514h-38v110h-2q-20 -57 -71 -89.5t-113 -32.5q-43 0 -76 10.5t-52 30t-31 39t-17 47.5t-6 43.5t-1 37.5v318h38v-325q0 -168 146 -168q86 0 135.5 59.5t49.5 155.5v278h38zM296 590h-37l-134 140h51z" />
    <glyph glyph-name="uacute" unicode="&#xfa;" 
d="M463 514v-514h-38v110h-2q-20 -57 -71 -89.5t-113 -32.5q-43 0 -76 10.5t-52 30t-31 39t-17 47.5t-6 43.5t-1 37.5v318h38v-325q0 -168 146 -168q86 0 135.5 59.5t49.5 155.5v278h38zM223 590l120 140h51l-134 -140h-37z" />
    <glyph glyph-name="ucircumflex" unicode="&#xfb;" 
d="M463 514v-514h-38v110h-2q-20 -57 -71 -89.5t-113 -32.5q-43 0 -76 10.5t-52 30t-31 39t-17 47.5t-6 43.5t-1 37.5v318h38v-325q0 -168 146 -168q86 0 135.5 59.5t49.5 155.5v278h38zM239 730h40l116 -140h-38l-98 115l-97 -115h-38z" />
    <glyph glyph-name="udieresis" unicode="&#xfc;" 
d="M463 514v-514h-38v110h-2q-20 -57 -71 -89.5t-113 -32.5q-43 0 -76 10.5t-52 30t-31 39t-17 47.5t-6 43.5t-1 37.5v318h38v-325q0 -168 146 -168q86 0 135.5 59.5t49.5 155.5v278h38zM360 603h-44v103h44v-103zM202 603h-44v103h44v-103z" />
    <glyph glyph-name="yacute" unicode="&#xfd;" horiz-adv-x="444" 
d="M209 3l-215 511h45l191 -469l176 469h43l-220 -569q-36 -89 -60 -106q-19 -15 -44.5 -19t-75.5 -4v33q42 0 64.5 6.5t42.5 26.5q16 16 53 121zM193 590l120 140h51l-134 -140h-37z" />
    <glyph glyph-name="thorn" unicode="&#xfe;" horiz-adv-x="556" 
d="M65 -184v898h38v-318h2q15 49 63 89.5t124 40.5q112 0 171.5 -77.5t59.5 -192.5q0 -122 -58.5 -195t-172.5 -73q-143 0 -187 119h-2v-291h-38zM292 21q95 0 144 66.5t49 168.5q0 98 -48.5 167.5t-144.5 69.5t-142 -68t-46 -169q0 -49 9.5 -89t30 -74t58.5 -53t90 -19z
" />
    <glyph glyph-name="ydieresis" unicode="&#xff;" horiz-adv-x="444" 
d="M209 3l-215 511h45l191 -469l176 469h43l-220 -569q-36 -89 -60 -106q-19 -15 -44.5 -19t-75.5 -4v33q42 0 64.5 6.5t42.5 26.5q16 16 53 121zM330 603h-44v103h44v-103zM172 603h-44v103h44v-103z" />
    <glyph glyph-name="Amacron" unicode="&#x100;" horiz-adv-x="593" 
d="M-12 0l287 714h48l282 -714h-47l-90 229h-342l-91 -229h-47zM140 267h314l-153 404h-2zM421 828h-242v33h242v-33z" />
    <glyph glyph-name="amacron" unicode="&#x101;" horiz-adv-x="500" 
d="M397 75v27h-2q-19 -49 -69.5 -81.5t-121.5 -32.5q-172 0 -172 145q0 136 189 152l59 5q79 6 98.5 25.5t19.5 76.5q0 45 -35 73t-108 28q-70 0 -112 -35t-46 -102h-38q8 170 198 170q90 0 134 -35t44 -97v-299q0 -16 0.5 -23t3.5 -18t10.5 -16t19.5 -5q10 0 28 3v-32
q-15 -4 -31 -4q-41 0 -55 19t-14 56zM397 196v96q-21 -25 -106 -32l-64 -6q-33 -3 -57 -8.5t-49 -18t-38 -36.5t-13 -58q0 -55 35.5 -83.5t99.5 -28.5q49 0 86 16t56.5 37.5t31.5 48.5t15 44t3 29zM378 638h-242v33h242v-33z" />
    <glyph glyph-name="Abreve" unicode="&#x102;" horiz-adv-x="593" 
d="M-12 0l287 714h48l282 -714h-47l-90 229h-342l-91 -229h-47zM140 267h314l-153 404h-2zM403 910h33q-6 -49 -43.5 -84.5t-87.5 -35.5q-58 0 -95.5 32t-44.5 88h33q21 -87 106 -87q39 0 65.5 24t33.5 63z" />
    <glyph glyph-name="abreve" unicode="&#x103;" horiz-adv-x="500" 
d="M397 75v27h-2q-19 -49 -69.5 -81.5t-121.5 -32.5q-172 0 -172 145q0 136 189 152l59 5q79 6 98.5 25.5t19.5 76.5q0 45 -35 73t-108 28q-70 0 -112 -35t-46 -102h-38q8 170 198 170q90 0 134 -35t44 -97v-299q0 -16 0.5 -23t3.5 -18t10.5 -16t19.5 -5q10 0 28 3v-32
q-15 -4 -31 -4q-41 0 -55 19t-14 56zM397 196v96q-21 -25 -106 -32l-64 -6q-33 -3 -57 -8.5t-49 -18t-38 -36.5t-13 -58q0 -55 35.5 -83.5t99.5 -28.5q49 0 86 16t56.5 37.5t31.5 48.5t15 44t3 29zM360 720h33q-6 -49 -43.5 -84.5t-87.5 -35.5q-58 0 -95.5 32t-44.5 88h33
q21 -87 106 -87q39 0 65.5 24t33.5 63z" />
    <glyph glyph-name="Aogonek" unicode="&#x104;" horiz-adv-x="593" 
d="M558 0l-90 229h-342l-91 -229h-47l287 714h48l282 -714h-22q-82 -72 -82 -121q0 -19 12.5 -30.5t30.5 -11.5q35 0 58 35l23 -8q-25 -60 -86 -60q-38 0 -60 17t-22 51q0 59 101 128zM140 267h314l-153 404h-2z" />
    <glyph glyph-name="aogonek" unicode="&#x105;" horiz-adv-x="500" 
d="M397 75v27h-2q-19 -49 -69.5 -81.5t-121.5 -32.5q-172 0 -172 145q0 136 189 152l59 5q79 6 98.5 25.5t19.5 76.5q0 45 -35 73t-108 28q-70 0 -112 -35t-46 -102h-38q8 170 198 170q90 0 134 -35t44 -97v-299q0 -20 1 -30.5t9 -21t24 -10.5q10 0 28 3v-32q-15 -4 -31 -4
h-10q-82 -72 -82 -121q0 -19 12.5 -30.5t30.5 -11.5q35 0 58 35l23 -8q-25 -60 -86 -60q-38 0 -60 17t-22 51q0 62 107 131q-40 12 -40 72zM397 196v96q-21 -25 -106 -32l-64 -6q-33 -3 -57 -8.5t-49 -18t-38 -36.5t-13 -58q0 -55 35.5 -83.5t99.5 -28.5q49 0 86 16
t56.5 37.5t31.5 48.5t15 44t3 29z" />
    <glyph glyph-name="Cacute" unicode="&#x106;" horiz-adv-x="704" 
d="M36 357q0 162 92 268t248 106q71 0 126.5 -23.5t84 -54.5t47.5 -67t24 -57t5 -28h-44q-14 88 -82.5 140t-160.5 52q-136 0 -216 -96.5t-80 -239.5t80 -239.5t216 -96.5q102 0 175.5 77t79.5 180h44q-12 -128 -96.5 -211.5t-202.5 -83.5q-156 0 -248 106t-92 268zM336 780
l120 140h51l-134 -140h-37z" />
    <glyph glyph-name="cacute" unicode="&#x107;" 
d="M481 355h-38q-6 66 -54 102t-120 36q-91 0 -144.5 -68.5t-53.5 -162.5q0 -109 51 -175t147 -66q71 0 120 44.5t59 115.5h38q-12 -90 -72 -141.5t-145 -51.5q-118 0 -177 78t-59 196q0 113 63 188.5t173 75.5q87 0 145.5 -43.5t66.5 -127.5zM232 590l120 140h51l-134 -140
h-37z" />
    <glyph glyph-name="Ccircumflex" unicode="&#x108;" horiz-adv-x="704" 
d="M36 357q0 162 92 268t248 106q71 0 126.5 -23.5t84 -54.5t47.5 -67t24 -57t5 -28h-44q-14 88 -82.5 140t-160.5 52q-136 0 -216 -96.5t-80 -239.5t80 -239.5t216 -96.5q102 0 175.5 77t79.5 180h44q-12 -128 -96.5 -211.5t-202.5 -83.5q-156 0 -248 106t-92 268zM352 920
h40l116 -140h-38l-98 115l-97 -115h-38z" />
    <glyph glyph-name="ccircumflex" unicode="&#x109;" 
d="M481 355h-38q-6 66 -54 102t-120 36q-91 0 -144.5 -68.5t-53.5 -162.5q0 -109 51 -175t147 -66q71 0 120 44.5t59 115.5h38q-12 -90 -72 -141.5t-145 -51.5q-118 0 -177 78t-59 196q0 113 63 188.5t173 75.5q87 0 145.5 -43.5t66.5 -127.5zM248 730h40l116 -140h-38
l-98 115l-97 -115h-38z" />
    <glyph glyph-name="Cdotaccent" unicode="&#x10a;" horiz-adv-x="704" 
d="M36 357q0 162 92 268t248 106q71 0 126.5 -23.5t84 -54.5t47.5 -67t24 -57t5 -28h-44q-14 88 -82.5 140t-160.5 52q-136 0 -216 -96.5t-80 -239.5t80 -239.5t216 -96.5q102 0 175.5 77t79.5 180h44q-12 -128 -96.5 -211.5t-202.5 -83.5q-156 0 -248 106t-92 268zM395 793
h-44v103h44v-103z" />
    <glyph glyph-name="cdotaccent" unicode="&#x10b;" 
d="M481 355h-38q-6 66 -54 102t-120 36q-91 0 -144.5 -68.5t-53.5 -162.5q0 -109 51 -175t147 -66q71 0 120 44.5t59 115.5h38q-12 -90 -72 -141.5t-145 -51.5q-118 0 -177 78t-59 196q0 113 63 188.5t173 75.5q87 0 145.5 -43.5t66.5 -127.5zM290 603h-44v103h44v-103z" />
    <glyph glyph-name="Ccaron" unicode="&#x10c;" horiz-adv-x="704" 
d="M36 357q0 162 92 268t248 106q71 0 126.5 -23.5t84 -54.5t47.5 -67t24 -57t5 -28h-44q-14 88 -82.5 140t-160.5 52q-136 0 -216 -96.5t-80 -239.5t80 -239.5t216 -96.5q102 0 175.5 77t79.5 180h44q-12 -128 -96.5 -211.5t-202.5 -83.5q-156 0 -248 106t-92 268zM392 780
h-40l-115 140h38l97 -115l98 115h38z" />
    <glyph glyph-name="ccaron" unicode="&#x10d;" 
d="M481 355h-38q-6 66 -54 102t-120 36q-91 0 -144.5 -68.5t-53.5 -162.5q0 -109 51 -175t147 -66q71 0 120 44.5t59 115.5h38q-12 -90 -72 -141.5t-145 -51.5q-118 0 -177 78t-59 196q0 113 63 188.5t173 75.5q87 0 145.5 -43.5t66.5 -127.5zM288 590h-40l-115 140h38
l97 -115l98 115h38z" />
    <glyph glyph-name="Dcaron" unicode="&#x10e;" horiz-adv-x="667" 
d="M63 0v714h234q74 0 132 -20t95 -53t60.5 -80t33 -96.5t9.5 -106.5q0 -161 -83.5 -259.5t-248.5 -98.5h-232zM107 38h192q42 0 80.5 9.5t76.5 32.5t65.5 58.5t44.5 92t17 127.5q0 83 -21 144.5t-51 94t-73 51.5t-76 23.5t-72 4.5h-183v-638zM310 780h-40l-115 140h38
l97 -115l98 115h38z" />
    <glyph glyph-name="dcaron" unicode="&#x10f;" horiz-adv-x="556" 
d="M453 0v110h-2q-65 -122 -197 -122q-110 0 -166 76.5t-56 191.5q0 120 58.5 195t170.5 75q65 0 117.5 -34t72.5 -93h2v315h38v-714h-38zM262 21q92 0 141 69t49 166q0 98 -49 167.5t-142 69.5q-96 0 -143.5 -67.5t-47.5 -169.5q0 -98 49.5 -166.5t142.5 -68.5zM532 574
l65 140h51l-87 -140h-29z" />
    <glyph glyph-name="Dcroat" unicode="&#x110;" horiz-adv-x="667" 
d="M63 0v355h-76v33h76v326h234q74 0 132 -20t95 -53t60.5 -80t33 -96.5t9.5 -106.5q0 -161 -83.5 -259.5t-248.5 -98.5h-232zM107 676v-288h246v-33h-246v-317h192q42 0 80.5 9.5t76.5 32.5t65.5 58.5t44.5 92t17 127.5q0 83 -21 144.5t-51 94t-73 51.5t-76 23.5t-72 4.5
h-183z" />
    <glyph glyph-name="dcroat" unicode="&#x111;" horiz-adv-x="556" 
d="M453 0v110h-2q-65 -122 -197 -122q-110 0 -166 76.5t-56 191.5q0 120 58.5 195t170.5 75q65 0 117.5 -34t72.5 -93h2v190h-195v31h195v94h38v-94h82v-31h-82v-589h-38zM262 21q92 0 141 69t49 166q0 98 -49 167.5t-142 69.5q-96 0 -143.5 -67.5t-47.5 -169.5
q0 -98 49.5 -166.5t142.5 -68.5z" />
    <glyph glyph-name="Emacron" unicode="&#x112;" horiz-adv-x="560" 
d="M63 0v714h480v-38h-436v-286h410v-38h-410v-314h441v-38h-485zM419 828h-242v33h242v-33z" />
    <glyph glyph-name="emacron" unicode="&#x113;" 
d="M486 252h-415v-6q0 -96 49.5 -160.5t139.5 -64.5q149 0 184 153h38q-17 -90 -74 -138t-149 -48q-109 0 -168 74t-59 191q0 116 60.5 194.5t172.5 78.5q104 0 163 -72t59 -180q0 -4 -0.5 -12t-0.5 -10zM72 285h376q-3 89 -51.5 148.5t-131.5 59.5q-87 0 -136.5 -60
t-56.5 -148zM382 638h-242v33h242v-33z" />
    <glyph glyph-name="Ebreve" unicode="&#x114;" horiz-adv-x="560" 
d="M63 0v714h480v-38h-436v-286h410v-38h-410v-314h441v-38h-485zM401 910h33q-6 -49 -43.5 -84.5t-87.5 -35.5q-58 0 -95.5 32t-44.5 88h33q21 -87 106 -87q39 0 65.5 24t33.5 63z" />
    <glyph glyph-name="ebreve" unicode="&#x115;" 
d="M486 252h-415v-6q0 -96 49.5 -160.5t139.5 -64.5q149 0 184 153h38q-17 -90 -74 -138t-149 -48q-109 0 -168 74t-59 191q0 116 60.5 194.5t172.5 78.5q104 0 163 -72t59 -180q0 -4 -0.5 -12t-0.5 -10zM72 285h376q-3 89 -51.5 148.5t-131.5 59.5q-87 0 -136.5 -60
t-56.5 -148zM364 720h33q-6 -49 -43.5 -84.5t-87.5 -35.5q-58 0 -95.5 32t-44.5 88h33q21 -87 106 -87q39 0 65.5 24t33.5 63z" />
    <glyph glyph-name="Edotaccent" unicode="&#x116;" horiz-adv-x="560" 
d="M63 0v714h480v-38h-436v-286h410v-38h-410v-314h441v-38h-485zM321 793h-44v103h44v-103z" />
    <glyph glyph-name="edotaccent" unicode="&#x117;" 
d="M486 252h-415v-6q0 -96 49.5 -160.5t139.5 -64.5q149 0 184 153h38q-17 -90 -74 -138t-149 -48q-109 0 -168 74t-59 191q0 116 60.5 194.5t172.5 78.5q104 0 163 -72t59 -180q0 -4 -0.5 -12t-0.5 -10zM72 285h376q-3 89 -51.5 148.5t-131.5 59.5q-87 0 -136.5 -60
t-56.5 -148zM283 603h-44v103h44v-103z" />
    <glyph glyph-name="Eogonek" unicode="&#x118;" horiz-adv-x="560" 
d="M478 0h-415v714h480v-38h-436v-286h410v-38h-410v-314h441v-38h-46q-82 -72 -82 -121q0 -19 12.5 -30.5t30.5 -11.5q35 0 58 35l23 -8q-25 -60 -86 -60q-38 0 -60 17t-22 51q0 60 102 128z" />
    <glyph glyph-name="eogonek" unicode="&#x119;" 
d="M486 252h-415v-6q0 -96 49.5 -160.5t139.5 -64.5q149 0 184 153h38q-16 -83 -65.5 -130.5t-128.5 -54.5q-70 -64 -70 -110q0 -19 12.5 -30.5t30.5 -11.5q35 0 58 35l23 -8q-25 -60 -86 -60q-38 0 -60 17t-22 51q0 56 84 116q-109 1 -167.5 74.5t-58.5 190.5
q0 116 60.5 194.5t172.5 78.5q104 0 163 -72t59 -180q0 -4 -0.5 -12t-0.5 -10zM72 285h376q-3 89 -51.5 148.5t-131.5 59.5q-87 0 -136.5 -60t-56.5 -148z" />
    <glyph glyph-name="Ecaron" unicode="&#x11a;" horiz-adv-x="560" 
d="M63 0v714h480v-38h-436v-286h410v-38h-410v-314h441v-38h-485zM318 780h-40l-115 140h38l97 -115l98 115h38z" />
    <glyph glyph-name="ecaron" unicode="&#x11b;" 
d="M486 252h-415v-6q0 -96 49.5 -160.5t139.5 -64.5q149 0 184 153h38q-17 -90 -74 -138t-149 -48q-109 0 -168 74t-59 191q0 116 60.5 194.5t172.5 78.5q104 0 163 -72t59 -180q0 -4 -0.5 -12t-0.5 -10zM72 285h376q-3 89 -51.5 148.5t-131.5 59.5q-87 0 -136.5 -60
t-56.5 -148zM281 590h-40l-115 140h38l97 -115l98 115h38z" />
    <glyph glyph-name="Gcircumflex" unicode="&#x11c;" horiz-adv-x="741" 
d="M37 353q0 159 91 268.5t246 109.5q113 0 196 -64.5t101 -173.5h-42q-25 94 -91 147t-163 53q-138 0 -216 -99t-78 -241q0 -143 76.5 -237.5t217.5 -94.5q128 0 202 80t68 211h-263v38h301v-350h-38v152h-2q-26 -77 -100.5 -123t-169.5 -46q-157 0 -246.5 105t-89.5 265z
M352 920h40l116 -140h-38l-98 115l-97 -115h-38z" />
    <glyph glyph-name="gcircumflex" unicode="&#x11d;" horiz-adv-x="537" 
d="M443 514h38v-487q0 -223 -221 -223q-195 0 -202 160h38q6 -65 51 -96t113 -31q51 0 88 15.5t57 42.5t29 57.5t9 65.5v118h-2q-55 -117 -186 -117q-109 0 -165.5 70.5t-56.5 183.5q0 107 59 180t163 73q62 0 113.5 -31.5t72.5 -87.5h2v107zM255 493q-88 0 -136 -65.5
t-48 -154.5q0 -95 48.5 -158t135.5 -63q89 0 138 64t49 157t-49 156.5t-138 63.5zM248 730h40l116 -140h-38l-98 115l-97 -115h-38z" />
    <glyph glyph-name="Gbreve" unicode="&#x11e;" horiz-adv-x="741" 
d="M37 353q0 159 91 268.5t246 109.5q113 0 196 -64.5t101 -173.5h-42q-25 94 -91 147t-163 53q-138 0 -216 -99t-78 -241q0 -143 76.5 -237.5t217.5 -94.5q128 0 202 80t68 211h-263v38h301v-350h-38v152h-2q-26 -77 -100.5 -123t-169.5 -46q-157 0 -246.5 105t-89.5 265z
M475 910h33q-6 -49 -43.5 -84.5t-87.5 -35.5q-58 0 -95.5 32t-44.5 88h33q21 -87 106 -87q39 0 65.5 24t33.5 63z" />
    <glyph glyph-name="gbreve" unicode="&#x11f;" horiz-adv-x="537" 
d="M443 514h38v-487q0 -223 -221 -223q-195 0 -202 160h38q6 -65 51 -96t113 -31q51 0 88 15.5t57 42.5t29 57.5t9 65.5v118h-2q-55 -117 -186 -117q-109 0 -165.5 70.5t-56.5 183.5q0 107 59 180t163 73q62 0 113.5 -31.5t72.5 -87.5h2v107zM255 493q-88 0 -136 -65.5
t-48 -154.5q0 -95 48.5 -158t135.5 -63q89 0 138 64t49 157t-49 156.5t-138 63.5zM371 720h33q-6 -49 -43.5 -84.5t-87.5 -35.5q-58 0 -95.5 32t-44.5 88h33q21 -87 106 -87q39 0 65.5 24t33.5 63z" />
    <glyph glyph-name="Gdotaccent" unicode="&#x120;" horiz-adv-x="741" 
d="M37 353q0 159 91 268.5t246 109.5q113 0 196 -64.5t101 -173.5h-42q-25 94 -91 147t-163 53q-138 0 -216 -99t-78 -241q0 -143 76.5 -237.5t217.5 -94.5q128 0 202 80t68 211h-263v38h301v-350h-38v152h-2q-26 -77 -100.5 -123t-169.5 -46q-157 0 -246.5 105t-89.5 265z
M395 793h-44v103h44v-103z" />
    <glyph glyph-name="gdotaccent" unicode="&#x121;" horiz-adv-x="537" 
d="M443 514h38v-487q0 -223 -221 -223q-195 0 -202 160h38q6 -65 51 -96t113 -31q51 0 88 15.5t57 42.5t29 57.5t9 65.5v118h-2q-55 -117 -186 -117q-109 0 -165.5 70.5t-56.5 183.5q0 107 59 180t163 73q62 0 113.5 -31.5t72.5 -87.5h2v107zM255 493q-88 0 -136 -65.5
t-48 -154.5q0 -95 48.5 -158t135.5 -63q89 0 138 64t49 157t-49 156.5t-138 63.5zM291 603h-44v103h44v-103z" />
    <glyph glyph-name="Gcommaaccent" unicode="&#x122;" horiz-adv-x="741" 
d="M37 353q0 159 91 268.5t246 109.5q113 0 196 -64.5t101 -173.5h-42q-25 94 -91 147t-163 53q-138 0 -216 -99t-78 -241q0 -143 76.5 -237.5t217.5 -94.5q128 0 202 80t68 211h-263v38h301v-350h-38v152h-2q-26 -77 -100.5 -123t-169.5 -46q-157 0 -246.5 105t-89.5 265z
M335 -196v20q27 6 31 33h-25v93h57v-80q0 -61 -63 -66z" />
    <glyph glyph-name="gcommaaccent" unicode="&#x123;" horiz-adv-x="537" 
d="M443 514h38v-487q0 -223 -221 -223q-195 0 -202 160h38q6 -65 51 -96t113 -31q51 0 88 15.5t57 42.5t29 57.5t9 65.5v118h-2q-55 -117 -186 -117q-109 0 -165.5 70.5t-56.5 183.5q0 107 59 180t163 73q62 0 113.5 -31.5t72.5 -87.5h2v107zM255 493q-88 0 -136 -65.5
t-48 -154.5q0 -95 48.5 -158t135.5 -63q89 0 138 64t49 157t-49 156.5t-138 63.5zM302 767v-20q-27 -6 -31 -33h25v-93h-57v80q0 61 63 66z" />
    <glyph glyph-name="Hcircumflex" unicode="&#x124;" horiz-adv-x="670" 
d="M63 0v714h44v-324h456v324h44v-714h-44v352h-456v-352h-44zM315 920h40l116 -140h-38l-98 115l-97 -115h-38z" />
    <glyph glyph-name="hcircumflex" unicode="&#x125;" 
d="M56 714h38v-310h2q20 57 71 89.5t113 32.5q43 0 76 -10.5t52 -30t31 -39t17 -47.5t6 -43.5t1 -37.5v-318h-38v325q0 168 -146 168q-86 0 -135.5 -59.5t-49.5 -155.5v-278h-38v714zM230 920h40l116 -140h-38l-98 115l-97 -115h-38z" />
    <glyph glyph-name="Hbar" unicode="&#x126;" horiz-adv-x="670" 
d="M107 714v-160h456v160h44v-714h-44v333h-456v-333h-44v714h44zM107 521v-150h456v150h-456z" />
    <glyph glyph-name="hbar" unicode="&#x127;" 
d="M56 714h38v-94h195v-31h-195v-185h2q20 57 71 89.5t113 32.5q43 0 76 -10.5t52 -30t31 -39t17 -47.5t6 -43.5t1 -37.5v-318h-38v325q0 168 -146 168q-86 0 -135.5 -59.5t-49.5 -155.5v-278h-38v589h-82v31h82v94z" />
    <glyph glyph-name="Itilde" unicode="&#x128;" horiz-adv-x="170" 
d="M63 0v714h44v-714h-44zM-31 799h-29q2 36 23.5 63t54.5 27q26 0 72.5 -28.5t64.5 -28.5q19 0 30.5 17t14.5 40h29q-4 -38 -22.5 -64t-53.5 -26q-23 0 -68.5 28.5t-68.5 28.5q-38 0 -47 -57z" />
    <glyph glyph-name="itilde" unicode="&#x129;" horiz-adv-x="168" 
d="M103 0h-38v514h38v-514zM-32 609h-29q2 36 23.5 63t54.5 27q26 0 72.5 -28.5t64.5 -28.5q19 0 30.5 17t14.5 40h29q-4 -38 -22.5 -64t-53.5 -26q-23 0 -68.5 28.5t-68.5 28.5q-38 0 -47 -57z" />
    <glyph glyph-name="Imacron" unicode="&#x12a;" horiz-adv-x="170" 
d="M63 0v714h44v-714h-44zM206 828h-242v33h242v-33z" />
    <glyph glyph-name="imacron" unicode="&#x12b;" horiz-adv-x="168" 
d="M103 0h-38v514h38v-514zM205 638h-242v33h242v-33z" />
    <glyph glyph-name="Ibreve" unicode="&#x12c;" horiz-adv-x="170" 
d="M63 0v714h44v-714h-44zM188 910h33q-6 -49 -43.5 -84.5t-87.5 -35.5q-58 0 -95.5 32t-44.5 88h33q21 -87 106 -87q39 0 65.5 24t33.5 63z" />
    <glyph glyph-name="ibreve" unicode="&#x12d;" horiz-adv-x="168" 
d="M103 0h-38v514h38v-514zM187 720h33q-6 -49 -43.5 -84.5t-87.5 -35.5q-58 0 -95.5 32t-44.5 88h33q21 -87 106 -87q39 0 65.5 24t33.5 63z" />
    <glyph glyph-name="Iogonek" unicode="&#x12e;" horiz-adv-x="170" 
d="M63 0v714h44v-714q-72 -75 -72 -121q0 -19 11 -30.5t27 -11.5q30 0 53 35l23 -8q-25 -60 -80 -60q-34 0 -55 17.5t-21 50.5q0 58 90 128h-20z" />
    <glyph glyph-name="iogonek" unicode="&#x12f;" horiz-adv-x="168" 
d="M103 611h-38v103h38v-103zM103 0q-69 -76 -69 -121q0 -19 11 -30.5t27 -11.5q30 0 53 35l23 -8q-25 -60 -80 -60q-34 0 -55 17.5t-21 50.5q0 57 87 128h-14v514h38v-514z" />
    <glyph glyph-name="Idotaccent" unicode="&#x130;" horiz-adv-x="170" 
d="M63 0v714h44v-714h-44zM107 793h-44v103h44v-103z" />
    <glyph glyph-name="dotlessi" unicode="&#x131;" horiz-adv-x="168" 
d="M103 0h-38v514h38v-514z" />
    <glyph glyph-name="Jcircumflex" unicode="&#x134;" horiz-adv-x="481" 
d="M217 21q26 0 47 4t36.5 10t27.5 18t19.5 21t13 26.5t8 28.5t4 32t1.5 31.5v32.5v12v477h44v-492q0 -27 -0.5 -40.5t-4 -43t-10 -46.5t-21 -40.5t-34.5 -36.5t-52.5 -22.5t-73.5 -9.5q-55 0 -94.5 16t-60 38t-31.5 58.5t-13.5 64t-2.5 67.5h44q-3 -44 1.5 -77.5
t19.5 -64.5t48.5 -47.5t83.5 -16.5zM374 920h40l116 -140h-38l-98 115l-97 -115h-38z" />
    <glyph glyph-name="jcircumflex" unicode="&#x135;" horiz-adv-x="168" 
d="M65 514h38v-569q0 -60 -22 -94.5t-83 -34.5h-16q-11 0 -16 1v33q14 -2 25 -2q41 0 57.5 21.5t16.5 78.5v566zM62 730h40l116 -140h-38l-98 115l-97 -115h-38z" />
    <glyph glyph-name="Kcommaaccent" unicode="&#x136;" horiz-adv-x="613" 
d="M63 0v714h44v-411l449 411h57l-326 -297l346 -417h-55l-323 387l-148 -135v-252h-44zM295 -196v20q27 6 31 33h-25v93h57v-80q0 -61 -63 -66z" />
    <glyph glyph-name="kcommaaccent" unicode="&#x137;" horiz-adv-x="463" 
d="M58 0v714h38v-473l317 273h55l-225 -192l241 -322h-52l-219 293l-117 -99v-194h-38zM225 -196v20q27 6 31 33h-25v93h57v-80q0 -61 -63 -66z" />
    <glyph glyph-name="kgreenlandic" unicode="&#x138;" horiz-adv-x="463" 
d="M56 0v514h38v-281l319 281h55l-227 -200l243 -314h-52l-221 285l-117 -99v-186h-38z" />
    <glyph glyph-name="Lacute" unicode="&#x139;" horiz-adv-x="500" 
d="M63 0v714h44v-676h405v-38h-449zM69 780l120 140h51l-134 -140h-37z" />
    <glyph glyph-name="lacute" unicode="&#x13a;" horiz-adv-x="168" 
d="M65 714h38v-714h-38v714zM59 780l120 140h51l-134 -140h-37z" />
    <glyph glyph-name="Lcommaaccent" unicode="&#x13b;" horiz-adv-x="500" 
d="M63 0v714h44v-676h405v-38h-449zM246 -196v20q27 6 31 33h-25v93h57v-80q0 -61 -63 -66z" />
    <glyph glyph-name="lcommaaccent" unicode="&#x13c;" horiz-adv-x="168" 
d="M65 714h38v-714h-38v714zM49 -196v20q27 6 31 33h-25v93h57v-80q0 -61 -63 -66z" />
    <glyph glyph-name="Lcaron" unicode="&#x13d;" horiz-adv-x="500" 
d="M63 0v714h44v-676h405v-38h-449zM214 574l65 140h51l-87 -140h-29z" />
    <glyph glyph-name="lcaron" unicode="&#x13e;" horiz-adv-x="168" 
d="M65 714h38v-714h-38v714zM144 574l65 140h51l-87 -140h-29z" />
    <glyph glyph-name="Ldot" unicode="&#x13f;" horiz-adv-x="500" 
d="M63 0v714h44v-676h405v-38h-449zM315 329h-44v103h44v-103z" />
    <glyph glyph-name="ldot" unicode="&#x140;" horiz-adv-x="248" 
d="M65 714h38v-714h-38v714zM222 329h-44v103h44v-103z" />
    <glyph glyph-name="Lslash" unicode="&#x141;" horiz-adv-x="500" 
d="M63 714h44v-383l235 143v-36l-235 -142v-258h405v-38h-449v269l-85 -53v38l85 51v409z" />
    <glyph glyph-name="lslash" unicode="&#x142;" horiz-adv-x="168" 
d="M65 398v316h38v-286l70 54v-35l-70 -54v-393h-38v363l-70 -54v35z" />
    <glyph glyph-name="Nacute" unicode="&#x143;" horiz-adv-x="678" 
d="M63 0v714h55l451 -655h2v655h44v-714h-52l-454 660h-2v-660h-44zM308 780l120 140h51l-134 -140h-37z" />
    <glyph glyph-name="nacute" unicode="&#x144;" 
d="M56 0v514h38v-110h2q20 57 71 89.5t113 32.5q43 0 76 -10.5t52 -30t31 -39t17 -47.5t6 -43.5t1 -37.5v-318h-38v325q0 168 -146 168q-86 0 -135.5 -59.5t-49.5 -155.5v-278h-38zM224 590l120 140h51l-134 -140h-37z" />
    <glyph glyph-name="Ncommaaccent" unicode="&#x145;" horiz-adv-x="678" 
d="M63 0v714h55l451 -655h2v655h44v-714h-52l-454 660h-2v-660h-44zM302 -196v20q27 6 31 33h-25v93h57v-80q0 -61 -63 -66z" />
    <glyph glyph-name="ncommaaccent" unicode="&#x146;" 
d="M56 0v514h38v-110h2q20 57 71 89.5t113 32.5q43 0 76 -10.5t52 -30t31 -39t17 -47.5t6 -43.5t1 -37.5v-318h-38v325q0 168 -146 168q-86 0 -135.5 -59.5t-49.5 -155.5v-278h-38zM225 -196v20q27 6 31 33h-25v93h57v-80q0 -61 -63 -66z" />
    <glyph glyph-name="Ncaron" unicode="&#x147;" horiz-adv-x="678" 
d="M63 0v714h55l451 -655h2v655h44v-714h-52l-454 660h-2v-660h-44zM364 780h-40l-115 140h38l97 -115l98 115h38z" />
    <glyph glyph-name="ncaron" unicode="&#x148;" 
d="M56 0v514h38v-110h2q20 57 71 89.5t113 32.5q43 0 76 -10.5t52 -30t31 -39t17 -47.5t6 -43.5t1 -37.5v-318h-38v325q0 168 -146 168q-86 0 -135.5 -59.5t-49.5 -155.5v-278h-38zM280 590h-40l-115 140h38l97 -115l98 115h38z" />
    <glyph glyph-name="Eng" unicode="&#x14a;" horiz-adv-x="678" 
d="M571 -29v18l-462 671h-2v-660h-44v714h55l451 -655h2v655h44v-734q0 -90 -36.5 -127t-123.5 -37q-14 0 -46 2v39q21 -3 39 -3q67 0 95 25t28 92z" />
    <glyph glyph-name="eng" unicode="&#x14b;" 
d="M425 -41v366q0 168 -146 168q-86 0 -135.5 -59.5t-49.5 -155.5v-278h-38v514h38v-110h2q20 57 71 89.5t113 32.5q43 0 76 -10.5t52 -30t31 -39t17 -47.5t6 -43.5t1 -37.5v-353q0 -80 -31 -114.5t-107 -34.5q-13 0 -41 2v34q19 -3 37 -3q59 0 81.5 23.5t22.5 86.5z" />
    <glyph glyph-name="Omacron" unicode="&#x14c;" horiz-adv-x="741" 
d="M710 357q0 -161 -91.5 -267.5t-247.5 -106.5t-248 106t-92 268t92 268t248 106t247.5 -106.5t91.5 -267.5zM75 357q0 -143 80 -239.5t216 -96.5q135 0 215 96.5t80 239.5t-80 239.5t-215 96.5q-136 0 -216 -96.5t-80 -239.5zM492 828h-242v33h242v-33z" />
    <glyph glyph-name="omacron" unicode="&#x14d;" horiz-adv-x="537" 
d="M32 257q0 115 63 192t173 77t173 -77t63 -192t-63 -192t-173 -77t-173 77t-63 192zM70 257q0 -98 53 -167t145 -69t145 69t53 167t-53 167t-145 69t-145 -69t-53 -167zM389 638h-242v33h242v-33z" />
    <glyph glyph-name="Obreve" unicode="&#x14e;" horiz-adv-x="741" 
d="M710 357q0 -161 -91.5 -267.5t-247.5 -106.5t-248 106t-92 268t92 268t248 106t247.5 -106.5t91.5 -267.5zM75 357q0 -143 80 -239.5t216 -96.5q135 0 215 96.5t80 239.5t-80 239.5t-215 96.5q-136 0 -216 -96.5t-80 -239.5zM474 910h33q-6 -49 -43.5 -84.5t-87.5 -35.5
q-58 0 -95.5 32t-44.5 88h33q21 -87 106 -87q39 0 65.5 24t33.5 63z" />
    <glyph glyph-name="obreve" unicode="&#x14f;" horiz-adv-x="537" 
d="M32 257q0 115 63 192t173 77t173 -77t63 -192t-63 -192t-173 -77t-173 77t-63 192zM70 257q0 -98 53 -167t145 -69t145 69t53 167t-53 167t-145 69t-145 -69t-53 -167zM371 720h33q-6 -49 -43.5 -84.5t-87.5 -35.5q-58 0 -95.5 32t-44.5 88h33q21 -87 106 -87
q39 0 65.5 24t33.5 63z" />
    <glyph glyph-name="Ohungarumlaut" unicode="&#x150;" horiz-adv-x="741" 
d="M710 357q0 -161 -91.5 -267.5t-247.5 -106.5t-248 106t-92 268t92 268t248 106t247.5 -106.5t91.5 -267.5zM75 357q0 -143 80 -239.5t216 -96.5q135 0 215 96.5t80 239.5t-80 239.5t-215 96.5q-136 0 -216 -96.5t-80 -239.5zM460 780h-37l120 140h51zM302 780h-37
l120 140h51z" />
    <glyph glyph-name="ohungarumlaut" unicode="&#x151;" horiz-adv-x="537" 
d="M32 257q0 115 63 192t173 77t173 -77t63 -192t-63 -192t-173 -77t-173 77t-63 192zM70 257q0 -98 53 -167t145 -69t145 69t53 167t-53 167t-145 69t-145 -69t-53 -167zM357 590h-37l120 140h51zM199 590h-37l120 140h51z" />
    <glyph glyph-name="OE" unicode="&#x152;" horiz-adv-x="1056" 
d="M617 676v-286h378v-38h-378v-314h424v-38h-468v66h-2q-27 -35 -82 -59t-129 -24q-154 0 -241.5 104.5t-87.5 266.5q0 103 38 187.5t116 137t183 52.5q58 0 113 -21.5t92 -61.5v66h466v-38h-422zM573 127v451q0 18 -18.5 38.5t-38.5 32.5q-65 44 -144 44
q-140 0 -218.5 -98t-78.5 -241q0 -144 74 -238.5t214 -94.5q76 0 126 27q28 14 56 36.5t28 42.5z" />
    <glyph glyph-name="oe" unicode="&#x153;" horiz-adv-x="889" 
d="M857 252h-393q-7 -96 39.5 -163.5t141.5 -67.5q69 0 111 39.5t59 108.5h38q-19 -85 -71.5 -133t-136.5 -48q-81 0 -133.5 39.5t-66.5 111.5h-2q-41 -151 -192 -151q-113 0 -166 74.5t-53 187.5q0 119 56 197.5t166 78.5q75 0 124.5 -40t65.5 -112h2q41 152 199 152
q110 0 164 -80t48 -194zM464 285h355q0 87 -45.5 147.5t-128.5 60.5q-88 0 -135.5 -61t-45.5 -147zM252 21q50 0 86 20.5t54 56t26 72.5t8 80q0 67 -15 119t-55.5 88t-102.5 36q-50 0 -87 -21.5t-57 -58.5t-29.5 -77.5t-9.5 -85.5q0 -98 46 -163.5t136 -65.5z" />
    <glyph glyph-name="Racute" unicode="&#x154;" horiz-adv-x="630" 
d="M63 0v714h298q103 0 164.5 -43.5t61.5 -140.5q0 -73 -40.5 -122t-112.5 -61v-2q47 -6 77 -25t43.5 -51.5t17.5 -61.5t4 -71q0 -39 0.5 -56t5.5 -42t15 -38h-49q-12 22 -15.5 58t-1.5 70.5t-3 71t-18.5 63.5t-51 44.5t-97.5 17.5h-254v-325h-44zM107 363h254
q83 0 132.5 40.5t49.5 123.5q0 76 -51.5 112.5t-130.5 36.5h-254v-313zM261 780l120 140h51l-134 -140h-37z" />
    <glyph glyph-name="racute" unicode="&#x155;" horiz-adv-x="278" 
d="M94 514v-114h3q14 51 71 85t126 32v-38q-79 10 -142 -50q-30 -32 -43 -62.5t-15 -85.5v-281h-38v514h38zM136 590l120 140h51l-134 -140h-37z" />
    <glyph glyph-name="Rcommaaccent" unicode="&#x156;" horiz-adv-x="630" 
d="M63 0v714h298q103 0 164.5 -43.5t61.5 -140.5q0 -73 -40.5 -122t-112.5 -61v-2q47 -6 77 -25t43.5 -51.5t17.5 -61.5t4 -71q0 -39 0.5 -56t5.5 -42t15 -38h-49q-12 22 -15.5 58t-1.5 70.5t-3 71t-18.5 63.5t-51 44.5t-97.5 17.5h-254v-325h-44zM107 363h254
q83 0 132.5 40.5t49.5 123.5q0 76 -51.5 112.5t-130.5 36.5h-254v-313zM286 -196v20q27 6 31 33h-25v93h57v-80q0 -61 -63 -66z" />
    <glyph glyph-name="rcommaaccent" unicode="&#x157;" horiz-adv-x="278" 
d="M94 514v-114h3q14 51 71 85t126 32v-38q-79 10 -142 -50q-30 -32 -43 -62.5t-15 -85.5v-281h-38v514h38zM40 -196v20q27 6 31 33h-25v93h57v-80q0 -61 -63 -66z" />
    <glyph glyph-name="Rcaron" unicode="&#x158;" horiz-adv-x="630" 
d="M63 0v714h298q103 0 164.5 -43.5t61.5 -140.5q0 -73 -40.5 -122t-112.5 -61v-2q47 -6 77 -25t43.5 -51.5t17.5 -61.5t4 -71q0 -39 0.5 -56t5.5 -42t15 -38h-49q-12 22 -15.5 58t-1.5 70.5t-3 71t-18.5 63.5t-51 44.5t-97.5 17.5h-254v-325h-44zM107 363h254
q83 0 132.5 40.5t49.5 123.5q0 76 -51.5 112.5t-130.5 36.5h-254v-313zM317 780h-40l-115 140h38l97 -115l98 115h38z" />
    <glyph glyph-name="rcaron" unicode="&#x159;" horiz-adv-x="278" 
d="M94 514v-114h3q14 51 71 85t126 32v-38q-79 10 -142 -50q-30 -32 -43 -62.5t-15 -85.5v-281h-38v514h38zM197 590h-40l-115 140h38l97 -115l98 115h38z" />
    <glyph glyph-name="Sacute" unicode="&#x15a;" horiz-adv-x="630" 
d="M573 510h-44q-4 89 -65.5 136t-163.5 47q-33 0 -65 -7.5t-62.5 -24t-49.5 -47.5t-19 -73q0 -32 13 -56.5t34.5 -40t52 -27t62 -19t69.5 -14.5q8 -1 12 -2q43 -9 73 -16.5t65 -23t56 -35t35.5 -51.5t14.5 -72q0 -53 -23.5 -93.5t-61.5 -63t-80 -33.5t-86 -11
q-136 0 -219.5 61.5t-81.5 191.5h44q-4 -75 32 -124.5t93 -70t132 -20.5q35 0 69 8.5t66 26t52 51t20 77.5q0 25 -8 46t-18.5 35.5t-32 27.5t-37.5 20t-47 15.5t-48 12l-53 10.5q-44 9 -72.5 16t-64.5 22t-56.5 33.5t-35 49t-14.5 69.5q0 95 72 142.5t168 47.5
q119 0 193 -54.5t80 -166.5zM283 780l120 140h51l-134 -140h-37z" />
    <glyph glyph-name="sacute" unicode="&#x15b;" horiz-adv-x="481" 
d="M36 171h38q4 -70 51.5 -110t118.5 -40q28 0 54 5t52 16t41.5 33.5t15.5 54.5q0 48 -36.5 73.5t-88.5 35t-103.5 21t-88 44t-36.5 90.5q0 69 55 100.5t131 31.5q86 0 138 -40t52 -124h-38q0 66 -41.5 98.5t-110.5 32.5q-60 0 -104 -24.5t-44 -74.5q0 -14 2.5 -25t10 -20.5
l13 -16.5t19 -13t21 -10t25 -9t25 -6.5t28 -6.5t27.5 -6q91 -17 136.5 -47.5t45.5 -103.5q0 -40 -18.5 -69t-49 -44t-63.5 -22t-70 -7q-91 0 -148.5 48t-59.5 135zM207 590l120 140h51l-134 -140h-37z" />
    <glyph glyph-name="Scircumflex" unicode="&#x15c;" horiz-adv-x="630" 
d="M573 510h-44q-4 89 -65.5 136t-163.5 47q-33 0 -65 -7.5t-62.5 -24t-49.5 -47.5t-19 -73q0 -32 13 -56.5t34.5 -40t52 -27t62 -19t69.5 -14.5q8 -1 12 -2q43 -9 73 -16.5t65 -23t56 -35t35.5 -51.5t14.5 -72q0 -53 -23.5 -93.5t-61.5 -63t-80 -33.5t-86 -11
q-136 0 -219.5 61.5t-81.5 191.5h44q-4 -75 32 -124.5t93 -70t132 -20.5q35 0 69 8.5t66 26t52 51t20 77.5q0 25 -8 46t-18.5 35.5t-32 27.5t-37.5 20t-47 15.5t-48 12l-53 10.5q-44 9 -72.5 16t-64.5 22t-56.5 33.5t-35 49t-14.5 69.5q0 95 72 142.5t168 47.5
q119 0 193 -54.5t80 -166.5zM299 920h40l116 -140h-38l-98 115l-97 -115h-38z" />
    <glyph glyph-name="scircumflex" unicode="&#x15d;" horiz-adv-x="481" 
d="M36 171h38q4 -70 51.5 -110t118.5 -40q28 0 54 5t52 16t41.5 33.5t15.5 54.5q0 48 -36.5 73.5t-88.5 35t-103.5 21t-88 44t-36.5 90.5q0 69 55 100.5t131 31.5q86 0 138 -40t52 -124h-38q0 66 -41.5 98.5t-110.5 32.5q-60 0 -104 -24.5t-44 -74.5q0 -14 2.5 -25t10 -20.5
l13 -16.5t19 -13t21 -10t25 -9t25 -6.5t28 -6.5t27.5 -6q91 -17 136.5 -47.5t45.5 -103.5q0 -40 -18.5 -69t-49 -44t-63.5 -22t-70 -7q-91 0 -148.5 48t-59.5 135zM223 730h40l116 -140h-38l-98 115l-97 -115h-38z" />
    <glyph glyph-name="Scedilla" unicode="&#x15e;" horiz-adv-x="630" 
d="M573 510h-44q-4 89 -65.5 136t-163.5 47q-33 0 -65 -7.5t-62.5 -24t-49.5 -47.5t-19 -73q0 -32 13 -56.5t34.5 -40t52 -27t62 -19t69.5 -14.5q8 -1 12 -2q43 -9 73 -16.5t65 -23t56 -35t35.5 -51.5t14.5 -72q0 -53 -23.5 -93.5t-61.5 -63t-80 -33.5t-86 -11q-15 0 -22 1
l-33 -40l1 -1q17 7 38 7q32 0 53 -17.5t21 -49.5q0 -38 -27 -58.5t-71 -20.5q-50 0 -92 25l11 24q42 -22 80 -22q28 0 44.5 13t16.5 37q0 19 -14.5 31t-37.5 12t-49 -12l-16 13l45 61q-115 10 -183 71.5t-66 178.5h44q-4 -75 32 -124.5t93 -70t132 -20.5q35 0 69 8.5t66 26
t52 51t20 77.5q0 25 -8 46t-18.5 35.5t-32 27.5t-37.5 20t-47 15.5t-48 12l-53 10.5q-44 9 -72.5 16t-64.5 22t-56.5 33.5t-35 49t-14.5 69.5q0 95 72 142.5t168 47.5q119 0 193 -54.5t80 -166.5z" />
    <glyph glyph-name="scedilla" unicode="&#x15f;" horiz-adv-x="481" 
d="M36 171h38q4 -70 51.5 -110t118.5 -40q28 0 54 5t52 16t41.5 33.5t15.5 54.5q0 48 -36.5 73.5t-88.5 35t-103.5 21t-88 44t-36.5 90.5q0 69 55 100.5t131 31.5q86 0 138 -40t52 -124h-38q0 66 -41.5 98.5t-110.5 32.5q-60 0 -104 -24.5t-44 -74.5q0 -14 2.5 -25t10 -20.5
l13 -16.5t19 -13t21 -10t25 -9t25 -6.5t28 -6.5t27.5 -6q91 -17 136.5 -47.5t45.5 -103.5q0 -51 -31.5 -84t-72 -45t-90.5 -13l-37 -44l1 -1q17 7 38 7q32 0 53 -17.5t21 -49.5q0 -38 -27 -58.5t-71 -20.5q-50 0 -92 25l11 24q42 -22 80 -22q28 0 44.5 13t16.5 37
q0 19 -14.5 31t-37.5 12t-49 -12l-16 13l47 64q-81 6 -131 53t-52 129z" />
    <glyph glyph-name="Scaron" unicode="&#x160;" horiz-adv-x="630" 
d="M573 510h-44q-4 89 -65.5 136t-163.5 47q-33 0 -65 -7.5t-62.5 -24t-49.5 -47.5t-19 -73q0 -32 13 -56.5t34.5 -40t52 -27t62 -19t69.5 -14.5q8 -1 12 -2q43 -9 73 -16.5t65 -23t56 -35t35.5 -51.5t14.5 -72q0 -53 -23.5 -93.5t-61.5 -63t-80 -33.5t-86 -11
q-136 0 -219.5 61.5t-81.5 191.5h44q-4 -75 32 -124.5t93 -70t132 -20.5q35 0 69 8.5t66 26t52 51t20 77.5q0 25 -8 46t-18.5 35.5t-32 27.5t-37.5 20t-47 15.5t-48 12l-53 10.5q-44 9 -72.5 16t-64.5 22t-56.5 33.5t-35 49t-14.5 69.5q0 95 72 142.5t168 47.5
q119 0 193 -54.5t80 -166.5zM339 780h-40l-115 140h38l97 -115l98 115h38z" />
    <glyph glyph-name="scaron" unicode="&#x161;" horiz-adv-x="481" 
d="M36 171h38q4 -70 51.5 -110t118.5 -40q28 0 54 5t52 16t41.5 33.5t15.5 54.5q0 48 -36.5 73.5t-88.5 35t-103.5 21t-88 44t-36.5 90.5q0 69 55 100.5t131 31.5q86 0 138 -40t52 -124h-38q0 66 -41.5 98.5t-110.5 32.5q-60 0 -104 -24.5t-44 -74.5q0 -14 2.5 -25t10 -20.5
l13 -16.5t19 -13t21 -10t25 -9t25 -6.5t28 -6.5t27.5 -6q91 -17 136.5 -47.5t45.5 -103.5q0 -40 -18.5 -69t-49 -44t-63.5 -22t-70 -7q-91 0 -148.5 48t-59.5 135zM263 590h-40l-115 140h38l97 -115l98 115h38z" />
    <glyph glyph-name="Tcommaaccent" unicode="&#x162;" 
d="M237 676h-251v38h547v-38h-252v-676h-44v676zM224 -196v20q27 6 31 33h-25v93h57v-80q0 -61 -63 -66z" />
    <glyph glyph-name="tcommaaccent" unicode="&#x163;" horiz-adv-x="259" 
d="M245 514v-33h-112v-359q0 -58 25.5 -74.5t85.5 -14.5v-33q-33 -2 -57 1t-47.5 14.5t-35 38t-9.5 68.5v359h-95v33h95v160h38v-160h112zM128 -196v20q27 6 31 33h-25v93h57v-80q0 -61 -63 -66z" />
    <glyph glyph-name="Tcaron" unicode="&#x164;" 
d="M237 676h-251v38h547v-38h-252v-676h-44v676zM280 780h-40l-115 140h38l97 -115l98 115h38z" />
    <glyph glyph-name="tcaron" unicode="&#x165;" horiz-adv-x="259" 
d="M208 574l65 140h51l-87 -140h-29zM245 514v-33h-112v-359q0 -58 25.5 -74.5t85.5 -14.5v-33q-33 -2 -57 1t-47.5 14.5t-35 38t-9.5 68.5v359h-95v33h95v160h38v-160h112z" />
    <glyph glyph-name="Tbar" unicode="&#x166;" 
d="M237 676h-251v38h547v-38h-252v-186h169v-33h-169v-457h-44v457h-169v33h169v186z" />
    <glyph glyph-name="tbar" unicode="&#x167;" horiz-adv-x="259" 
d="M8 354h87v127h-95v33h95v160h38v-160h112v-33h-112v-127h102v-31h-102v-201q0 -58 25.5 -74.5t85.5 -14.5v-33q-33 -2 -57 1t-47.5 14.5t-35 38t-9.5 68.5v201h-87v31z" />
    <glyph glyph-name="Utilde" unicode="&#x168;" horiz-adv-x="672" 
d="M63 714h44v-428q0 -32 3 -61t16.5 -68.5t36 -67.5t66 -48t102.5 -20q126 0 180 68t54 197v428h44v-428q0 -303 -278 -303q-268 0 -268 303v428zM220 799h-29q2 36 23.5 63t54.5 27q26 0 72.5 -28.5t64.5 -28.5q19 0 30.5 17t14.5 40h29q-4 -38 -22.5 -64t-53.5 -26
q-23 0 -68.5 28.5t-68.5 28.5q-38 0 -47 -57z" />
    <glyph glyph-name="utilde" unicode="&#x169;" 
d="M463 514v-514h-38v110h-2q-20 -57 -71 -89.5t-113 -32.5q-43 0 -76 10.5t-52 30t-31 39t-17 47.5t-6 43.5t-1 37.5v318h38v-325q0 -168 146 -168q86 0 135.5 59.5t49.5 155.5v278h38zM143 609h-29q2 36 23.5 63t54.5 27q26 0 72.5 -28.5t64.5 -28.5q19 0 30.5 17t14.5 40
h29q-4 -38 -22.5 -64t-53.5 -26q-23 0 -68.5 28.5t-68.5 28.5q-38 0 -47 -57z" />
    <glyph glyph-name="Umacron" unicode="&#x16a;" horiz-adv-x="672" 
d="M63 714h44v-428q0 -32 3 -61t16.5 -68.5t36 -67.5t66 -48t102.5 -20q126 0 180 68t54 197v428h44v-428q0 -303 -278 -303q-268 0 -268 303v428zM457 828h-242v33h242v-33z" />
    <glyph glyph-name="umacron" unicode="&#x16b;" 
d="M463 514v-514h-38v110h-2q-20 -57 -71 -89.5t-113 -32.5q-43 0 -76 10.5t-52 30t-31 39t-17 47.5t-6 43.5t-1 37.5v318h38v-325q0 -168 146 -168q86 0 135.5 59.5t49.5 155.5v278h38zM380 638h-242v33h242v-33z" />
    <glyph glyph-name="Ubreve" unicode="&#x16c;" horiz-adv-x="672" 
d="M63 714h44v-428q0 -32 3 -61t16.5 -68.5t36 -67.5t66 -48t102.5 -20q126 0 180 68t54 197v428h44v-428q0 -303 -278 -303q-268 0 -268 303v428zM439 910h33q-6 -49 -43.5 -84.5t-87.5 -35.5q-58 0 -95.5 32t-44.5 88h33q21 -87 106 -87q39 0 65.5 24t33.5 63z" />
    <glyph glyph-name="ubreve" unicode="&#x16d;" 
d="M463 514v-514h-38v110h-2q-20 -57 -71 -89.5t-113 -32.5q-43 0 -76 10.5t-52 30t-31 39t-17 47.5t-6 43.5t-1 37.5v318h38v-325q0 -168 146 -168q86 0 135.5 59.5t49.5 155.5v278h38zM362 720h33q-6 -49 -43.5 -84.5t-87.5 -35.5q-58 0 -95.5 32t-44.5 88h33
q21 -87 106 -87q39 0 65.5 24t33.5 63z" />
    <glyph glyph-name="Uring" unicode="&#x16e;" horiz-adv-x="672" 
d="M63 714h44v-428q0 -32 3 -61t16.5 -68.5t36 -67.5t66 -48t102.5 -20q126 0 180 68t54 197v428h44v-428q0 -303 -278 -303q-268 0 -268 303v428zM237 850q0 42 28.5 70.5t70.5 28.5t70.5 -28.5t28.5 -70.5t-28.5 -70.5t-70.5 -28.5t-70.5 28.5t-28.5 70.5zM264 850
q0 -30 21 -51t51 -21t51 21t21 51t-21 51t-51 21t-51 -21t-21 -51z" />
    <glyph glyph-name="uring" unicode="&#x16f;" 
d="M463 514v-514h-38v110h-2q-20 -57 -71 -89.5t-113 -32.5q-43 0 -76 10.5t-52 30t-31 39t-17 47.5t-6 43.5t-1 37.5v318h38v-325q0 -168 146 -168q86 0 135.5 59.5t49.5 155.5v278h38zM160 670q0 42 28.5 70.5t70.5 28.5t70.5 -28.5t28.5 -70.5t-28.5 -70.5t-70.5 -28.5
t-70.5 28.5t-28.5 70.5zM187 670q0 -30 21 -51t51 -21t51 21t21 51t-21 51t-51 21t-51 -21t-21 -51z" />
    <glyph glyph-name="Uhungarumlaut" unicode="&#x170;" horiz-adv-x="672" 
d="M63 714h44v-428q0 -32 3 -61t16.5 -68.5t36 -67.5t66 -48t102.5 -20q126 0 180 68t54 197v428h44v-428q0 -303 -278 -303q-268 0 -268 303v428zM425 780h-37l120 140h51zM267 780h-37l120 140h51z" />
    <glyph glyph-name="uhungarumlaut" unicode="&#x171;" 
d="M463 514v-514h-38v110h-2q-20 -57 -71 -89.5t-113 -32.5q-43 0 -76 10.5t-52 30t-31 39t-17 47.5t-6 43.5t-1 37.5v318h38v-325q0 -168 146 -168q86 0 135.5 59.5t49.5 155.5v278h38zM348 590h-37l120 140h51zM190 590h-37l120 140h51z" />
    <glyph glyph-name="Uogonek" unicode="&#x172;" horiz-adv-x="672" 
d="M63 714h44v-428q0 -32 3 -61t16.5 -68.5t36 -67.5t66 -48t102.5 -20q126 0 180 68t54 197v428h44v-428q0 -286 -248 -302q-64 -60 -64 -105q0 -19 12.5 -30.5t30.5 -11.5q35 0 58 35l23 -8q-25 -60 -86 -60q-38 0 -60 17t-22 51q0 52 78 111q-268 0 -268 303v428z" />
    <glyph glyph-name="uogonek" unicode="&#x173;" 
d="M425 -1v111h-2q-20 -57 -71 -89.5t-113 -32.5q-43 0 -76 10.5t-52 30t-31 39t-17 47.5t-6 43.5t-1 37.5v318h38v-325q0 -168 146 -168q86 0 135.5 59.5t49.5 155.5v278h38v-514h-11q-82 -72 -82 -121q0 -19 12.5 -30.5t30.5 -11.5q35 0 58 35l23 -8q-25 -60 -86 -60
q-38 0 -60 17t-22 51q0 57 99 127z" />
    <glyph glyph-name="Wcircumflex" unicode="&#x174;" horiz-adv-x="889" 
d="M200 0l-206 714h45l186 -667h2l189 667h55l192 -667h2l183 667h47l-205 -714h-50l-196 676h-2l-193 -676h-49zM423 920h40l116 -140h-38l-98 115l-97 -115h-38z" />
    <glyph glyph-name="wcircumflex" unicode="&#x175;" horiz-adv-x="704" 
d="M39 514l145 -470h2l140 470h51l141 -470h2l144 470h42l-165 -514h-47l-141 466h-2l-142 -466h-48l-163 514h41zM332 730h40l116 -140h-38l-98 115l-97 -115h-38z" />
    <glyph glyph-name="Ycircumflex" unicode="&#x176;" horiz-adv-x="574" 
d="M287 336l259 378h49l-287 -415v-299h-44v299l-285 415h50zM268 920h40l116 -140h-38l-98 115l-97 -115h-38z" />
    <glyph glyph-name="ycircumflex" unicode="&#x177;" horiz-adv-x="444" 
d="M209 3l-215 511h45l191 -469l176 469h43l-220 -569q-36 -89 -60 -106q-19 -15 -44.5 -19t-75.5 -4v33q42 0 64.5 6.5t42.5 26.5q16 16 53 121zM209 730h40l116 -140h-38l-98 115l-97 -115h-38z" />
    <glyph glyph-name="Ydieresis" unicode="&#x178;" horiz-adv-x="574" 
d="M287 336l259 378h49l-287 -415v-299h-44v299l-285 415h50zM389 793h-44v103h44v-103zM231 793h-44v103h44v-103z" />
    <glyph glyph-name="Zacute" unicode="&#x179;" horiz-adv-x="537" 
d="M28 676v38h501v-38l-484 -638h493v-38h-539v38l482 638h-453zM237 780l120 140h51l-134 -140h-37z" />
    <glyph glyph-name="zacute" unicode="&#x17a;" horiz-adv-x="426" 
d="M55 33h362v-33h-408v36l345 445h-318v33h365v-36zM180 590l120 140h51l-134 -140h-37z" />
    <glyph glyph-name="Zdotaccent" unicode="&#x17b;" horiz-adv-x="537" 
d="M28 676v38h501v-38l-484 -638h493v-38h-539v38l482 638h-453zM295 793h-44v103h44v-103z" />
    <glyph glyph-name="zdotaccent" unicode="&#x17c;" horiz-adv-x="426" 
d="M55 33h362v-33h-408v36l345 445h-318v33h365v-36zM238 603h-44v103h44v-103z" />
    <glyph glyph-name="Zcaron" unicode="&#x17d;" horiz-adv-x="537" 
d="M28 676v38h501v-38l-484 -638h493v-38h-539v38l482 638h-453zM293 780h-40l-115 140h38l97 -115l98 115h38z" />
    <glyph glyph-name="zcaron" unicode="&#x17e;" horiz-adv-x="426" 
d="M55 33h362v-33h-408v36l345 445h-318v33h365v-36zM236 590h-40l-115 140h38l97 -115l98 115h38z" />
    <glyph glyph-name="florin" unicode="&#x192;" horiz-adv-x="556" 
d="M5 -178l7 37q28 -5 50 -5q79 0 105 138l79 404h-112l7 33h111l33 169q12 58 47.5 95.5t99.5 37.5q33 0 61 -6l-8 -38q-31 6 -54 6q-84 0 -105 -100l-32 -164h120l-5 -33h-121l-80 -409q-6 -30 -13 -52t-23 -53t-45 -48.5t-69 -17.5q-24 0 -53 6z" />
    <glyph glyph-name="Aringacute" unicode="&#x1fa;" horiz-adv-x="593" 
d="M266 855l81 94h51l-95 -94h-37zM382 759q0 -52 -48 -74l271 -685h-47l-90 229h-342l-91 -229h-47l276 687q-44 21 -44 72q0 34 23 57t58 23t58 -22.5t23 -57.5zM301 814q-24 0 -39.5 -15.5t-15.5 -39.5q0 -23 16 -39t39 -16q24 0 39.5 15.5t15.5 39.5q0 23 -16 39t-39 16
zM140 267h314l-153 406h-2z" />
    <glyph glyph-name="aringacute" unicode="&#x1fb;" horiz-adv-x="500" 
d="M397 75v27h-2q-19 -49 -69.5 -81.5t-121.5 -32.5q-172 0 -172 145q0 136 189 152l59 5q79 6 98.5 25.5t19.5 76.5q0 45 -35 73t-108 28q-70 0 -112 -35t-46 -102h-38q8 170 198 170q90 0 134 -35t44 -97v-299q0 -16 0.5 -23t3.5 -18t10.5 -16t19.5 -5q10 0 28 3v-32
q-15 -4 -31 -4q-41 0 -55 19t-14 56zM397 196v96q-21 -25 -106 -32l-64 -6q-33 -3 -57 -8.5t-49 -18t-38 -36.5t-13 -58q0 -55 35.5 -83.5t99.5 -28.5q49 0 86 16t56.5 37.5t31.5 48.5t15 44t3 29zM158 658q0 42 28.5 70.5t70.5 28.5t70.5 -28.5t28.5 -70.5t-28.5 -70.5
t-70.5 -28.5t-70.5 28.5t-28.5 70.5zM185 658q0 -30 21 -51t51 -21t51 21t21 51t-21 51t-51 21t-51 -21t-21 -51zM223 780l120 140h51l-134 -140h-37z" />
    <glyph glyph-name="AEacute" unicode="&#x1fc;" horiz-adv-x="870" 
d="M-9 0l373 714h490v-38h-379v-286h350v-38h-350v-314h380v-38h-424v254h-268l-132 -254h-40zM431 292v384h-47l-201 -384h248zM528 780l120 140h51l-134 -140h-37z" />
    <glyph glyph-name="aeacute" unicode="&#x1fd;" horiz-adv-x="889" 
d="M856 252h-411q-6 -98 43.5 -164.5t144.5 -66.5q73 0 120.5 39t58.5 111h38q-14 -86 -71.5 -134.5t-145.5 -48.5q-79 0 -133.5 38t-72.5 111h-2q-25 -70 -80 -109.5t-129 -39.5q-79 0 -131.5 36t-52.5 107q0 145 187 152q17 2 44.5 3.5l45.5 2.5t39 6t33 13t19.5 24.5
t5.5 40.5q0 62 -37 91t-113 29q-154 0 -164 -140h-38q6 87 59.5 130t142.5 43q170 0 180 -131h2q47 131 195 131q113 0 173 -79.5t50 -194.5zM444 285h374q2 86 -49 147t-136 61q-88 0 -135 -59t-54 -149zM406 201v88h-2q-5 -9 -17 -14.5t-33 -9t-39 -5t-50 -3.5t-50 -4
q-145 -9 -145 -122q0 -55 43 -82.5t103 -27.5q75 0 131.5 52.5t58.5 127.5zM437 590l120 140h51l-134 -140h-37z" />
    <glyph glyph-name="Oslashacute" unicode="&#x1fe;" horiz-adv-x="741" 
d="M34 16l79 86q-82 104 -82 255q0 162 92 268t248 106q141 0 232 -91l68 74l26 -24l-70 -76q83 -101 83 -257q0 -161 -91.5 -267.5t-247.5 -106.5q-147 0 -235 93l-76 -84zM143 134l432 475q-82 84 -204 84q-136 0 -216 -96.5t-80 -239.5q0 -132 68 -223zM598 582
l-433 -474q81 -87 206 -87q135 0 215 96.5t80 239.5q0 132 -68 225zM335 780l120 140h51l-134 -140h-37z" />
    <glyph glyph-name="oslashacute" unicode="&#x1ff;" horiz-adv-x="537" 
d="M513 490l-58 -62q49 -72 49 -171q0 -115 -63 -192t-173 -77q-102 0 -165 69l-54 -57l-24 23l57 61q-50 71 -50 173q0 115 63 192t173 77q103 0 166 -71l55 58zM109 112l299 316q-52 65 -140 65q-92 0 -145 -69t-53 -167q0 -87 39 -145zM428 400l-299 -316q53 -63 139 -63
q92 0 145 69t53 167q0 85 -38 143zM232 590l120 140h51l-134 -140h-37z" />
    <glyph glyph-name="Scommaaccent" unicode="&#x218;" horiz-adv-x="630" 
d="M573 510h-44q-4 89 -65.5 136t-163.5 47q-33 0 -65 -7.5t-62.5 -24t-49.5 -47.5t-19 -73q0 -32 13 -56.5t34.5 -40t52 -27t62 -19t69.5 -14.5q8 -1 12 -2q43 -9 73 -16.5t65 -23t56 -35t35.5 -51.5t14.5 -72q0 -53 -23.5 -93.5t-61.5 -63t-80 -33.5t-86 -11
q-136 0 -219.5 61.5t-81.5 191.5h44q-4 -75 32 -124.5t93 -70t132 -20.5q35 0 69 8.5t66 26t52 51t20 77.5q0 25 -8 46t-18.5 35.5t-32 27.5t-37.5 20t-47 15.5t-48 12l-53 10.5q-44 9 -72.5 16t-64.5 22t-56.5 33.5t-35 49t-14.5 69.5q0 95 72 142.5t168 47.5
q119 0 193 -54.5t80 -166.5zM286 -196v20q27 6 31 33h-25v93h57v-80q0 -61 -63 -66z" />
    <glyph glyph-name="scommaaccent" unicode="&#x219;" horiz-adv-x="481" 
d="M36 171h38q4 -70 51.5 -110t118.5 -40q28 0 54 5t52 16t41.5 33.5t15.5 54.5q0 48 -36.5 73.5t-88.5 35t-103.5 21t-88 44t-36.5 90.5q0 69 55 100.5t131 31.5q86 0 138 -40t52 -124h-38q0 66 -41.5 98.5t-110.5 32.5q-60 0 -104 -24.5t-44 -74.5q0 -14 2.5 -25t10 -20.5
l13 -16.5t19 -13t21 -10t25 -9t25 -6.5t28 -6.5t27.5 -6q91 -17 136.5 -47.5t45.5 -103.5q0 -40 -18.5 -69t-49 -44t-63.5 -22t-70 -7q-91 0 -148.5 48t-59.5 135zM215 -196v20q27 6 31 33h-25v93h57v-80q0 -61 -63 -66z" />
    <glyph glyph-name="uni021A" unicode="&#x21a;" 
d="M237 676h-251v38h547v-38h-252v-676h-44v676zM224 -196v20q27 6 31 33h-25v93h57v-80q0 -61 -63 -66z" />
    <glyph glyph-name="uni021B" unicode="&#x21b;" horiz-adv-x="259" 
d="M245 514v-33h-112v-359q0 -58 25.5 -74.5t85.5 -14.5v-33q-33 -2 -57 1t-47.5 14.5t-35 38t-9.5 68.5v359h-95v33h95v160h38v-160h112zM128 -196v20q27 6 31 33h-25v93h57v-80q0 -61 -63 -66z" />
    <glyph glyph-name="dotlessj" unicode="&#x237;" horiz-adv-x="168" 
d="M65 514h38v-569q0 -60 -22 -94.5t-83 -34.5h-16q-11 0 -16 1v33q14 -2 25 -2q41 0 57.5 21.5t16.5 78.5v566z" />
    <glyph glyph-name="circumflex" unicode="&#x2c6;" horiz-adv-x="167" 
d="M63 730h40l116 -140h-38l-98 115l-97 -115h-38z" />
    <glyph glyph-name="caron" unicode="&#x2c7;" horiz-adv-x="167" 
d="M103 590h-40l-115 140h38l97 -115l98 115h38z" />
    <glyph glyph-name="uni02C9" unicode="&#x2c9;" horiz-adv-x="167" 
d="M205 638h-242v33h242v-33z" />
    <glyph glyph-name="breve" unicode="&#x2d8;" horiz-adv-x="167" 
d="M186 720h33q-6 -49 -43.5 -84.5t-87.5 -35.5q-58 0 -95.5 32t-44.5 88h33q21 -87 106 -87q39 0 65.5 24t33.5 63z" />
    <glyph glyph-name="dotaccent" unicode="&#x2d9;" horiz-adv-x="167" 
d="M105 603h-44v103h44v-103z" />
    <glyph glyph-name="ring" unicode="&#x2da;" horiz-adv-x="167" 
d="M-16 670q0 42 28.5 70.5t70.5 28.5t70.5 -28.5t28.5 -70.5t-28.5 -70.5t-70.5 -28.5t-70.5 28.5t-28.5 70.5zM11 670q0 -30 21 -51t51 -21t51 21t21 51t-21 51t-51 21t-51 -21t-21 -51z" />
    <glyph glyph-name="ogonek" unicode="&#x2db;" horiz-adv-x="167" 
d="M108 0h24q-82 -72 -82 -121q0 -19 12.5 -30.5t30.5 -11.5q35 0 58 35l23 -8q-25 -60 -86 -60q-38 0 -60 17t-22 51q0 60 102 128z" />
    <glyph glyph-name="tilde" unicode="&#x2dc;" horiz-adv-x="167" 
d="M-32 609h-29q2 36 23.5 63t54.5 27q26 0 72.5 -28.5t64.5 -28.5q19 0 30.5 17t14.5 40h29q-4 -38 -22.5 -64t-53.5 -26q-23 0 -68.5 28.5t-68.5 28.5q-38 0 -47 -57z" />
    <glyph glyph-name="hungarumlaut" unicode="&#x2dd;" horiz-adv-x="167" 
d="M139 590h-37l120 140h51zM-19 590h-37l120 140h51z" />
    <glyph glyph-name="uni0374" unicode="&#x374;" horiz-adv-x="220" 
d="M178 730l-87 -163h-33l72 163h48z" />
    <glyph glyph-name="uni0375" unicode="&#x375;" horiz-adv-x="220" 
d="M30 -196l87 163h33l-72 -163h-48z" />
    <glyph glyph-name="uni037E" unicode="&#x37e;" horiz-adv-x="278" 
d="M113 514h51v-103h-51v103zM100 -126v33q34 15 34 93h-21v103h51v-103q0 -101 -64 -126z" />
    <glyph glyph-name="tonos" unicode="&#x384;" horiz-adv-x="230" 
d="M67 590l79 140h50l-91 -140h-38z" />
    <glyph glyph-name="dieresistonos" unicode="&#x385;" horiz-adv-x="167" 
d="M41 587l81 143h50l-93 -143h-38zM225 603h-44v103h44v-103zM26 603h-44v103h44v-103z" />
    <glyph glyph-name="Alphatonos" unicode="&#x386;" horiz-adv-x="603" 
d="M-2 0l287 714h48l282 -714h-47l-90 229h-342l-91 -229h-47zM150 267h314l-153 404h-2zM18 574l79 140h50l-91 -140h-38z" />
    <glyph glyph-name="anoteleia" unicode="&#x387;" horiz-adv-x="278" 
d="M113 514h51v-103h-51v103z" />
    <glyph glyph-name="Epsilontonos" unicode="&#x388;" horiz-adv-x="697" 
d="M8 574l79 140h50l-91 -140h-38zM200 0v714h480v-38h-436v-286h410v-38h-410v-314h441v-38h-485z" />
    <glyph glyph-name="Etatonos" unicode="&#x389;" horiz-adv-x="807" 
d="M200 0v714h44v-324h456v324h44v-714h-44v352h-456v-352h-44zM8 574l79 140h50l-91 -140h-38z" />
    <glyph glyph-name="Iotatonos" unicode="&#x38a;" horiz-adv-x="307" 
d="M8 574l79 140h50l-91 -140h-38zM200 0v714h44v-714h-44z" />
    <glyph glyph-name="Omicrontonos" unicode="&#x38c;" horiz-adv-x="830" 
d="M8 574l79 140h50l-91 -140h-38zM799 357q0 -161 -91.5 -267.5t-247.5 -106.5t-248 106t-92 268t92 268t248 106t247.5 -106.5t91.5 -267.5zM164 357q0 -143 80 -239.5t216 -96.5q135 0 215 96.5t80 239.5t-80 239.5t-215 96.5q-136 0 -216 -96.5t-80 -239.5z" />
    <glyph glyph-name="Upsilontonos" unicode="&#x38e;" horiz-adv-x="769" 
d="M8 574l79 140h50l-91 -140h-38zM482 336l259 378h49l-287 -415v-299h-44v299l-285 415h50z" />
    <glyph glyph-name="Omegatonos" unicode="&#x38f;" horiz-adv-x="830" 
d="M8 574l79 140h50l-91 -140h-38zM459 731q147 0 240 -100t93 -245q0 -221 -192 -345v-3h192v-38h-253v39q105 64 156.5 147t51.5 200q0 128 -80.5 217.5t-207.5 89.5t-207 -87t-80 -220q0 -117 51 -200.5t154 -146.5v-39h-249v38h185v3q-186 119 -186 345q0 150 93 247.5
t239 97.5z" />
    <glyph glyph-name="iotadieresistonos" unicode="&#x390;" horiz-adv-x="159" 
d="M93 514v-425q0 -15 0.5 -22.5t3.5 -18.5t11 -16t20 -5q10 0 28 3v-32q-15 -4 -31 -4q-41 0 -55 19t-14 56v445h37zM43 587l81 143h50l-93 -143h-38zM227 603h-44v103h44v-103zM28 603h-44v103h44v-103z" />
    <glyph glyph-name="Alpha" unicode="&#x391;" horiz-adv-x="593" 
d="M-12 0l287 714h48l282 -714h-47l-90 229h-342l-91 -229h-47zM140 267h314l-153 404h-2z" />
    <glyph glyph-name="Beta" unicode="&#x392;" horiz-adv-x="633" 
d="M63 0v714h286q118 0 171.5 -53t53.5 -132q0 -58 -38.5 -101t-100.5 -51l2 -2q7 1 24 -3t41 -16t45 -31t36 -51.5t15 -73.5q0 -96 -67.5 -148t-181.5 -52h-286zM107 390h242q88 0 134.5 39.5t46.5 107.5q0 73 -51 106t-130 33h-242v-286zM107 38h242q97 0 151 41.5
t54 120.5q0 44 -18.5 75.5t-50 47t-65 22.5t-71.5 7h-242v-314z" />
    <glyph glyph-name="Gamma" unicode="&#x393;" horiz-adv-x="485" 
d="M63 0v714h436v-38h-392v-676h-44z" />
    <glyph glyph-name="uni0394" unicode="&#x394;" horiz-adv-x="593" 
d="M605 0h-617l287 714h48zM299 671l-249 -633h492l-241 633h-2z" />
    <glyph glyph-name="Epsilon" unicode="&#x395;" horiz-adv-x="560" 
d="M63 0v714h480v-38h-436v-286h410v-38h-410v-314h441v-38h-485z" />
    <glyph glyph-name="Zeta" unicode="&#x396;" horiz-adv-x="530" 
d="M28 676v38h501v-38l-484 -638h493v-38h-539v38l482 638h-453z" />
    <glyph glyph-name="Eta" unicode="&#x397;" horiz-adv-x="670" 
d="M63 0v714h44v-324h456v324h44v-714h-44v352h-456v-352h-44z" />
    <glyph glyph-name="Theta" unicode="&#x398;" horiz-adv-x="729" 
d="M710 357q0 -161 -91.5 -267.5t-247.5 -106.5t-248 106t-92 268t92 268t248 106t247.5 -106.5t91.5 -267.5zM75 357q0 -143 80 -239.5t216 -96.5q135 0 215 96.5t80 239.5t-80 239.5t-215 96.5q-136 0 -216 -96.5t-80 -239.5zM194 342v38h344v-38h-344z" />
    <glyph glyph-name="Iota" unicode="&#x399;" horiz-adv-x="170" 
d="M63 0v714h44v-714h-44z" />
    <glyph glyph-name="Kappa" unicode="&#x39a;" horiz-adv-x="615" 
d="M63 0v714h44v-411l449 411h57l-326 -297l346 -417h-55l-323 387l-148 -135v-252h-44z" />
    <glyph glyph-name="Lambda" unicode="&#x39b;" horiz-adv-x="591" 
d="M552 0l-251 671h-2l-258 -671h-47l281 714h48l276 -714h-47z" />
    <glyph glyph-name="Mu" unicode="&#x39c;" horiz-adv-x="801" 
d="M63 0v714h63l279 -665h2l276 665h63v-714h-44v660h-2l-272 -660h-44l-275 660h-2v-660h-44z" />
    <glyph glyph-name="Nu" unicode="&#x39d;" horiz-adv-x="670" 
d="M63 0v714h55l451 -655h2v655h44v-714h-52l-454 660h-2v-660h-44z" />
    <glyph glyph-name="Xi" unicode="&#x39e;" horiz-adv-x="552" 
d="M58 676v38h441v-38h-441zM92 351v38h373v-38h-373zM48 0v38h461v-38h-461z" />
    <glyph glyph-name="Omicron" unicode="&#x39f;" horiz-adv-x="741" 
d="M710 357q0 -161 -91.5 -267.5t-247.5 -106.5t-248 106t-92 268t92 268t248 106t247.5 -106.5t91.5 -267.5zM75 357q0 -143 80 -239.5t216 -96.5q135 0 215 96.5t80 239.5t-80 239.5t-215 96.5q-136 0 -216 -96.5t-80 -239.5z" />
    <glyph glyph-name="Pi" unicode="&#x3a0;" horiz-adv-x="654" 
d="M64 0v714h532v-714h-45v676h-443v-676h-44z" />
    <glyph glyph-name="Rho" unicode="&#x3a1;" horiz-adv-x="596" 
d="M63 0v714h304q28 0 53 -4t54.5 -17t51 -34t35.5 -58.5t14 -86.5q0 -94 -58.5 -145t-165.5 -51h-244v-318h-44zM107 676v-320h251q89 0 131 47.5t42 111.5q0 24 -6.5 48t-23 51.5t-52 44.5t-85.5 17h-257z" />
    <glyph glyph-name="Sigma" unicode="&#x3a3;" horiz-adv-x="570" 
d="M548 0h-500v38l281 334l-270 304v38h472v-38h-422l271 -303l-284 -335h452v-38z" />
    <glyph glyph-name="Tau" unicode="&#x3a4;" horiz-adv-x="522" 
d="M237 676h-251v38h547v-38h-252v-676h-44v676z" />
    <glyph glyph-name="Upsilon" unicode="&#x3a5;" horiz-adv-x="574" 
d="M287 336l259 378h49l-287 -415v-299h-44v299l-285 415h50z" />
    <glyph glyph-name="Phi" unicode="&#x3a6;" horiz-adv-x="732" 
d="M343 744h45v-72q140 -5 226 -84.5t86 -215.5q0 -132 -87 -210.5t-225 -83.5v-78h-45v78q-141 5 -225.5 80.5t-84.5 209.5q0 133 87 216t223 88v72zM388 633v-516q120 5 194 71.5t74 183.5q0 118 -73.5 188t-194.5 73zM343 117v516q-119 -4 -192.5 -76t-73.5 -189
q0 -118 72.5 -182t193.5 -69z" />
    <glyph glyph-name="Chi" unicode="&#x3a7;" horiz-adv-x="542" 
d="M251 367l-250 347h51l226 -314l231 314h50l-252 -347l266 -367h-53l-242 334l-243 -334h-52z" />
    <glyph glyph-name="Psi" unicode="&#x3a8;" horiz-adv-x="765" 
d="M403 714v-514q129 0 197 57t68 185v272h44v-271q0 -142 -76 -210.5t-233 -71.5v-161h-44v161q-160 1 -233.5 69.5t-73.5 212.5v271h44v-272q0 -130 65.5 -186t197.5 -56v514h44z" />
    <glyph glyph-name="uni03A9" unicode="&#x3a9;" horiz-adv-x="741" 
d="M370 731q147 0 240 -100t93 -245q0 -221 -192 -345v-3h192v-38h-253v39q105 64 156.5 147t51.5 200q0 128 -80.5 217.5t-207.5 89.5t-207 -87t-80 -220q0 -117 51 -200.5t154 -146.5v-39h-249v38h185v3q-186 119 -186 345q0 150 93 247.5t239 97.5z" />
    <glyph glyph-name="Iotadieresis" unicode="&#x3aa;" horiz-adv-x="170" 
d="M186 793h-44v103h44v-103zM28 793h-44v103h44v-103zM63 0v714h44v-714h-44z" />
    <glyph glyph-name="Upsilondieresis" unicode="&#x3ab;" horiz-adv-x="574" 
d="M389 793h-44v103h44v-103zM231 793h-44v103h44v-103zM287 336l259 378h49l-287 -415v-299h-44v299l-285 415h50z" />
    <glyph glyph-name="alphatonos" unicode="&#x3ac;" horiz-adv-x="542" 
d="M439 69v41h-2q-30 -61 -81 -91.5t-102 -30.5q-112 0 -169 76t-57 193t58.5 193t165.5 76q56 0 109.5 -31.5t75.5 -95.5h2v115h38v-425q0 -16 0.5 -23t3.5 -18t10.5 -16t19.5 -5q10 0 28 3v-32q-15 -4 -31 -4q-41 0 -55 19t-14 56zM66 257q0 -94 47.5 -165t140.5 -71
q88 0 136 70.5t48 164.5q0 108 -52.5 172.5t-133.5 64.5q-93 0 -139.5 -70.5t-46.5 -165.5zM231 590l79 140h50l-91 -140h-38z" />
    <glyph glyph-name="epsilontonos" unicode="&#x3ad;" horiz-adv-x="463" 
d="M152 263v2q-53 8 -79.5 43t-26.5 78q0 70 53.5 105t134.5 35q151 0 179 -122h-37q-24 89 -142 89q-150 0 -150 -106q0 -50 34 -78.5t86 -28.5h69v-33h-67q-63 0 -101 -28.5t-38 -80.5q0 -59 44 -88t116 -29q69 0 113 25t61 92h37q-34 -150 -211 -150q-87 0 -142.5 36
t-55.5 114q0 49 32.5 83.5t90.5 41.5zM152 263v2v-2zM210 590l79 140h50l-91 -140h-38z" />
    <glyph glyph-name="etatonos" unicode="&#x3ae;" 
d="M56 0v514h38v-110h2q20 57 71 89.5t113 32.5q43 0 76 -10.5t52 -30t31 -39t17 -47.5t6 -43.5t1 -37.5v-502h-38v509q0 168 -146 168q-86 0 -135.5 -59.5t-49.5 -155.5v-278h-38zM239 590l79 140h50l-91 -140h-38z" />
    <glyph glyph-name="iotatonos" unicode="&#x3af;" horiz-adv-x="159" 
d="M55 590l79 140h50l-91 -140h-38zM93 514v-425q0 -15 0.5 -22.5t3.5 -18.5t11 -16t20 -5q10 0 28 3v-32q-15 -4 -31 -4q-41 0 -55 19t-14 56v445h37z" />
    <glyph glyph-name="upsilondieresistonos" unicode="&#x3b0;" horiz-adv-x="504" 
d="M65 514h38v-328q-2 -96 36.5 -130.5t114.5 -34.5q86 0 133 64.5t47 189.5q0 127 -51 239h38q51 -105 51 -237q0 -136 -54.5 -212.5t-163.5 -76.5q-96 0 -142.5 44t-46.5 141v341zM183 587l81 143h50l-93 -143h-38zM367 603h-44v103h44v-103zM168 603h-44v103h44v-103z
" />
    <glyph glyph-name="alpha" unicode="&#x3b1;" horiz-adv-x="542" 
d="M439 69v41h-2q-30 -61 -81 -91.5t-102 -30.5q-112 0 -169 76t-57 193t58.5 193t165.5 76q56 0 109.5 -31.5t75.5 -95.5h2v115h38v-425q0 -16 0.5 -23t3.5 -18t10.5 -16t19.5 -5q10 0 28 3v-32q-15 -4 -31 -4q-41 0 -55 19t-14 56zM66 257q0 -94 47.5 -165t140.5 -71
q88 0 136 70.5t48 164.5q0 108 -52.5 172.5t-133.5 64.5q-93 0 -139.5 -70.5t-46.5 -165.5z" />
    <glyph glyph-name="beta" unicode="&#x3b2;" horiz-adv-x="535" 
d="M65 -184v690q0 105 50 160.5t145 55.5q94 0 142.5 -47.5t48.5 -119.5q0 -61 -27.5 -103t-62.5 -52v-3q71 -10 106 -61t35 -129q0 -58 -17.5 -102t-47.5 -68.5t-64.5 -36.5t-72.5 -12q-152 0 -195 119h-2v-291h-38zM103 497v-239q0 -237 197 -237q164 0 164 186
q0 90 -43 128t-125 38h-49v33h32q61 0 97.5 39t36.5 110q0 64 -42 99t-111 35q-157 0 -157 -192z" />
    <glyph glyph-name="gamma" unicode="&#x3b3;" horiz-adv-x="387" 
d="M347 514h42q-44 -284 -189 -541v-157h-38v109q0 115 -51.5 290t-112.5 299h44q41 -77 90 -230.5t59 -243.5h3q110 209 153 474z" />
    <glyph glyph-name="delta" unicode="&#x3b4;" horiz-adv-x="515" 
d="M30 248q0 92 54.5 155.5t159.5 89.5q-71 32 -100.5 61t-29.5 61q0 40 39.5 73.5t122.5 33.5q82 0 139 -25v-33q-64 25 -139 25q-51 0 -87.5 -18.5t-36.5 -55.5q0 -26 28.5 -49t112.5 -64q192 -93 192 -256q0 -110 -56 -184t-166 -74q-108 0 -170.5 71t-62.5 189zM68 248
q0 -110 55 -169t140 -59q88 0 136 62.5t48 163.5q0 145 -174 231q-205 -45 -205 -229z" />
    <glyph glyph-name="epsilon" unicode="&#x3b5;" horiz-adv-x="463" 
d="M152 263v2q-53 8 -79.5 43t-26.5 78q0 70 53.5 105t134.5 35q151 0 179 -122h-37q-24 89 -142 89q-150 0 -150 -106q0 -50 34 -78.5t86 -28.5h69v-33h-67q-63 0 -101 -28.5t-38 -80.5q0 -59 44 -88t116 -29q69 0 113 25t61 92h37q-34 -150 -211 -150q-87 0 -142.5 36
t-55.5 114q0 49 32.5 83.5t90.5 41.5zM152 263v2v-2z" />
    <glyph glyph-name="zeta" unicode="&#x3b6;" horiz-adv-x="409" 
d="M384 -135h-35q6 30 6 55q0 40 -16 60t-59 20h-31q-104 0 -160.5 69.5t-56.5 192.5q0 132 86.5 246.5t219.5 172.5h-259v33h320v-34q-162 -71 -246 -182t-84 -236q10 -229 188 -229h24q58 0 84 -26t26 -82q0 -33 -7 -60z" />
    <glyph glyph-name="eta" unicode="&#x3b7;" 
d="M56 0v514h38v-110h2q20 57 71 89.5t113 32.5q43 0 76 -10.5t52 -30t31 -39t17 -47.5t6 -43.5t1 -37.5v-502h-38v509q0 168 -146 168q-86 0 -135.5 -59.5t-49.5 -155.5v-278h-38z" />
    <glyph glyph-name="theta" unicode="&#x3b8;" horiz-adv-x="482" 
d="M241 722q118 0 164.5 -92t46.5 -276q0 -182 -47.5 -274t-163.5 -92q-117 0 -164 92.5t-47 273.5q0 180 47.5 274t163.5 94zM69 379h345q0 160 -40.5 235t-132.5 75q-91 0 -130.5 -76t-41.5 -234zM241 21q92 0 132.5 77t40.5 248h-346q2 -172 42 -248.5t131 -76.5z" />
    <glyph glyph-name="iota" unicode="&#x3b9;" horiz-adv-x="159" 
d="M93 514v-425q0 -15 0.5 -22.5t3.5 -18.5t11 -16t20 -5q10 0 28 3v-32q-15 -4 -31 -4q-41 0 -55 19t-14 56v445h37z" />
    <glyph glyph-name="kappa" unicode="&#x3ba;" horiz-adv-x="466" 
d="M58 0v514h38v-281l317 281h55l-225 -200l241 -314h-52l-219 285l-117 -99v-186h-38z" />
    <glyph glyph-name="lambda" unicode="&#x3bb;" horiz-adv-x="480" 
d="M246 586l161 -501q11 -36 21 -47.5t32 -11.5q5 0 19 2v-31q-18 -3 -24 -3q-31 0 -49 14.5t-32 59.5l-124 394l-189 -462h-41l214 503q-7 18 -19 56.5t-18 52.5q-16 38 -34 57t-48 19q-32 0 -48 -7v33q24 8 48 8q48 0 77 -31t54 -105z" />
    <glyph glyph-name="uni03BC" unicode="&#x3bc;" horiz-adv-x="528" 
d="M472 514v-514h-38v110h-2q-20 -57 -71 -89.5t-113 -32.5q-101 0 -145 68v-240h-38v698h38v-325q0 -168 146 -168q86 0 135.5 59.5t49.5 155.5v278h38z" />
    <glyph glyph-name="nu" unicode="&#x3bd;" horiz-adv-x="432" 
d="M224 44h2q122 236 165 470h43q-45 -238 -191 -514h-41l-204 514h44z" />
    <glyph glyph-name="xi" unicode="&#x3be;" horiz-adv-x="403" 
d="M280 0h-28q-104 0 -162 53.5t-58 141.5q0 146 139 171v3q-58 16 -86.5 61t-28.5 100q0 91 57 141.5t150 50.5q64 0 130 -23v-34q-63 24 -130 24q-80 0 -125 -43t-45 -116q0 -143 191 -143h74v-33h-78q-104 0 -157.5 -37t-53.5 -123q0 -161 206 -161h6q58 0 84 -26t26 -82
q0 -33 -7 -60h-35q6 30 6 55q0 40 -16 60t-59 20z" />
    <glyph glyph-name="omicron" unicode="&#x3bf;" horiz-adv-x="536" 
d="M32 257q0 115 63 192t173 77t173 -77t63 -192t-63 -192t-173 -77t-173 77t-63 192zM70 257q0 -98 53 -167t145 -69t145 69t53 167t-53 167t-145 69t-145 -69t-53 -167z" />
    <glyph glyph-name="pi" unicode="&#x3c0;" horiz-adv-x="560" 
d="M135 481v-481h-38v481h-85v33h528v-33h-91v-412q0 -42 38 -42q19 0 39 4v-32q-23 -5 -45 -5q-38 0 -54 17.5t-16 55.5v414h-276z" />
    <glyph glyph-name="rho" unicode="&#x3c1;" horiz-adv-x="541" 
d="M56 -184v441q0 122 58.5 195.5t161.5 73.5q110 0 170 -77t60 -192q0 -120 -58 -194.5t-165 -74.5q-139 0 -187 119h-2v-291h-38zM468 257q0 103 -51 169.5t-141 66.5q-85 0 -133 -64.5t-48 -171.5q0 -114 47.5 -175t140.5 -61q82 0 133.5 64t51.5 172z" />
    <glyph glyph-name="sigma1" unicode="&#x3c2;" horiz-adv-x="453" 
d="M264 33h32q59 0 84.5 -26t25.5 -82q0 -33 -7 -60h-35q6 30 6 55q0 40 -16 60t-59 20h-36q-105 0 -166 70t-61 192q0 117 59 190.5t172 73.5q147 0 187 -123h-37q-40 90 -150 90q-95 0 -144.5 -63t-49.5 -168q0 -110 52.5 -169.5t142.5 -59.5z" />
    <glyph glyph-name="sigma" unicode="&#x3c3;" horiz-adv-x="543" 
d="M32 258q0 117 69.5 186.5t186.5 69.5h247v-34h-144q53 -44 78.5 -103.5t25.5 -118.5q0 -109 -60 -189.5t-170 -80.5q-111 0 -172 76.5t-61 193.5zM70 258q0 -114 56.5 -175.5t138.5 -61.5q88 0 140.5 68.5t52.5 168.5q0 132 -105 223h-61q-98 0 -160 -57t-62 -166z" />
    <glyph glyph-name="tau" unicode="&#x3c4;" horiz-adv-x="419" 
d="M225 481v-416q0 -38 38 -38q20 0 40 4v-33q-16 -4 -49 -4q-67 0 -67 70v417h-179v33h403v-33h-186z" />
    <glyph glyph-name="upsilon" unicode="&#x3c5;" horiz-adv-x="504" 
d="M65 514h38v-328q-2 -96 36.5 -130.5t114.5 -34.5q86 0 133 64.5t47 189.5q0 127 -51 239h38q51 -105 51 -237q0 -136 -54.5 -212.5t-163.5 -76.5q-96 0 -142.5 44t-46.5 141v341z" />
    <glyph glyph-name="phi" unicode="&#x3c6;" horiz-adv-x="696" 
d="M365 645v-119q132 -2 215.5 -71t83.5 -192q0 -68 -24 -121.5t-65.5 -86t-94 -49.5t-113.5 -18v-172h-40v172q-131 2 -213 70.5t-82 202.5q0 123 81 193t214 72v119h38zM365 493v-471q111 0 186 60.5t75 180.5q0 108 -73.5 169t-187.5 61zM327 21v472q-113 0 -185 -60.5
t-72 -171.5q0 -120 74 -181t183 -59z" />
    <glyph glyph-name="chi" unicode="&#x3c7;" horiz-adv-x="430" 
d="M236 191l206 -375h-48l-182 336l-177 -336h-47l202 373l-185 325h48l159 -288l165 288h48z" />
    <glyph glyph-name="psi" unicode="&#x3c8;" horiz-adv-x="635" 
d="M342 644v-622q99 2 161 66.5t62 186.5q0 127 -51 239h37q52 -100 52 -237q0 -135 -72 -211t-189 -78v-172h-38v172q-123 7 -181 74t-58 179v273h37v-269q0 -210 202 -223v622h38z" />
    <glyph glyph-name="omega" unicode="&#x3c9;" horiz-adv-x="686" 
d="M484 21q65 0 99 60.5t34 157.5q0 148 -79 275h38q78 -122 78 -275q0 -111 -43.5 -181t-126.5 -70q-53 0 -90 30.5t-50 86.5h-3q-13 -57 -49.5 -87t-89.5 -30q-83 0 -126.5 70t-43.5 181q0 153 78 275h38q-79 -127 -79 -275q0 -97 34 -157.5t99 -60.5q54 0 88 39.5
t34 111.5v216h37v-216q0 -71 35.5 -111t87.5 -40z" />
    <glyph glyph-name="iotadieresis" unicode="&#x3ca;" horiz-adv-x="159" 
d="M93 514v-425q0 -15 0.5 -22.5t3.5 -18.5t11 -16t20 -5q10 0 28 3v-32q-15 -4 -31 -4q-41 0 -55 19t-14 56v445h37zM178 603h-44v103h44v-103zM20 603h-44v103h44v-103z" />
    <glyph glyph-name="upsilondieresis" unicode="&#x3cb;" horiz-adv-x="504" 
d="M65 514h38v-328q-2 -96 36.5 -130.5t114.5 -34.5q86 0 133 64.5t47 189.5q0 127 -51 239h38q51 -105 51 -237q0 -136 -54.5 -212.5t-163.5 -76.5q-96 0 -142.5 44t-46.5 141v341zM348 603h-44v103h44v-103zM190 603h-44v103h44v-103z" />
    <glyph glyph-name="omicrontonos" unicode="&#x3cc;" horiz-adv-x="536" 
d="M243 590l79 140h50l-91 -140h-38zM32 257q0 115 63 192t173 77t173 -77t63 -192t-63 -192t-173 -77t-173 77t-63 192zM70 257q0 -98 53 -167t145 -69t145 69t53 167t-53 167t-145 69t-145 -69t-53 -167z" />
    <glyph glyph-name="upsilontonos" unicode="&#x3cd;" horiz-adv-x="504" 
d="M65 514h38v-328q-2 -96 36.5 -130.5t114.5 -34.5q86 0 133 64.5t47 189.5q0 127 -51 239h38q51 -105 51 -237q0 -136 -54.5 -212.5t-163.5 -76.5q-96 0 -142.5 44t-46.5 141v341zM218 590l79 140h50l-91 -140h-38z" />
    <glyph glyph-name="omegatonos" unicode="&#x3ce;" horiz-adv-x="686" 
d="M484 21q65 0 99 60.5t34 157.5q0 148 -79 275h38q78 -122 78 -275q0 -111 -43.5 -181t-126.5 -70q-53 0 -90 30.5t-50 86.5h-3q-13 -57 -49.5 -87t-89.5 -30q-83 0 -126.5 70t-43.5 181q0 153 78 275h38q-79 -127 -79 -275q0 -97 34 -157.5t99 -60.5q54 0 88 39.5
t34 111.5v216h37v-216q0 -71 35.5 -111t87.5 -40zM318 590l79 140h50l-91 -140h-38z" />
    <glyph glyph-name="uni0400" unicode="&#x400;" horiz-adv-x="560" 
d="M63 0v714h480v-38h-436v-286h410v-38h-410v-314h441v-38h-485zM335 780h-37l-134 140h51z" />
    <glyph glyph-name="afii10023" unicode="&#x401;" horiz-adv-x="560" 
d="M63 0v714h480v-38h-436v-286h410v-38h-410v-314h441v-38h-485zM399 793h-44v103h44v-103zM241 793h-44v103h44v-103z" />
    <glyph glyph-name="afii10051" unicode="&#x402;" horiz-adv-x="714" 
d="M684 166q0 -124 -66 -203t-176 -80v37q96 4 147.5 70.5t51.5 175.5q0 102 -50 165t-134 63q-89 0 -141 -62.5t-52 -169.5v-162h-44v676h-234v38h547v-38h-269v-372h2q25 61 75.5 94.5t118.5 33.5q103 0 163.5 -73t60.5 -193z" />
    <glyph glyph-name="afii10052" unicode="&#x403;" horiz-adv-x="485" 
d="M63 0v714h436v-38h-392v-676h-44zM208 780l120 140h51l-134 -140h-37z" />
    <glyph glyph-name="afii10053" unicode="&#x404;" horiz-adv-x="704" 
d="M677 273q-11 -128 -96 -209t-221 -81q-148 0 -236 101.5t-88 269.5q0 174 90 275.5t243 101.5q122 0 200.5 -59.5t96.5 -165.5h-44q-15 88 -83.5 137.5t-172.5 49.5q-124 0 -200 -81.5t-86 -221.5h375v-38h-376q1 -150 78.5 -240.5t204.5 -90.5q117 0 189 70.5t83 181.5
h43z" />
    <glyph glyph-name="afii10054" unicode="&#x405;" horiz-adv-x="630" 
d="M573 510h-44q-4 89 -65.5 136t-163.5 47q-33 0 -65 -7.5t-62.5 -24t-49.5 -47.5t-19 -73q0 -32 13 -56.5t34.5 -40t52 -27t62 -19t69.5 -14.5q8 -1 12 -2q43 -9 73 -16.5t65 -23t56 -35t35.5 -51.5t14.5 -72q0 -53 -23.5 -93.5t-61.5 -63t-80 -33.5t-86 -11
q-136 0 -219.5 61.5t-81.5 191.5h44q-4 -75 32 -124.5t93 -70t132 -20.5q35 0 69 8.5t66 26t52 51t20 77.5q0 25 -8 46t-18.5 35.5t-32 27.5t-37.5 20t-47 15.5t-48 12l-53 10.5q-44 9 -72.5 16t-64.5 22t-56.5 33.5t-35 49t-14.5 69.5q0 95 72 142.5t168 47.5
q119 0 193 -54.5t80 -166.5z" />
    <glyph glyph-name="afii10055" unicode="&#x406;" horiz-adv-x="170" 
d="M63 0v714h44v-714h-44z" />
    <glyph glyph-name="afii10056" unicode="&#x407;" horiz-adv-x="170" 
d="M186 793h-44v103h44v-103zM28 793h-44v103h44v-103zM63 0v714h44v-714h-44z" />
    <glyph glyph-name="afii10057" unicode="&#x408;" horiz-adv-x="481" 
d="M20 227h44q-3 -44 1.5 -77.5t19.5 -64.5t48.5 -47.5t83.5 -16.5q26 0 47 4t36.5 10t27.5 18t19.5 21t13 26.5t8 28.5t4 32t1.5 31.5v32.5v12v477h44v-492q0 -27 -0.5 -40.5t-4 -43t-10 -46.5t-21 -40.5t-34.5 -36.5t-52.5 -22.5t-73.5 -9.5q-55 0 -94.5 16t-60 38
t-31.5 58.5t-13.5 64t-2.5 67.5z" />
    <glyph glyph-name="afii10058" unicode="&#x409;" horiz-adv-x="1017" 
d="M520 0v676h-291l-16 -449q-4 -127 -38.5 -182t-107.5 -55q-32 0 -65 12v40q28 -14 60 -14q53 0 78 45t29 161l17 480h378v-313h209q100 0 157 -52.5t57 -147.5q0 -92 -58.5 -146.5t-158.5 -54.5h-250zM564 38h202q82 0 129.5 43t47.5 120t-47 119.5t-129 42.5h-203v-325z
" />
    <glyph glyph-name="afii10059" unicode="&#x40a;" horiz-adv-x="1017" 
d="M554 714v-313h219q100 0 157 -52.5t57 -147.5q0 -92 -58.5 -146.5t-158.5 -54.5h-260v363h-403v-363h-44v714h44v-313h403v313h44zM554 38h212q82 0 129.5 43t47.5 120t-47 119.5t-129 42.5h-213v-325z" />
    <glyph glyph-name="afii10060" unicode="&#x40b;" horiz-adv-x="718" 
d="M264 332v-332h-44v676h-234v38h547v-38h-269v-302q86 58 190 58q208 0 208 -206v-226h-44v219q0 82 -38 128.5t-130 46.5q-46 0 -97 -17t-89 -45z" />
    <glyph glyph-name="afii10061" unicode="&#x40c;" horiz-adv-x="613" 
d="M262 780l120 140h51l-134 -140h-37zM63 0v714h44v-411l449 411h57l-326 -297l346 -417h-55l-323 387l-148 -135v-252h-44z" />
    <glyph glyph-name="uni040D" unicode="&#x40d;" horiz-adv-x="670" 
d="M563 0v659h-3l-443 -659h-54v714h44v-659h3l442 659h55v-714h-44zM373 780h-37l-134 140h51z" />
    <glyph glyph-name="afii10062" unicode="&#x40e;" horiz-adv-x="556" 
d="M266 148l-278 566h48l251 -520l238 520h46l-304 -652q-37 -79 -113 -79q-46 0 -76 22v43q34 -27 77 -27q54 0 82 63zM386 910h33q-6 -49 -43.5 -84.5t-87.5 -35.5q-58 0 -95.5 32t-44.5 88h33q21 -87 106 -87q39 0 65.5 24t33.5 63z" />
    <glyph glyph-name="afii10145" unicode="&#x40f;" horiz-adv-x="670" 
d="M313 0h-250v714h44v-676h456v676h44v-714h-251v-184h-43v184z" />
    <glyph glyph-name="afii10017" unicode="&#x410;" horiz-adv-x="593" 
d="M-12 0l287 714h48l282 -714h-47l-90 229h-342l-91 -229h-47zM140 267h314l-153 404h-2z" />
    <glyph glyph-name="afii10018" unicode="&#x411;" horiz-adv-x="630" 
d="M551 676h-444v-275h277q100 0 157 -52.5t57 -147.5q0 -92 -58.5 -146.5t-158.5 -54.5h-318v714h488v-38zM107 38h270q82 0 129.5 43t47.5 120t-47 119.5t-129 42.5h-271v-325z" />
    <glyph glyph-name="afii10019" unicode="&#x412;" horiz-adv-x="630" 
d="M63 0v714h286q118 0 171.5 -53t53.5 -132q0 -58 -38.5 -101t-100.5 -51l2 -2q7 1 24 -3t41 -16t45 -31t36 -51.5t15 -73.5q0 -96 -67.5 -148t-181.5 -52h-286zM107 390h242q88 0 134.5 39.5t46.5 107.5q0 73 -51 106t-130 33h-242v-286zM107 38h242q97 0 151 41.5
t54 120.5q0 44 -18.5 75.5t-50 47t-65 22.5t-71.5 7h-242v-314z" />
    <glyph glyph-name="afii10020" unicode="&#x413;" horiz-adv-x="485" 
d="M63 0v714h436v-38h-392v-676h-44z" />
    <glyph glyph-name="afii10021" unicode="&#x414;" horiz-adv-x="670" 
d="M664 -184h-43v184h-559v-184h-43v222h63q36 66 59 143t32.5 159t12.5 140.5t3 134.5v99h403v-676h72v-222zM548 38v638h-315v-68q0 -74 -3 -133t-12.5 -139.5t-31.5 -156.5t-56 -141h418z" />
    <glyph glyph-name="afii10022" unicode="&#x415;" horiz-adv-x="560" 
d="M63 0v714h480v-38h-436v-286h410v-38h-410v-314h441v-38h-485z" />
    <glyph glyph-name="afii10024" unicode="&#x416;" horiz-adv-x="980" 
d="M468 0v287l-129 118l-303 -405h-53l325 433l-305 281h59l406 -374v374h44v-375l408 375h57l-305 -280l325 -434h-54l-303 405l-128 -117v-288h-44z" />
    <glyph glyph-name="afii10025" unicode="&#x417;" horiz-adv-x="624" 
d="M317 -17q-131 0 -207 64t-76 189h44q2 -109 64.5 -162t176.5 -53q92 0 156.5 46.5t64.5 130.5q0 154 -211 154q-50 0 -71 -1v39q21 -1 71 -1q82 0 139 36t57 114q0 75 -55.5 114.5t-144.5 39.5q-99 0 -159 -44t-66 -138h-44q7 110 79.5 165t189.5 55q109 0 176.5 -49.5
t67.5 -141.5q0 -72 -43 -114.5t-105 -50.5v-2q163 -25 163 -175q0 -101 -76 -158t-191 -57z" />
    <glyph glyph-name="afii10026" unicode="&#x418;" horiz-adv-x="670" 
d="M563 0v659h-3l-443 -659h-54v714h44v-659h3l442 659h55v-714h-44z" />
    <glyph glyph-name="afii10027" unicode="&#x419;" horiz-adv-x="670" 
d="M563 0v659h-3l-443 -659h-54v714h44v-659h3l442 659h55v-714h-44zM439 910h33q-6 -49 -43.5 -84.5t-87.5 -35.5q-58 0 -95.5 32t-44.5 88h33q21 -87 106 -87q39 0 65.5 24t33.5 63z" />
    <glyph glyph-name="afii10028" unicode="&#x41a;" horiz-adv-x="613" 
d="M63 0v714h44v-411l449 411h57l-326 -297l346 -417h-55l-323 387l-148 -135v-252h-44z" />
    <glyph glyph-name="afii10029" unicode="&#x41b;" horiz-adv-x="652" 
d="M186 714h403v-714h-44v676h-316l-16 -449q-4 -127 -38.5 -182t-107.5 -55q-32 0 -65 12v40q28 -14 60 -14q53 0 78 45t29 161z" />
    <glyph glyph-name="afii10030" unicode="&#x41c;" horiz-adv-x="809" 
d="M63 0v714h63l279 -665h2l276 665h63v-714h-44v660h-2l-272 -660h-44l-275 660h-2v-660h-44z" />
    <glyph glyph-name="afii10031" unicode="&#x41d;" horiz-adv-x="670" 
d="M63 0v714h44v-324h456v324h44v-714h-44v352h-456v-352h-44z" />
    <glyph glyph-name="afii10032" unicode="&#x41e;" horiz-adv-x="741" 
d="M710 357q0 -161 -91.5 -267.5t-247.5 -106.5t-248 106t-92 268t92 268t248 106t247.5 -106.5t91.5 -267.5zM75 357q0 -143 80 -239.5t216 -96.5q135 0 215 96.5t80 239.5t-80 239.5t-215 96.5q-136 0 -216 -96.5t-80 -239.5z" />
    <glyph glyph-name="afii10033" unicode="&#x41f;" horiz-adv-x="670" 
d="M607 714v-714h-44v676h-456v-676h-44v714h544z" />
    <glyph glyph-name="afii10034" unicode="&#x420;" horiz-adv-x="591" 
d="M63 0v714h304q28 0 53 -4t54.5 -17t51 -34t35.5 -58.5t14 -86.5q0 -94 -58.5 -145t-165.5 -51h-244v-318h-44zM107 676v-320h251q89 0 131 47.5t42 111.5q0 24 -6.5 48t-23 51.5t-52 44.5t-85.5 17h-257z" />
    <glyph glyph-name="afii10035" unicode="&#x421;" horiz-adv-x="704" 
d="M36 357q0 162 92 268t248 106q71 0 126.5 -23.5t84 -54.5t47.5 -67t24 -57t5 -28h-44q-14 88 -82.5 140t-160.5 52q-136 0 -216 -96.5t-80 -239.5t80 -239.5t216 -96.5q102 0 175.5 77t79.5 180h44q-12 -128 -96.5 -211.5t-202.5 -83.5q-156 0 -248 106t-92 268z" />
    <glyph glyph-name="afii10036" unicode="&#x422;" 
d="M237 676h-251v38h547v-38h-252v-676h-44v676z" />
    <glyph glyph-name="afii10037" unicode="&#x423;" horiz-adv-x="556" 
d="M266 148l-278 566h48l251 -520l238 520h46l-304 -652q-37 -79 -113 -79q-46 0 -76 22v43q34 -27 77 -27q54 0 82 63z" />
    <glyph glyph-name="afii10038" unicode="&#x424;" horiz-adv-x="722" 
d="M693 359q0 -131 -89.5 -203.5t-220.5 -72.5v-83h-44v83q-133 0 -221.5 71.5t-88.5 204.5q0 131 89.5 203.5t220.5 72.5v79h44v-79q133 0 221.5 -71.5t88.5 -204.5zM649 359q0 114 -76.5 176t-189.5 62v-476q114 0 190 62t76 176zM73 359q0 -114 76.5 -176t189.5 -62v476
q-114 0 -190 -62t-76 -176z" />
    <glyph glyph-name="afii10039" unicode="&#x425;" horiz-adv-x="556" 
d="M251 367l-250 347h51l226 -314l231 314h50l-252 -347l266 -367h-53l-242 334l-243 -334h-52z" />
    <glyph glyph-name="afii10040" unicode="&#x426;" horiz-adv-x="685" 
d="M636 -184v184h-573v714h44v-676h456v676h44v-676h72v-222h-43z" />
    <glyph glyph-name="afii10041" unicode="&#x427;" horiz-adv-x="614" 
d="M507 348q-124 -44 -234 -44q-127 0 -175.5 55t-48.5 171v184h44v-181q0 -99 38.5 -145t142.5 -46q103 0 233 44v328h44v-714h-44v348z" />
    <glyph glyph-name="afii10042" unicode="&#x428;" horiz-adv-x="1008" 
d="M901 38v676h44v-714h-882v714h44v-676h375v676h44v-676h375z" />
    <glyph glyph-name="afii10043" unicode="&#x429;" horiz-adv-x="1023" 
d="M901 38v676h44v-676h72v-222h-43v184h-911v714h44v-676h375v676h44v-676h375z" />
    <glyph glyph-name="afii10044" unicode="&#x42a;" horiz-adv-x="778" 
d="M231 0v676h-245v38h289v-313h259q100 0 157 -52.5t57 -147.5q0 -92 -58.5 -146.5t-158.5 -54.5h-300zM275 38h252q82 0 129.5 43t47.5 120t-47 119.5t-129 42.5h-253v-325z" />
    <glyph glyph-name="afii10045" unicode="&#x42b;" horiz-adv-x="800" 
d="M693 0v714h44v-714h-44zM63 0v714h44v-313h259q100 0 157 -52.5t57 -147.5q0 -92 -58.5 -146.5t-158.5 -54.5h-300zM107 38h252q82 0 129.5 43t47.5 120t-47 119.5t-129 42.5h-253v-325z" />
    <glyph glyph-name="afii10046" unicode="&#x42c;" horiz-adv-x="610" 
d="M63 0v714h44v-313h259q100 0 157 -52.5t57 -147.5q0 -92 -58.5 -146.5t-158.5 -54.5h-300zM107 38h252q82 0 129.5 43t47.5 120t-47 119.5t-129 42.5h-253v-325z" />
    <glyph glyph-name="afii10047" unicode="&#x42d;" horiz-adv-x="704" 
d="M254 352v38h375q-10 142 -80.5 222.5t-193.5 80.5q-100 0 -171 -50t-96 -137h-44q30 106 109.5 165.5t202.5 59.5q150 0 233.5 -101t83.5 -276q0 -167 -91 -269t-239 -102q-140 0 -223 80.5t-91 209.5h43q8 -111 79.5 -181.5t189.5 -70.5q128 0 208 91t81 240h-376z" />
    <glyph glyph-name="afii10048" unicode="&#x42e;" horiz-adv-x="980" 
d="M949 357q0 -161 -91.5 -267.5t-247.5 -106.5t-247 104.5t-93 264.5h-163v-352h-44v714h44v-324h164q9 149 100 245t239 96q156 0 247.5 -106.5t91.5 -267.5zM314 357q0 -143 80 -239.5t216 -96.5q135 0 215 96.5t80 239.5t-80 239.5t-215 96.5q-136 0 -216 -96.5
t-80 -239.5z" />
    <glyph glyph-name="afii10049" unicode="&#x42f;" horiz-adv-x="630" 
d="M523 0v325h-249l-236 -325h-51l242 328q-83 7 -134 55t-51 131q0 94 58.5 147t162.5 53h302v-714h-44zM523 676h-258q-83 0 -130.5 -41.5t-47.5 -119.5q0 -76 48.5 -114t129.5 -38h258v313z" />
    <glyph glyph-name="afii10065" unicode="&#x430;" horiz-adv-x="500" 
d="M397 75v27h-2q-19 -49 -69.5 -81.5t-121.5 -32.5q-172 0 -172 145q0 136 189 152l59 5q79 6 98.5 25.5t19.5 76.5q0 45 -35 73t-108 28q-70 0 -112 -35t-46 -102h-38q8 170 198 170q90 0 134 -35t44 -97v-299q0 -16 0.5 -23t3.5 -18t10.5 -16t19.5 -5q10 0 28 3v-32
q-15 -4 -31 -4q-41 0 -55 19t-14 56zM397 196v96q-21 -25 -106 -32l-64 -6q-33 -3 -57 -8.5t-49 -18t-38 -36.5t-13 -58q0 -55 35.5 -83.5t99.5 -28.5q49 0 86 16t56.5 37.5t31.5 48.5t15 44t3 29z" />
    <glyph glyph-name="afii10066" unicode="&#x431;" horiz-adv-x="537" 
d="M504 251q0 -118 -64 -190.5t-168 -72.5q-107 0 -169 77t-62 206q0 192 53.5 285t176.5 109l84 11q40 5 56 13.5t21 24.5h44q-8 -36 -31 -52.5t-82 -23.5l-83 -10q-94 -11 -139 -69.5t-64 -188.5h2q29 70 81.5 103.5t118.5 33.5q100 0 162.5 -70t62.5 -186zM466 251
q0 100 -53.5 161.5t-136.5 61.5q-84 0 -140.5 -60.5t-56.5 -158.5q0 -103 54.5 -168.5t140.5 -65.5q84 0 138 63t54 167z" />
    <glyph glyph-name="afii10067" unicode="&#x432;" horiz-adv-x="500" 
d="M288 0h-231v514h236q75 0 115.5 -33.5t40.5 -92.5q0 -46 -25.5 -75t-69.5 -38v-2q114 -21 114 -130q0 -69 -47.5 -106t-132.5 -37zM290 481h-195v-193h194q57 0 89.5 25t32.5 70q0 48 -31.5 73t-89.5 25zM95 33h192q69 0 106 28.5t37 82.5q0 52 -36 81.5t-103 29.5h-196
v-222z" />
    <glyph glyph-name="afii10068" unicode="&#x433;" horiz-adv-x="396" 
d="M94 481v-481h-38v514h338v-33h-300z" />
    <glyph glyph-name="afii10069" unicode="&#x434;" horiz-adv-x="537" 
d="M490 0h-441v-161h-38v194h61q76 147 76 406v75h315v-481h65v-194h-38v161zM425 33v448h-240v-43q0 -255 -73 -405h313z" />
    <glyph glyph-name="afii10070" unicode="&#x435;" 
d="M486 252h-415v-6q0 -96 49.5 -160.5t139.5 -64.5q149 0 184 153h38q-17 -90 -74 -138t-149 -48q-109 0 -168 74t-59 191q0 116 60.5 194.5t172.5 78.5q104 0 163 -72t59 -180q0 -4 -0.5 -12t-0.5 -10zM72 285h376q-3 89 -51.5 148.5t-131.5 59.5q-87 0 -136.5 -60
t-56.5 -148z" />
    <glyph glyph-name="afii10072" unicode="&#x436;" horiz-adv-x="722" 
d="M252 270l-213 -270h-50l234 298l-210 216h57l272 -282v282h38v-283l275 283h54l-211 -214l235 -300h-52l-212 270l-89 -90v-180h-38v179z" />
    <glyph glyph-name="afii10073" unicode="&#x437;" horiz-adv-x="470" 
d="M421 389q0 -45 -30.5 -76t-79.5 -39v-1q123 -14 123 -124q0 -76 -58 -118.5t-140 -42.5q-100 0 -154 45.5t-54 139.5h38q0 -152 170 -152q64 0 112 33.5t48 94.5q0 106 -157 106h-56v34h46q41 0 73 7.5t56.5 31t24.5 61.5q0 50 -38.5 77t-102.5 27q-151 0 -162 -130h-38
q1 80 55.5 121.5t145.5 41.5q80 0 129 -35t49 -102z" />
    <glyph glyph-name="afii10074" unicode="&#x438;" 
d="M425 0v462h-1l-321 -462h-47v514h38v-464h1l320 464h48v-514h-38z" />
    <glyph glyph-name="afii10075" unicode="&#x439;" 
d="M425 0v462h-1l-321 -462h-47v514h38v-464h1l320 464h48v-514h-38zM362 720h33q-6 -49 -43.5 -84.5t-87.5 -35.5q-58 0 -95.5 32t-44.5 88h33q21 -87 106 -87q39 0 65.5 24t33.5 63z" />
    <glyph glyph-name="afii10076" unicode="&#x43a;" horiz-adv-x="463" 
d="M58 0v514h38v-281l317 281h55l-225 -200l241 -314h-52l-219 285l-117 -99v-186h-38z" />
    <glyph glyph-name="afii10077" unicode="&#x43b;" horiz-adv-x="524" 
d="M153 514h315v-514h-38v481h-240l-11 -290q-4 -111 -35 -156t-88 -45q-29 0 -54 11v37q24 -12 52 -12q42 0 62.5 37.5t24.5 130.5z" />
    <glyph glyph-name="afii10078" unicode="&#x43c;" horiz-adv-x="630" 
d="M94 478v-478h-38v514h62l197 -467l197 467h62v-514h-38v478h-2l-198 -478h-42l-198 478h-2z" />
    <glyph glyph-name="afii10079" unicode="&#x43d;" 
d="M425 0v257h-331v-257h-38v514h38v-224h331v224h38v-514h-38z" />
    <glyph glyph-name="afii10080" unicode="&#x43e;" horiz-adv-x="537" 
d="M32 257q0 115 63 192t173 77t173 -77t63 -192t-63 -192t-173 -77t-173 77t-63 192zM70 257q0 -98 53 -167t145 -69t145 69t53 167t-53 167t-145 69t-145 -69t-53 -167z" />
    <glyph glyph-name="afii10081" unicode="&#x43f;" 
d="M425 481h-331v-481h-38v514h407v-514h-38v481z" />
    <glyph glyph-name="afii10082" unicode="&#x440;" horiz-adv-x="556" 
d="M103 514v-118h2q15 49 63 89.5t124 40.5q112 0 171.5 -77.5t59.5 -192.5q0 -122 -58.5 -195t-172.5 -73q-143 0 -187 119h-2v-291h-38v698h38zM292 21q95 0 144 66.5t49 168.5q0 98 -48.5 167.5t-144.5 69.5t-142 -68t-46 -169q0 -49 9.5 -89t30 -74t58.5 -53t90 -19z
" />
    <glyph glyph-name="afii10083" unicode="&#x441;" 
d="M481 355h-38q-6 66 -54 102t-120 36q-91 0 -144.5 -68.5t-53.5 -162.5q0 -109 51 -175t147 -66q71 0 120 44.5t59 115.5h38q-12 -90 -72 -141.5t-145 -51.5q-118 0 -177 78t-59 196q0 113 63 188.5t173 75.5q87 0 145.5 -43.5t66.5 -127.5z" />
    <glyph glyph-name="afii10084" unicode="&#x442;" horiz-adv-x="444" 
d="M241 481v-481h-38v481h-195v33h428v-33h-195z" />
    <glyph glyph-name="afii10085" unicode="&#x443;" horiz-adv-x="444" 
d="M209 3l-215 511h45l191 -469l176 469h43l-220 -569q-36 -89 -60 -106q-19 -15 -44.5 -19t-75.5 -4v33q42 0 64.5 6.5t42.5 26.5q16 16 53 121z" />
    <glyph glyph-name="afii10086" unicode="&#x444;" horiz-adv-x="766" 
d="M364 -184v247q-46 -75 -139 -75q-91 0 -139.5 75.5t-48.5 193.5q0 115 50.5 192t145.5 77q46 0 81 -21.5t50 -53.5v263h38v-266q21 34 57.5 56t81.5 22q93 0 140.5 -76t47.5 -193q0 -115 -51.5 -192t-141.5 -77q-95 0 -134 75v-247h-38zM691 257q0 103 -37.5 169.5
t-118.5 66.5q-53 0 -93 -40t-40 -94v-207q0 -54 38 -92.5t93 -38.5q75 0 116.5 66t41.5 170zM75 257q0 -106 38.5 -171t114.5 -65q55 0 95.5 38.5t40.5 92.5v207q0 54 -37.5 94t-89.5 40q-82 0 -122 -67t-40 -169z" />
    <glyph glyph-name="afii10087" unicode="&#x445;" horiz-adv-x="444" 
d="M-6 0l202 270l-188 244h53l161 -215l162 215h49l-186 -244l203 -270h-52l-176 241l-180 -241h-48z" />
    <glyph glyph-name="afii10088" unicode="&#x446;" horiz-adv-x="537" 
d="M490 -161v161h-434v514h38v-481h331v481h38v-481h65v-194h-38z" />
    <glyph glyph-name="afii10089" unicode="&#x447;" horiz-adv-x="483" 
d="M389 245q-97 -34 -178 -34q-84 0 -126 39.5t-42 125.5v138h38v-140q0 -130 132 -130q88 0 176 34v236h38v-514h-38v245z" />
    <glyph glyph-name="afii10090" unicode="&#x448;" horiz-adv-x="768" 
d="M712 514v-514h-656v514h38v-481h271v481h38v-481h271v481h38z" />
    <glyph glyph-name="afii10091" unicode="&#x449;" horiz-adv-x="789" 
d="M739 -161v161h-683v514h38v-481h271v481h38v-481h271v481h38v-481h65v-194h-38z" />
    <glyph glyph-name="afii10092" unicode="&#x44a;" horiz-adv-x="611" 
d="M179 0v481h-171v33h209v-215h207q75 0 117 -39.5t42 -108.5q0 -70 -43.5 -110.5t-117.5 -40.5h-243zM545 151q0 53 -33.5 84t-93.5 31h-201v-233h200q61 0 94.5 31t33.5 87z" />
    <glyph glyph-name="afii10093" unicode="&#x44b;" horiz-adv-x="630" 
d="M536 0v514h38v-514h-38zM56 0v514h38v-215h197q75 0 117 -39.5t42 -108.5q0 -70 -43.5 -110.5t-117.5 -40.5h-233zM412 151q0 53 -33.5 84t-93.5 31h-191v-233h190q61 0 94.5 31t33.5 87z" />
    <glyph glyph-name="afii10094" unicode="&#x44c;" horiz-adv-x="488" 
d="M56 0v514h38v-215h207q75 0 117 -39.5t42 -108.5q0 -70 -43.5 -110.5t-117.5 -40.5h-243zM422 151q0 53 -33.5 84t-93.5 31h-201v-233h200q61 0 94.5 31t33.5 87z" />
    <glyph glyph-name="afii10095" unicode="&#x44d;" 
d="M168 252v33h277q-7 98 -56 153t-136 55q-69 0 -115.5 -34.5t-61.5 -95.5h-38q17 77 72.5 120t142.5 43q111 0 171 -71.5t60 -200.5q0 -123 -63 -194.5t-172 -71.5q-91 0 -149.5 48t-69.5 135h38q9 -70 57.5 -110t122.5 -40q93 0 144.5 62t53.5 169h-278z" />
    <glyph glyph-name="afii10096" unicode="&#x44e;" horiz-adv-x="730" 
d="M225 257h-131v-257h-38v514h38v-224h132q9 103 71 169.5t164 66.5q110 0 173 -77t63 -192t-63 -192t-173 -77t-173 77t-63 192zM263 257q0 -98 53 -167t145 -69t145 69t53 167t-53 167t-145 69t-145 -69t-53 -167z" />
    <glyph glyph-name="afii10097" unicode="&#x44f;" horiz-adv-x="488" 
d="M216 222l-168 -222h-48l172 223q-59 7 -96 43t-37 101q0 66 43.5 106.5t117.5 40.5h232v-514h-38v222h-178zM394 255v226h-190q-60 0 -93 -31.5t-33 -82.5q0 -53 32.5 -82.5t89.5 -29.5h194z" />
    <glyph glyph-name="uni0450" unicode="&#x450;" 
d="M298 590h-37l-134 140h51zM486 252h-415v-6q0 -96 49.5 -160.5t139.5 -64.5q149 0 184 153h38q-17 -90 -74 -138t-149 -48q-109 0 -168 74t-59 191q0 116 60.5 194.5t172.5 78.5q104 0 163 -72t59 -180q0 -4 -0.5 -12t-0.5 -10zM72 285h376q-3 89 -51.5 148.5
t-131.5 59.5q-87 0 -136.5 -60t-56.5 -148z" />
    <glyph glyph-name="afii10071" unicode="&#x451;" 
d="M362 603h-44v103h44v-103zM204 603h-44v103h44v-103zM486 252h-415v-6q0 -96 49.5 -160.5t139.5 -64.5q149 0 184 153h38q-17 -90 -74 -138t-149 -48q-109 0 -168 74t-59 191q0 116 60.5 194.5t172.5 78.5q104 0 163 -72t59 -180q0 -4 -0.5 -12t-0.5 -10zM72 285h376
q-3 89 -51.5 148.5t-131.5 59.5q-87 0 -136.5 -60t-56.5 -148z" />
    <glyph glyph-name="afii10099" unicode="&#x452;" 
d="M321 622v-33h-227v-197h2q20 57 71 89.5t113 32.5q43 0 76 -10.5t52 -30t31 -39t17 -47.5t6 -43.5t1 -37.5v-227q0 -258 -239 -275v37q201 12 201 235v237q0 168 -146 168q-86 0 -135.5 -59.5t-49.5 -155.5v-266h-38v589h-67v33h67v92h38v-92h227z" />
    <glyph glyph-name="afii10100" unicode="&#x453;" horiz-adv-x="396" 
d="M94 481v-481h-38v514h338v-33h-300zM156 590l120 140h51l-134 -140h-37z" />
    <glyph glyph-name="afii10101" unicode="&#x454;" horiz-adv-x="517" 
d="M484 171q-14 -87 -73.5 -135t-149.5 -48q-110 0 -169.5 71t-59.5 195q0 127 64.5 199.5t175.5 72.5q86 0 141 -43t67 -120h-38q-10 61 -55 95.5t-115 34.5q-88 0 -141 -55.5t-60 -152.5h277v-33h-278q2 -108 51 -169.5t141 -61.5q73 0 122.5 39.5t61.5 110.5h38z" />
    <glyph glyph-name="afii10102" unicode="&#x455;" horiz-adv-x="481" 
d="M36 171h38q4 -70 51.5 -110t118.5 -40q28 0 54 5t52 16t41.5 33.5t15.5 54.5q0 48 -36.5 73.5t-88.5 35t-103.5 21t-88 44t-36.5 90.5q0 69 55 100.5t131 31.5q86 0 138 -40t52 -124h-38q0 66 -41.5 98.5t-110.5 32.5q-60 0 -104 -24.5t-44 -74.5q0 -14 2.5 -25t10 -20.5
l13 -16.5t19 -13t21 -10t25 -9t25 -6.5t28 -6.5t27.5 -6q91 -17 136.5 -47.5t45.5 -103.5q0 -40 -18.5 -69t-49 -44t-63.5 -22t-70 -7q-91 0 -148.5 48t-59.5 135z" />
    <glyph glyph-name="afii10103" unicode="&#x456;" horiz-adv-x="168" 
d="M103 611h-38v103h38v-103zM103 0h-38v514h38v-514z" />
    <glyph glyph-name="afii10104" unicode="&#x457;" horiz-adv-x="168" 
d="M103 0h-38v514h38v-514zM185 603h-44v103h44v-103zM27 603h-44v103h44v-103z" />
    <glyph glyph-name="afii10105" unicode="&#x458;" horiz-adv-x="168" 
d="M103 611h-38v103h38v-103zM65 514h38v-569q0 -60 -22 -94.5t-83 -34.5h-16q-11 0 -16 1v33q14 -2 25 -2q41 0 57.5 21.5t16.5 78.5v566z" />
    <glyph glyph-name="afii10106" unicode="&#x459;" horiz-adv-x="778" 
d="M153 514h285v-215h153q75 0 117 -39.5t42 -108.5q0 -70 -43.5 -110.5t-117.5 -40.5h-189v481h-210l-11 -290q-4 -111 -35 -156t-88 -45q-29 0 -54 11v37q24 -12 52 -12q42 0 62.5 37.5t24.5 130.5zM712 151q0 53 -33.5 84t-93.5 31h-147v-233h146q61 0 94.5 31t33.5 87z
" />
    <glyph glyph-name="afii10107" unicode="&#x45a;" horiz-adv-x="772" 
d="M418 514v-215h167q75 0 117 -39.5t42 -108.5q0 -70 -43.5 -110.5t-117.5 -40.5h-203v266h-286v-266h-38v514h38v-215h286v215h38zM706 151q0 53 -33.5 84t-93.5 31h-161v-233h160q61 0 94.5 31t33.5 87z" />
    <glyph glyph-name="afii10108" unicode="&#x45b;" 
d="M321 622v-33h-227v-197h2q20 57 71 89.5t113 32.5q43 0 76 -10.5t52 -30t31 -39t17 -47.5t6 -43.5t1 -37.5v-306h-38v313q0 168 -146 168q-86 0 -135.5 -59.5t-49.5 -155.5v-266h-38v589h-67v33h67v92h38v-92h227z" />
    <glyph glyph-name="afii10109" unicode="&#x45c;" horiz-adv-x="463" 
d="M58 0v514h38v-281l317 281h55l-225 -200l241 -314h-52l-219 285l-117 -99v-186h-38zM197 590l120 140h51l-134 -140h-37z" />
    <glyph glyph-name="uni045D" unicode="&#x45d;" 
d="M425 0v462h-1l-321 -462h-47v514h38v-464h1l320 464h48v-514h-38zM296 590h-37l-134 140h51z" />
    <glyph glyph-name="afii10110" unicode="&#x45e;" horiz-adv-x="444" 
d="M332 720h33q-6 -49 -43.5 -84.5t-87.5 -35.5q-58 0 -95.5 32t-44.5 88h33q21 -87 106 -87q39 0 65.5 24t33.5 63zM209 3l-215 511h45l191 -469l176 469h43l-220 -569q-36 -89 -60 -106q-19 -15 -44.5 -19t-75.5 -4v33q42 0 64.5 6.5t42.5 26.5q16 16 53 121z" />
    <glyph glyph-name="afii10193" unicode="&#x45f;" 
d="M241 0h-185v514h38v-481h331v481h38v-514h-184v-161h-38v161z" />
    <glyph glyph-name="afii10146" unicode="&#x462;" horiz-adv-x="686" 
d="M-13 571v38h152v105h44v-105h224v-38h-224v-170h259q100 0 157 -52.5t57 -147.5q0 -92 -58.5 -146.5t-158.5 -54.5h-300v571h-152zM183 38h252q82 0 129.5 43t47.5 120t-47 119.5t-129 42.5h-253v-325z" />
    <glyph glyph-name="afii10194" unicode="&#x463;" horiz-adv-x="554" 
d="M122 0v481h-125v33h125v200h38v-200h194v-33h-194v-182h207q75 0 117 -39.5t42 -108.5q0 -70 -43.5 -110.5t-117.5 -40.5h-243zM488 151q0 53 -33.5 84t-93.5 31h-201v-233h200q61 0 94.5 31t33.5 87z" />
    <glyph glyph-name="afii10147" unicode="&#x472;" horiz-adv-x="741" 
d="M710 357q0 -161 -91.5 -267.5t-247.5 -106.5t-248 106t-92 268t92 268t248 106t247.5 -106.5t91.5 -267.5zM371 693q-128 0 -207 -86t-89 -217h590q-9 131 -88 217t-206 86zM371 21q134 0 214 95t82 236h-593q2 -141 82 -236t215 -95z" />
    <glyph glyph-name="afii10195" unicode="&#x473;" horiz-adv-x="537" 
d="M32 257q0 115 63 192t173 77t173 -77t63 -192t-63 -192t-173 -77t-173 77t-63 192zM268 493q-85 0 -137.5 -60t-60.5 -148h396q-8 88 -60.5 148t-137.5 60zM268 21q90 0 143.5 67.5t55.5 163.5h-398q2 -96 55.5 -163.5t143.5 -67.5z" />
    <glyph glyph-name="afii10148" unicode="&#x474;" horiz-adv-x="598" 
d="M279 38l208 598q19 53 45.5 74t65.5 21q16 0 39 -6v-39q-22 7 -36 7q-26 0 -43.5 -15t-31.5 -56l-223 -622h-51l-266 714h46l245 -676h2z" />
    <glyph glyph-name="afii10196" unicode="&#x475;" horiz-adv-x="460" 
d="M230 44l140 401q15 44 37.5 62.5t55.5 18.5q18 0 34 -4v-34q-15 5 -32 5q-21 0 -34 -13.5t-25 -47.5l-154 -432h-47l-207 514h44l186 -470h2z" />
    <glyph glyph-name="afii10050" unicode="&#x490;" horiz-adv-x="485" 
d="M63 0v714h388v168h43v-206h-387v-676h-44z" />
    <glyph glyph-name="afii10098" unicode="&#x491;" horiz-adv-x="396" 
d="M94 481v-481h-38v514h296v159h38v-192h-296z" />
    <glyph glyph-name="Wgrave" unicode="&#x1e80;" horiz-adv-x="889" 
d="M200 0l-206 714h45l186 -667h2l189 667h55l192 -667h2l183 667h47l-205 -714h-50l-196 676h-2l-193 -676h-49zM480 780h-37l-134 140h51z" />
    <glyph glyph-name="wgrave" unicode="&#x1e81;" horiz-adv-x="704" 
d="M39 514l145 -470h2l140 470h51l141 -470h2l144 470h42l-165 -514h-47l-141 466h-2l-142 -466h-48l-163 514h41zM389 590h-37l-134 140h51z" />
    <glyph glyph-name="Wacute" unicode="&#x1e82;" horiz-adv-x="889" 
d="M200 0l-206 714h45l186 -667h2l189 667h55l192 -667h2l183 667h47l-205 -714h-50l-196 676h-2l-193 -676h-49zM407 780l120 140h51l-134 -140h-37z" />
    <glyph glyph-name="wacute" unicode="&#x1e83;" horiz-adv-x="704" 
d="M39 514l145 -470h2l140 470h51l141 -470h2l144 470h42l-165 -514h-47l-141 466h-2l-142 -466h-48l-163 514h41zM316 590l120 140h51l-134 -140h-37z" />
    <glyph glyph-name="Wdieresis" unicode="&#x1e84;" horiz-adv-x="889" 
d="M200 0l-206 714h45l186 -667h2l189 667h55l192 -667h2l183 667h47l-205 -714h-50l-196 676h-2l-193 -676h-49zM544 793h-44v103h44v-103zM386 793h-44v103h44v-103z" />
    <glyph glyph-name="wdieresis" unicode="&#x1e85;" horiz-adv-x="704" 
d="M39 514l145 -470h2l140 470h51l141 -470h2l144 470h42l-165 -514h-47l-141 466h-2l-142 -466h-48l-163 514h41zM453 603h-44v103h44v-103zM295 603h-44v103h44v-103z" />
    <glyph glyph-name="Ygrave" unicode="&#x1ef2;" horiz-adv-x="574" 
d="M287 336l259 378h49l-287 -415v-299h-44v299l-285 415h50zM325 780h-37l-134 140h51z" />
    <glyph glyph-name="ygrave" unicode="&#x1ef3;" horiz-adv-x="444" 
d="M209 3l-215 511h45l191 -469l176 469h43l-220 -569q-36 -89 -60 -106q-19 -15 -44.5 -19t-75.5 -4v33q42 0 64.5 6.5t42.5 26.5q16 16 53 121zM266 590h-37l-134 140h51z" />
    <glyph glyph-name="uni2010" unicode="&#x2010;" horiz-adv-x="352" 
d="M283 253h-214v38h214v-38z" />
    <glyph glyph-name="endash" unicode="&#x2013;" horiz-adv-x="500" 
d="M0 253v38h500v-38h-500z" />
    <glyph glyph-name="emdash" unicode="&#x2014;" horiz-adv-x="1000" 
d="M130 253v38h740v-38h-740z" />
    <glyph glyph-name="afii00208" unicode="&#x2015;" horiz-adv-x="1000" 
d="M100 253v38h800v-38h-800z" />
    <glyph glyph-name="quoteleft" unicode="&#x2018;" horiz-adv-x="204" 
d="M143 714v-33q-34 -15 -34 -93h21v-103h-51v103q0 101 64 126z" />
    <glyph glyph-name="quoteright" unicode="&#x2019;" horiz-adv-x="204" 
d="M125 714v-103q0 -101 -64 -126v33q34 15 34 93h-21v103h51z" />
    <glyph glyph-name="quotesinglbase" unicode="&#x201a;" horiz-adv-x="204" 
d="M125 103v-103q0 -101 -64 -126v33q34 15 34 93h-21v103h51z" />
    <glyph glyph-name="quotedblleft" unicode="&#x201c;" horiz-adv-x="315" 
d="M254 714v-33q-34 -15 -34 -93h21v-103h-51v103q0 101 64 126zM128 714v-33q-34 -15 -34 -93h21v-103h-51v103q0 101 64 126z" />
    <glyph glyph-name="quotedblright" unicode="&#x201d;" horiz-adv-x="315" 
d="M251 714v-103q0 -101 -64 -126v33q34 15 34 93h-21v103h51zM125 714v-103q0 -101 -64 -126v33q34 15 34 93h-21v103h51z" />
    <glyph glyph-name="quotedblbase" unicode="&#x201e;" horiz-adv-x="315" 
d="M251 103v-103q0 -101 -64 -126v33q34 15 34 93h-21v103h51zM125 103v-103q0 -101 -64 -126v33q34 15 34 93h-21v103h51z" />
    <glyph glyph-name="dagger" unicode="&#x2020;" horiz-adv-x="556" 
d="M54 514h205v200h38v-200h205v-33h-205v-627h-38v627h-205v33z" />
    <glyph glyph-name="daggerdbl" unicode="&#x2021;" horiz-adv-x="556" 
d="M259 714h38v-200h205v-33h-205v-394h205v-33h-205v-200h-38v200h-205v33h205v394h-205v33h205v200z" />
    <glyph glyph-name="bullet" unicode="&#x2022;" horiz-adv-x="500" 
d="M72 357q0 74 52 126t126 52t126.5 -52t52.5 -126t-52.5 -126.5t-126.5 -52.5t-126 52.5t-52 126.5z" />
    <glyph glyph-name="ellipsis" unicode="&#x2026;" horiz-adv-x="1000" 
d="M807 0v103h51v-103h-51zM474 0v103h51v-103h-51zM141 0v103h51v-103h-51z" />
    <glyph glyph-name="perthousand" unicode="&#x2030;" horiz-adv-x="1074" 
d="M105 -24l465 738h40l-465 -738h-40zM193 702q70 0 110.5 -46.5t40.5 -120.5q0 -76 -40 -123.5t-111 -47.5q-75 0 -114 46.5t-39 124.5q0 73 42.5 120t110.5 47zM192 669q-55 0 -84.5 -37t-29.5 -97q0 -62 28 -100t86 -38q54 0 84 38.5t30 99.5q0 57 -30.5 95.5
t-83.5 38.5zM882 -12q-75 0 -113.5 46t-38.5 124q0 72 42 120t110 48q70 0 111 -47.5t41 -120.5q0 -77 -40.5 -123.5t-111.5 -46.5zM527 -12q-75 0 -114 46t-39 124q0 72 42.5 120t110.5 48q70 0 110.5 -47.5t40.5 -120.5q0 -77 -40 -123.5t-111 -46.5zM882 21q54 0 84 38.5
t30 98.5q0 57 -30.5 96t-83.5 39q-55 0 -84.5 -37.5t-29.5 -97.5q0 -62 28 -99.5t86 -37.5zM525 21q54 0 84.5 38.5t30.5 98.5q0 57 -30.5 96t-84.5 39q-55 0 -84 -37.5t-29 -97.5q0 -137 113 -137z" />
    <glyph glyph-name="guilsinglleft" unicode="&#x2039;" horiz-adv-x="259" 
d="M181 121l-114 131v40l114 131v-51l-85 -100l85 -102v-49z" />
    <glyph glyph-name="guilsinglright" unicode="&#x203a;" horiz-adv-x="259" 
d="M78 121v49l85 102l-85 100v51l114 -131v-40z" />
    <glyph glyph-name="interrobang" unicode="&#x203d;" 
d="M230 714h48v-63q85 -4 134 -47t49 -115q0 -34 -16.5 -64.5t-31 -45.5t-47.5 -43q-55 -48 -72 -73.5t-19 -58.5l-1 -23h-36l-8 292v139q-71 -7 -108.5 -46.5t-40.5 -102.5h-38q3 81 50.5 129.5t136.5 56.5v65zM423 489q0 55 -39 87.5t-106 36.5v-140l-9 -189q17 28 75 77
q42 35 60.5 62.5t18.5 65.5zM282 0h-51v103h51v-103z" />
    <glyph glyph-name="fraction" unicode="&#x2044;" horiz-adv-x="167" 
d="M-169 -24l465 738h40l-465 -738h-40z" />
    <glyph glyph-name="zero.superior" unicode="&#x2070;" horiz-adv-x="360" 
d="M180 388q-57 0 -93 34t-48 80.5t-12 105.5q0 43 7.5 80t24 70t47.5 52t74 19q57 0 93 -34t48 -80.5t12 -105.5q0 -43 -7.5 -80t-24 -70t-47.5 -52t-74 -19zM61 608q0 -48 9 -87.5t37 -71t73 -31.5t73 31t37 70.5t9 89.5q0 48 -9 87.5t-37 71t-73 31.5t-73 -31t-37 -70.5
t-9 -89.5z" />
    <glyph glyph-name="four.superior" unicode="&#x2074;" horiz-adv-x="360" 
d="M233 397v101h-215v31l218 291h31v-291h68v-31h-68v-101h-34zM233 769l-181 -240h181v240z" />
    <glyph glyph-name="five.superior" unicode="&#x2075;" horiz-adv-x="360" 
d="M300 789h-187l-30 -149q38 40 99 40q67 0 103 -39t36 -104q0 -66 -41 -107.5t-106 -41.5q-64 0 -103 34.5t-40 95.5h34q1 -48 31 -74t79 -26q51 0 81.5 31t30.5 86q0 52 -28 83.5t-81 31.5q-64 0 -105 -50h-30l43 220h214v-31z" />
    <glyph glyph-name="six.superior" unicode="&#x2076;" horiz-adv-x="360" 
d="M321 730h-35q-15 69 -91 69q-123 0 -126 -207q16 37 49.5 57.5t76.5 20.5q63 0 100 -38t37 -101t-38 -103t-105 -40q-76 0 -115 52.5t-39 153.5q0 104 39.5 169.5t121.5 65.5q52 0 84.5 -26.5t40.5 -72.5zM190 640q-50 0 -81 -31.5t-31 -75.5q0 -48 29.5 -81.5
t81.5 -33.5q51 0 80 30t29 81q0 49 -28.5 80t-79.5 31z" />
    <glyph glyph-name="seven.superior" unicode="&#x2077;" horiz-adv-x="360" 
d="M41 788v32h282v-30q-77 -74 -127 -174.5t-56 -218.5h-37q14 220 178 391h-240z" />
    <glyph glyph-name="eight.superior" unicode="&#x2078;" horiz-adv-x="360" 
d="M306 721q0 -68 -69 -92q89 -24 89 -113q0 -60 -40.5 -94t-105.5 -34q-68 0 -107.5 33.5t-39.5 94.5q0 41 23 70.5t65 40.5q-69 24 -69 94q0 47 35 77.5t92 30.5q58 0 92.5 -29t34.5 -79zM180 641q42 0 67 21t25 59q0 36 -23.5 57t-68.5 21t-69.5 -21t-24.5 -57
q0 -40 25.5 -60t68.5 -20zM180 418q53 0 82.5 25t29.5 73q0 44 -30 69.5t-82 25.5q-55 0 -84 -25t-29 -70q0 -47 30 -72.5t83 -25.5z" />
    <glyph glyph-name="nine.superior" unicode="&#x2079;" horiz-adv-x="360" 
d="M39 487h35q6 -32 29.5 -50.5t61.5 -18.5q123 0 126 208q-35 -77 -126 -77q-63 0 -100 37t-37 99t39 103t106 41q152 0 152 -205q0 -106 -39 -171t-122 -65q-52 0 -84.5 26.5t-40.5 72.5zM170 579q50 0 81 31t31 75q0 49 -28.5 81.5t-80.5 32.5q-51 0 -81 -30.5t-30 -81.5
q0 -49 28.5 -78.5t79.5 -29.5z" />
    <glyph glyph-name="plus.superior" unicode="&#x207a;" horiz-adv-x="390" 
d="M178 565v137h33v-137h144v-31h-144v-137h-33v137h-144v31h144z" />
    <glyph glyph-name="minus.superior" unicode="&#x207b;" horiz-adv-x="240" 
d="M32 579h175v-30h-175v30z" />
    <glyph glyph-name="equal.superior" unicode="&#x207c;" horiz-adv-x="390" 
d="M34 625h321v-31h-321v31zM34 507h321v-31h-321v31z" />
    <glyph glyph-name="parenleft.superior" unicode="&#x207d;" horiz-adv-x="180" 
d="M48 597q0 143 92 279h29q-85 -139 -85 -279q0 -72 19.5 -137t65.5 -142h-29q-92 132 -92 279z" />
    <glyph glyph-name="parenright.superior" unicode="&#x207e;" horiz-adv-x="180" 
d="M132 597q0 -143 -92 -279h-29q85 139 85 279q0 72 -19.5 137t-65.5 142h29q92 -132 92 -279z" />
    <glyph glyph-name="n.superior" unicode="&#x207f;" horiz-adv-x="360" 
d="M52 397v313h35v-55q32 64 108 64q55 0 84 -31.5t29 -82.5v-208h-35v199q0 94 -84 94q-47 0 -74.5 -30.5t-27.5 -71.5v-191h-35z" />
    <glyph glyph-name="zero.inferior" unicode="&#x2080;" horiz-adv-x="360" 
d="M180 -178q-57 0 -93 34t-48 80.5t-12 105.5q0 43 7.5 80t24 70t47.5 52t74 19q57 0 93 -34t48 -80.5t12 -105.5q0 -43 -7.5 -80t-24 -70t-47.5 -52t-74 -19zM61 42q0 -48 9 -87.5t37 -71t73 -31.5t73 31t37 70.5t9 89.5q0 48 -9 87.5t-37 71t-73 31.5t-73 -31t-37 -70.5
t-9 -89.5z" />
    <glyph glyph-name="one.inferior" unicode="&#x2081;" horiz-adv-x="360" 
d="M66 140v30q95 14 126 84h27v-423h-34v362q-46 -46 -119 -53z" />
    <glyph glyph-name="two.inferior" unicode="&#x2082;" horiz-adv-x="360" 
d="M81 120h-34q0 67 36.5 105t102.5 38q58 0 93 -32.5t35 -89.5q0 -77 -82 -130l-61 -40q-47 -30 -68 -54t-26 -55h236v-31h-273q0 58 29.5 94t89.5 75l56 36q65 42 65 106q0 42 -26 66.5t-68 24.5q-52 0 -78.5 -30.5t-26.5 -82.5z" />
    <glyph glyph-name="three.inferior" unicode="&#x2083;" horiz-adv-x="360" 
d="M150 39v31h31q39 0 66 20.5t27 59.5q0 40 -24 61.5t-67 21.5q-50 0 -75.5 -27t-27.5 -75h-34q1 60 37 96t101 36q57 0 90.5 -30t33.5 -82q0 -35 -20.5 -60t-56.5 -34q44 -6 69 -35t25 -71q0 -61 -41.5 -95t-104.5 -34q-67 0 -105 36.5t-38 102.5h34q0 -53 28.5 -81
t79.5 -28q50 0 81.5 25t31.5 73q0 41 -29 65t-81 24h-31z" />
    <glyph glyph-name="four.inferior" unicode="&#x2084;" horiz-adv-x="360" 
d="M233 -169v101h-215v31l218 291h31v-291h68v-31h-68v-101h-34zM233 203l-181 -240h181v240z" />
    <glyph glyph-name="five.inferior" unicode="&#x2085;" horiz-adv-x="360" 
d="M300 223h-187l-30 -149q38 40 99 40q67 0 103 -39t36 -104q0 -66 -41 -107.5t-106 -41.5q-64 0 -103 34.5t-40 95.5h34q1 -48 31 -74t79 -26q51 0 81.5 31t30.5 86q0 52 -28 83.5t-81 31.5q-64 0 -105 -50h-30l43 220h214v-31z" />
    <glyph glyph-name="six.inferior" unicode="&#x2086;" horiz-adv-x="360" 
d="M321 164h-35q-15 69 -91 69q-123 0 -126 -207q16 37 49.5 57.5t76.5 20.5q63 0 100 -38t37 -101t-38 -103t-105 -40q-76 0 -115 52.5t-39 153.5q0 104 39.5 169.5t121.5 65.5q52 0 84.5 -26.5t40.5 -72.5zM190 74q-50 0 -81 -31.5t-31 -75.5q0 -48 29.5 -81.5t81.5 -33.5
q51 0 80 30t29 81q0 49 -28.5 80t-79.5 31z" />
    <glyph glyph-name="seven.inferior" unicode="&#x2087;" horiz-adv-x="360" 
d="M41 222v32h282v-30q-77 -74 -127 -174.5t-56 -218.5h-37q14 220 178 391h-240z" />
    <glyph glyph-name="eight.inferior" unicode="&#x2088;" horiz-adv-x="360" 
d="M306 155q0 -68 -69 -92q89 -24 89 -113q0 -60 -40.5 -94t-105.5 -34q-68 0 -107.5 33.5t-39.5 94.5q0 41 23 70.5t65 40.5q-69 24 -69 94q0 47 35 77.5t92 30.5q58 0 92.5 -29t34.5 -79zM180 75q42 0 67 21t25 59q0 36 -23.5 57t-68.5 21t-69.5 -21t-24.5 -57
q0 -40 25.5 -60t68.5 -20zM180 -148q53 0 82.5 25t29.5 73q0 44 -30 69.5t-82 25.5q-55 0 -84 -25t-29 -70q0 -47 30 -72.5t83 -25.5z" />
    <glyph glyph-name="nine.inferior" unicode="&#x2089;" horiz-adv-x="360" 
d="M39 -79h35q6 -32 29.5 -50.5t61.5 -18.5q123 0 126 208q-35 -77 -126 -77q-63 0 -100 37t-37 99t39 103t106 41q152 0 152 -205q0 -106 -39 -171t-122 -65q-52 0 -84.5 26.5t-40.5 72.5zM170 13q50 0 81 31t31 75q0 49 -28.5 81.5t-80.5 32.5q-51 0 -81 -30.5t-30 -81.5
q0 -49 28.5 -78.5t79.5 -29.5z" />
    <glyph glyph-name="plus.inferior" unicode="&#x208a;" horiz-adv-x="390" 
d="M178 -1v137h33v-137h144v-31h-144v-137h-33v137h-144v31h144z" />
    <glyph glyph-name="minus.inferior" unicode="&#x208b;" horiz-adv-x="240" 
d="M32 13h175v-30h-175v30z" />
    <glyph glyph-name="equal.inferior" unicode="&#x208c;" horiz-adv-x="390" 
d="M34 59h321v-31h-321v31zM34 -59h321v-31h-321v31z" />
    <glyph glyph-name="parenleft.inferior" unicode="&#x208d;" horiz-adv-x="180" 
d="M48 31q0 143 92 279h29q-85 -139 -85 -279q0 -72 19.5 -137t65.5 -142h-29q-92 132 -92 279z" />
    <glyph glyph-name="parenright.inferior" unicode="&#x208e;" horiz-adv-x="180" 
d="M132 31q0 -143 -92 -279h-29q85 139 85 279q0 72 -19.5 137t-65.5 142h29q92 -132 92 -279z" />
    <glyph glyph-name="Euro" unicode="&#x20ac;" horiz-adv-x="556" 
d="M530 595l-21 -38q-16 54 -64 85q-42 27 -108 27q-95 0 -149 -56q-31 -31 -49.5 -82t-22.5 -101h332l-15 -33h-320q-2 -34 -2 -50t2 -46h283l-15 -33h-264q9 -94 54 -160q59 -87 170 -87q52 0 96 17q49 20 85 61v-46q-33 -29 -69 -43q-51 -22 -117 -22q-129 0 -197 98
q-53 75 -62 182h-65l15 33h48q-5 51 0 96h-63l15 33h50q4 60 27.5 119t66.5 96q66 57 166 57q79 0 127 -30q46 -29 66 -77z" />
    <glyph glyph-name="afii61248" unicode="&#x2105;" horiz-adv-x="824" 
d="M157 -24l465 738h40l-465 -738h-40zM294 383h34q-9 -55 -43.5 -86.5t-89.5 -31.5q-78 0 -115.5 58.5t-37.5 162.5q0 102 38.5 161t115.5 59q117 0 132 -127h-34q-12 97 -98 97q-61 0 -90.5 -51.5t-29.5 -138.5q0 -88 29.5 -139.5t89.5 -51.5q83 0 99 88zM629 -9
q-57 0 -93 34t-48 80.5t-12 105.5q0 43 7.5 80t24 70t47.5 52t74 19q57 0 93 -34t48 -80.5t12 -105.5q0 -43 -7.5 -80t-24 -70t-47.5 -52t-74 -19zM510 211q0 -48 9 -87.5t37 -71t73 -31.5t73 31t37 70.5t9 89.5q0 48 -9 87.5t-37 71t-73 31.5t-73 -31t-37 -70.5t-9 -89.5z
" />
    <glyph glyph-name="afii61289" unicode="&#x2113;" horiz-adv-x="500" 
d="M396 35q-49 -49 -110 -49q-48 0 -79 29t-31 90v148l-60 -68h-2l-15 19l77 83v269q0 79 30.5 122t75.5 43q40 0 65 -31t25 -87q0 -141 -161 -324v-168q0 -53 24 -74.5t57 -21.5q49 0 88 39h2zM342 599q0 43 -17.5 69t-42.5 26q-30 0 -50.5 -33.5t-20.5 -100.5v-246
q131 157 131 285z" />
    <glyph glyph-name="afii61352" unicode="&#x2116;" horiz-adv-x="950" 
d="M63 0v690h55l411 -631h2v631h44v-690h-52l-414 636h-2v-636h-44zM768 126q-63 0 -98.5 40.5t-35.5 104.5t35.5 104.5t98.5 40.5t98.5 -40.5t35.5 -104.5t-35.5 -104.5t-98.5 -40.5zM768 160q47 0 72 31t25 80t-25 80t-72 31t-72 -31t-25 -80t25 -80t72 -31zM910 0h-274
v40h274v-40z" />
    <glyph glyph-name="published" unicode="&#x2117;" horiz-adv-x="800" 
d="M26 357q0 155 109.5 264.5t264.5 109.5t264.5 -109.5t109.5 -264.5t-109.5 -264.5t-264.5 -109.5t-264.5 109.5t-109.5 264.5zM401 698q-144 0 -240.5 -98t-96.5 -242q0 -143 97 -242.5t240 -99.5q142 0 238.5 100t96.5 242q0 144 -96 242t-239 98zM309 330v-194h-38v442
h172q63 0 100.5 -32.5t37.5 -91.5t-37.5 -91.5t-100.5 -32.5h-134zM309 363h131q48 0 75.5 23.5t27.5 67.5q0 42 -28 66.5t-75 24.5h-131v-182z" />
    <glyph glyph-name="trademark" unicode="&#x2122;" horiz-adv-x="990" 
d="M542 714l152 -346l152 346h59v-412h-32v379h-3l-167 -379h-18l-167 379h-3v-379h-32v412h59zM404 714v-33h-143v-379h-32v379h-144v33h319z" />
    <glyph glyph-name="Omega" unicode="&#x2126;" horiz-adv-x="741" 
d="M370 731q147 0 240 -100t93 -245q0 -221 -192 -345v-3h192v-38h-253v39q105 64 156.5 147t51.5 200q0 128 -80.5 217.5t-207.5 89.5t-207 -87t-80 -220q0 -117 51 -200.5t154 -146.5v-39h-249v38h185v3q-186 119 -186 345q0 150 93 247.5t239 97.5z" />
    <glyph glyph-name="estimated" unicode="&#x212e;" horiz-adv-x="760" 
d="M719 345h-527v-236q77 -77 189 -77q82 0 143 37.5t109 119.5l46 -28q-61 -94 -129 -135t-169 -41q-151 0 -244 103t-93 257q0 155 93 258t244 103q150 0 243.5 -100.5t94.5 -260.5zM192 393h380v189q-82 78 -192 78t-188 -78v-189z" />
    <glyph glyph-name="onethird" unicode="&#x2153;" horiz-adv-x="834" 
d="M110 -24l465 738h40l-465 -738h-40zM58 583v30q95 14 126 84h27v-423h-34v362q-46 -46 -119 -53zM591 208v31h31q39 0 66 20.5t27 59.5q0 40 -24 61.5t-67 21.5q-50 0 -75.5 -27t-27.5 -75h-34q1 60 37 96t101 36q57 0 90.5 -30t33.5 -82q0 -35 -20.5 -60t-56.5 -34
q44 -6 69 -35t25 -71q0 -61 -41.5 -95t-104.5 -34q-67 0 -105 36.5t-38 102.5h34q0 -53 28.5 -81t79.5 -28q50 0 81.5 25t31.5 73q0 41 -29 65t-81 24h-31z" />
    <glyph glyph-name="twothirds" unicode="&#x2154;" horiz-adv-x="834" 
d="M177 -24l465 738h40l-465 -738h-40zM96 563h-34q0 67 36.5 105t102.5 38q58 0 93 -32.5t35 -89.5q0 -77 -82 -130l-61 -40q-47 -30 -68 -54t-26 -55h236v-31h-273q0 58 29.5 94t89.5 75l56 36q65 42 65 106q0 42 -26 66.5t-68 24.5q-52 0 -78.5 -30.5t-26.5 -82.5z
M608 208v31h31q39 0 66 20.5t27 59.5q0 40 -24 61.5t-67 21.5q-50 0 -75.5 -27t-27.5 -75h-34q1 60 37 96t101 36q57 0 90.5 -30t33.5 -82q0 -35 -20.5 -60t-56.5 -34q44 -6 69 -35t25 -71q0 -61 -41.5 -95t-104.5 -34q-67 0 -105 36.5t-38 102.5h34q0 -53 28.5 -81
t79.5 -28q50 0 81.5 25t31.5 73q0 41 -29 65t-81 24h-31z" />
    <glyph glyph-name="oneeighth" unicode="&#x215b;" horiz-adv-x="834" 
d="M109 -24l465 738h40l-465 -738h-40zM58 583v30q95 14 126 84h27v-423h-34v362q-46 -46 -119 -53zM735 324q0 -68 -69 -92q89 -24 89 -113q0 -60 -40.5 -94t-105.5 -34q-68 0 -107.5 33.5t-39.5 94.5q0 41 23 70.5t65 40.5q-69 24 -69 94q0 47 35 77.5t92 30.5
q58 0 92.5 -29t34.5 -79zM609 244q42 0 67 21t25 59q0 36 -23.5 57t-68.5 21t-69.5 -21t-24.5 -57q0 -40 25.5 -60t68.5 -20zM609 21q53 0 82.5 25t29.5 73q0 44 -30 69.5t-82 25.5q-55 0 -84 -25t-29 -70q0 -47 30 -72.5t83 -25.5z" />
    <glyph glyph-name="threeeighths" unicode="&#x215c;" horiz-adv-x="834" 
d="M164 -24l465 738h40l-465 -738h-40zM173 482v31h31q39 0 66 20.5t27 59.5q0 40 -24 61.5t-67 21.5q-50 0 -75.5 -27t-27.5 -75h-34q1 60 37 96t101 36q57 0 90.5 -30t33.5 -82q0 -35 -20.5 -60t-56.5 -34q44 -6 69 -35t25 -71q0 -61 -41.5 -95t-104.5 -34
q-67 0 -105 36.5t-38 102.5h34q0 -53 28.5 -81t79.5 -28q50 0 81.5 25t31.5 73q0 41 -29 65t-81 24h-31zM745 324q0 -68 -69 -92q89 -24 89 -113q0 -60 -40.5 -94t-105.5 -34q-68 0 -107.5 33.5t-39.5 94.5q0 41 23 70.5t65 40.5q-69 24 -69 94q0 47 35 77.5t92 30.5
q58 0 92.5 -29t34.5 -79zM619 244q42 0 67 21t25 59q0 36 -23.5 57t-68.5 21t-69.5 -21t-24.5 -57q0 -40 25.5 -60t68.5 -20zM619 21q53 0 82.5 25t29.5 73q0 44 -30 69.5t-82 25.5q-55 0 -84 -25t-29 -70q0 -47 30 -72.5t83 -25.5z" />
    <glyph glyph-name="fiveeighths" unicode="&#x215d;" horiz-adv-x="834" 
d="M164 -24l465 738h40l-465 -738h-40zM328 666h-187l-30 -149q38 40 99 40q67 0 103 -39t36 -104q0 -66 -41 -107.5t-106 -41.5q-64 0 -103 34.5t-40 95.5h34q1 -48 31 -74t79 -26q51 0 81.5 31t30.5 86q0 52 -28 83.5t-81 31.5q-64 0 -105 -50h-30l43 220h214v-31z
M745 324q0 -68 -69 -92q89 -24 89 -113q0 -60 -40.5 -94t-105.5 -34q-68 0 -107.5 33.5t-39.5 94.5q0 41 23 70.5t65 40.5q-69 24 -69 94q0 47 35 77.5t92 30.5q58 0 92.5 -29t34.5 -79zM619 244q42 0 67 21t25 59q0 36 -23.5 57t-68.5 21t-69.5 -21t-24.5 -57
q0 -40 25.5 -60t68.5 -20zM619 21q53 0 82.5 25t29.5 73q0 44 -30 69.5t-82 25.5q-55 0 -84 -25t-29 -70q0 -47 30 -72.5t83 -25.5z" />
    <glyph glyph-name="seveneighths" unicode="&#x215e;" horiz-adv-x="834" 
d="M104 -24l465 738h40l-465 -738h-40zM81 665v32h282v-30q-77 -74 -127 -174.5t-56 -218.5h-37q14 220 178 391h-240zM735 324q0 -68 -69 -92q89 -24 89 -113q0 -60 -40.5 -94t-105.5 -34q-68 0 -107.5 33.5t-39.5 94.5q0 41 23 70.5t65 40.5q-69 24 -69 94q0 47 35 77.5
t92 30.5q58 0 92.5 -29t34.5 -79zM609 244q42 0 67 21t25 59q0 36 -23.5 57t-68.5 21t-69.5 -21t-24.5 -57q0 -40 25.5 -60t68.5 -20zM609 21q53 0 82.5 25t29.5 73q0 44 -30 69.5t-82 25.5q-55 0 -84 -25t-29 -70q0 -47 30 -72.5t83 -25.5z" />
    <glyph glyph-name="partialdiff" unicode="&#x2202;" horiz-adv-x="463" 
d="M424 369q0 -47 -4.5 -92.5t-18.5 -100t-36 -94.5t-62 -67t-93 -27q-83 0 -133 68t-50 154q0 88 49.5 149.5t135.5 61.5q103 0 176 -97q0 10 0.5 30.5t0.5 30.5q0 49 -9 98t-29 97t-59 78t-92 30q-55 0 -115 -45l-20 26q65 52 134 52q52 0 92.5 -23.5t65 -59.5t40 -84.5
t21.5 -93.5t6 -91zM384 284q-77 105 -171 105q-71 0 -110.5 -53.5t-39.5 -126.5q0 -71 40 -130.5t108 -59.5q45 0 79 26.5t53 70t28 84.5t13 84z" />
    <glyph glyph-name="Delta" unicode="&#x2206;" horiz-adv-x="593" 
d="M605 0h-617l287 714h48zM299 671l-249 -633h492l-241 633h-2z" />
    <glyph glyph-name="product" unicode="&#x220f;" horiz-adv-x="704" 
d="M621 -214h-36v965h-466v-965h-36v1000h538v-1000z" />
    <glyph glyph-name="summation" unicode="&#x2211;" horiz-adv-x="593" 
d="M558 -214h-523v32l338 471l-324 464v33h497v-35h-451l322 -462l-338 -468h479v-35z" />
    <glyph glyph-name="minus" unicode="&#x2212;" horiz-adv-x="600" 
d="M552 233h-504v38h504v-38z" />
    <glyph glyph-name="uni2215" unicode="&#x2215;" horiz-adv-x="167" 
d="M-169 -24l465 738h40l-465 -738h-40z" />
    <glyph glyph-name="uni2219" unicode="&#x2219;" horiz-adv-x="278" 
d="M85 317q0 21 16.5 37.5t37.5 16.5t38 -16.5t17 -37.5q0 -22 -16.5 -38.5t-38.5 -16.5q-21 0 -37.5 17t-16.5 38z" />
    <glyph glyph-name="radical" unicode="&#x221a;" horiz-adv-x="463" 
d="M467 782l-215 -999h-32l-178 366l-44 -21l-13 27l73 36l173 -359l203 950h33z" />
    <glyph glyph-name="infinity" unicode="&#x221e;" horiz-adv-x="722" 
d="M675 246q0 -58 -34 -95.5t-92 -37.5q-14 0 -28.5 3t-25.5 7t-25.5 12.5l-23 13.5t-23.5 17.5t-20.5 17.5l-21.5 19.5t-20 18.5q-6 -5 -32 -28.5t-37 -31.5t-33.5 -22.5t-42.5 -20t-43 -5.5q-56 0 -91 36.5t-35 93.5q0 55 34.5 93.5t88.5 38.5q21 0 41.5 -5.5t45 -22
l34.5 -23.5t39 -32.5t31 -27.5q3 3 22 20l25.5 22.5t24.5 19.5t28.5 20t27 14.5t31 11.5t29.5 3q56 0 91 -36.5t35 -93.5zM642 245q0 43 -24.5 70.5t-66.5 27.5q-11 0 -23 -3t-22 -7t-23 -12l-21.5 -13.5t-22.5 -17l-19.5 -16t-19.5 -17t-17 -14.5q2 -2 17 -15.5t19.5 -17
t18.5 -15.5t21 -16t20.5 -12.5t23 -11.5t22 -6t24.5 -3q44 0 68.5 27t24.5 72zM338 243l-28 23.5t-34.5 28.5t-32 22.5t-39 19.5t-36.5 6q-40 0 -64 -28.5t-24 -69.5q0 -44 24.5 -71t68.5 -27q30 0 63.5 17.5t52.5 33.5t49 45z" />
    <glyph glyph-name="integral" unicode="&#x222b;" horiz-adv-x="534" 
d="M374 750q0 -12 -7.5 -19t-19.5 -7q-17 0 -27 15.5t-16 15.5q-43 0 -43 -191v-24l1 -476q0 -7 0.5 -29t0.5 -36.5t-1 -39t-4 -42l-7 -39.5t-12 -36.5t-18.5 -28t-26 -20t-34.5 -6.5q-17 0 -29 9t-12 25q0 10 8 17.5t18 7.5q9 0 21 -13t19 -13q41 0 41 181v23v491
q0 6 -1 37.5t0 49.5t3 49.5t8.5 51.5t17 41t29 31.5t42.5 10.5q49 0 49 -36z" />
    <glyph glyph-name="approxequal" unicode="&#x2248;" horiz-adv-x="600" 
d="M426 277q-45 0 -129 36t-123 36q-36 0 -58 -19t-40 -56l-33 8q43 103 131 103q45 0 128.5 -36t123.5 -36q36 0 58.5 19.5t39.5 57.5l33 -8q-43 -105 -131 -105zM426 110q-45 0 -129 36t-123 36q-36 0 -58.5 -19.5t-39.5 -57.5l-33 8q43 105 131 105q45 0 128.5 -36
t123.5 -36q36 0 58 19t40 56l33 -8q-43 -103 -131 -103z" />
    <glyph glyph-name="notequal" unicode="&#x2260;" horiz-adv-x="600" 
d="M552 175v-38h-301l-84 -137l-32 18l72 119h-159v38h182l96 156h-278v38h301l84 137l32 -18l-73 -119h160v-38h-183l-95 -156h278z" />
    <glyph glyph-name="lessequal" unicode="&#x2264;" horiz-adv-x="600" 
d="M552 514v-42l-466 -168l466 -170v-42l-504 189v46zM48 0v38h503v-38h-503z" />
    <glyph glyph-name="greaterequal" unicode="&#x2265;" horiz-adv-x="600" 
d="M48 472v42l504 -187v-46l-504 -189v42l466 170zM552 38v-38h-503v38h503z" />
    <glyph glyph-name="lozenge" unicode="&#x25ca;" horiz-adv-x="593" 
d="M481 356l-170 -391h-30l-169 391l169 391h30zM444 356l-148 346l-148 -346l148 -346z" />
    <glyph glyph-name="grave.cap" unicode="&#xe000;" horiz-adv-x="167" 
d="M141 780h-37l-134 140h51z" />
    <glyph glyph-name="acute.cap" unicode="&#xe002;" horiz-adv-x="167" 
d="M26 780l120 140h51l-134 -140h-37z" />
    <glyph glyph-name="circumflex.cap" unicode="&#xe004;" horiz-adv-x="167" 
d="M63 920h40l116 -140h-38l-98 115l-97 -115h-38z" />
    <glyph glyph-name="caron.cap" unicode="&#xe006;" horiz-adv-x="167" 
d="M103 780h-40l-115 140h38l97 -115l98 115h38z" />
    <glyph glyph-name="caron.alt" unicode="&#xe008;" horiz-adv-x="167" 
d="M31 574l65 140h51l-87 -140h-29z" />
    <glyph glyph-name="tilde.cap" unicode="&#xe009;" horiz-adv-x="167" 
d="M-32 799h-29q2 36 23.5 63t54.5 27q26 0 72.5 -28.5t64.5 -28.5q19 0 30.5 17t14.5 40h29q-4 -38 -22.5 -64t-53.5 -26q-23 0 -68.5 28.5t-68.5 28.5q-38 0 -47 -57z" />
    <glyph glyph-name="dieresis.cap" unicode="&#xe00b;" horiz-adv-x="167" 
d="M184 793h-44v103h44v-103zM26 793h-44v103h44v-103z" />
    <glyph glyph-name="macron.cap" unicode="&#xe00d;" horiz-adv-x="167" 
d="M205 828h-242v33h242v-33z" />
    <glyph glyph-name="breve.cap" unicode="&#xe00f;" horiz-adv-x="167" 
d="M186 910h33q-6 -49 -43.5 -84.5t-87.5 -35.5q-58 0 -95.5 32t-44.5 88h33q21 -87 106 -87q39 0 65.5 24t33.5 63z" />
    <glyph glyph-name="ring.cap" unicode="&#xe011;" horiz-adv-x="167" 
d="M-16 850q0 42 28.5 70.5t70.5 28.5t70.5 -28.5t28.5 -70.5t-28.5 -70.5t-70.5 -28.5t-70.5 28.5t-28.5 70.5zM11 850q0 -30 21 -51t51 -21t51 21t21 51t-21 51t-51 21t-51 -21t-21 -51z" />
    <glyph glyph-name="hungarumlaut.cap" unicode="&#xe013;" horiz-adv-x="167" 
d="M139 780h-37l120 140h51zM-19 780h-37l120 140h51z" />
    <glyph glyph-name="dotaccent.cap" unicode="&#xe015;" horiz-adv-x="167" 
d="M105 793h-44v103h44v-103z" />
    <glyph glyph-name="commaaccent" unicode="&#xe017;" horiz-adv-x="278" 
d="M113 -196v20q27 6 31 33h-25v93h57v-80q0 -61 -63 -66z" />
    <glyph glyph-name="commaaccent.alt" unicode="&#xe01a;" horiz-adv-x="278" 
d="M165 767v-20q-27 -6 -31 -33h25v-93h-57v80q0 61 63 66z" />
    <glyph glyph-name="tonos.cap" unicode="&#xe01b;" horiz-adv-x="230" 
d="M67 574l79 140h50l-91 -140h-38z" />
    <glyph glyph-name="f_i" unicode="&#xf001;" horiz-adv-x="389" 
d="M0 481v33h92v106q0 51 32 76.5t81 25.5q17 0 45 -5v-33q-28 5 -45 5q-75 0 -75 -72v-103h107v-33h-107v-481h-38v481h-92zM286 611v103h38v-103h-38zM286 0v514h38v-514h-38z" />
    <glyph glyph-name="f_l" unicode="&#xf002;" horiz-adv-x="389" 
d="M0 481v33h92v106q0 51 32 76.5t81 25.5q17 0 45 -5v-33q-28 5 -45 5q-75 0 -75 -72v-103h107v-33h-107v-481h-38v481h-92zM286 0v714h38v-714h-38z" />
    <glyph glyph-name="uniF8FF" unicode="&#xf8ff;" horiz-adv-x="512" 
d="M0 718h512v-718h-512v718zM50 50h412v617h-412v-617zM271 234h-46l-2 17q0 56 13 81q15 28 46 59q31 29 40.5 46t9.5 37q0 36 -22.5 60.5t-53.5 24.5q-71 0 -82 -95l-50 8q7 69 43 103t92 34q54 0 89 -36t35 -95q0 -34 -13 -60t-50 -60q-37 -33 -43 -52q-6 -20 -6 -72z
M278 117h-56v67h56v-67z" />
    </font>
</defs>
</svg>
